{"glyphs":{"0":{"ha":972,"x_min":88,"x_max":885,"o":"m 486 -15 q 272 48 361 -15 q 135 233 183 111 q 88 528 88 354 q 135 823 88 701 q 272 1008 183 944 q 486 1071 361 1071 q 700 1008 611 1071 q 837 823 789 944 q 885 528 885 701 q 837 233 885 354 q 700 48 789 111 q 486 -15 611 -15 m 486 61 q 649 113 581 61 q 753 270 717 165 q 789 528 789 375 q 753 785 789 681 q 649 942 717 890 q 486 994 581 994 q 324 942 392 994 q 219 785 256 890 q 183 528 183 681 q 219 270 183 375 q 324 113 256 165 q 486 61 392 61 z "},"1":{"ha":501,"x_min":36,"x_max":354,"o":"m 282 1056 l 354 1056 l 354 0 l 261 0 l 261 826 l 36 826 l 36 904 l 135 904 q 214 914 185 904 q 257 943 243 924 q 278 996 271 963 l 282 1056 z "},"2":{"ha":890,"x_min":71,"x_max":826,"o":"m 172 78 l 826 78 l 826 0 l 71 0 l 71 108 l 532 514 q 622 600 586 561 q 678 683 657 639 q 700 776 700 728 q 670 885 700 836 q 582 965 640 935 q 443 994 524 994 q 254 938 325 994 q 175 779 183 881 l 78 779 q 135 938 85 872 q 265 1037 185 1003 q 443 1071 346 1071 q 627 1033 547 1071 q 751 927 707 994 q 796 776 796 860 q 773 663 796 715 q 709 562 750 610 q 604 458 668 514 l 172 78 z "},"3":{"ha":900,"x_min":67,"x_max":819,"o":"m 531 563 q 662 526 596 554 q 774 441 728 497 q 819 299 819 385 q 766 126 819 197 q 624 20 713 56 q 428 -15 535 -15 q 249 18 326 -15 q 124 114 171 51 q 67 263 76 176 l 163 263 q 244 115 175 168 q 428 61 313 61 q 570 87 503 61 q 681 167 638 113 q 724 301 724 221 q 681 424 724 374 q 570 499 639 474 q 422 524 501 524 l 365 524 l 365 601 l 422 601 q 558 627 497 601 q 652 699 618 653 q 686 800 686 744 q 654 899 686 856 q 564 969 622 943 q 428 994 506 994 q 304 970 357 994 q 221 903 251 946 q 185 806 190 861 l 89 806 q 143 945 96 885 q 265 1038 190 1006 q 428 1071 339 1071 q 607 1038 526 1071 q 735 946 688 1006 q 782 807 782 886 q 707 638 782 696 q 531 563 632 581 z "},"4":{"ha":908,"x_min":39,"x_max":868,"o":"m 706 406 l 868 406 l 868 328 l 706 328 l 706 0 l 611 0 l 611 328 l 39 328 l 39 435 l 501 1056 l 603 1056 l 119 406 l 611 406 l 611 1056 l 706 1056 l 706 406 z "},"5":{"ha":894,"x_min":85,"x_max":826,"o":"m 482 715 q 653 672 575 715 q 779 547 732 629 q 826 353 826 465 q 777 156 826 239 q 643 28 728 72 q 454 -15 558 -15 q 278 18 358 -15 q 148 115 199 51 q 85 263 97 178 l 181 263 q 226 158 189 203 q 322 87 263 113 q 453 61 381 61 q 595 96 532 61 q 694 197 658 131 q 731 353 731 263 q 694 508 731 443 q 594 606 657 572 q 457 639 532 639 q 288 592 360 639 q 181 465 217 546 l 90 475 l 146 1056 l 767 1056 l 767 978 l 231 978 l 189 540 q 252 627 211 588 q 351 691 293 667 q 482 715 410 715 z "},"6":{"ha":946,"x_min":86,"x_max":871,"o":"m 508 693 q 700 650 618 693 q 826 526 782 607 q 871 339 871 446 q 821 153 871 233 q 685 28 771 72 q 493 -15 599 -15 q 276 45 368 -15 q 135 227 185 106 q 86 528 86 349 q 137 824 86 701 q 278 1008 188 946 q 490 1071 369 1071 q 722 1002 631 1071 q 846 808 813 933 l 750 808 q 659 944 724 893 q 490 994 594 994 q 318 935 388 994 q 215 770 249 875 q 182 531 182 665 q 185 456 182 506 q 251 581 203 528 q 367 664 300 635 q 508 693 435 693 m 492 61 q 637 97 572 61 q 738 195 701 132 q 775 339 775 258 q 742 484 775 421 q 644 583 708 547 q 492 618 581 618 q 340 581 406 618 q 237 485 274 544 q 200 358 200 425 q 233 213 200 281 q 331 103 265 144 q 492 61 397 61 z "},"7":{"ha":735,"x_min":33,"x_max":704,"o":"m 33 978 l 33 1056 l 704 1056 l 704 947 l 207 0 l 99 0 l 617 978 l 33 978 z "},"8":{"ha":942,"x_min":82,"x_max":860,"o":"m 597 567 q 717 525 658 556 q 818 437 776 494 q 860 296 860 379 q 808 128 860 199 q 667 22 756 58 q 471 -15 578 -15 q 275 22 364 -15 q 134 128 186 58 q 82 296 82 199 q 124 437 82 379 q 224 525 165 494 q 344 567 283 556 q 183 643 250 588 q 115 804 115 699 q 160 943 115 882 q 285 1038 204 1004 q 471 1071 365 1071 q 657 1038 576 1071 q 782 943 738 1004 q 826 804 826 882 q 759 643 826 699 q 597 567 692 588 m 213 800 q 240 700 213 744 q 326 630 268 656 q 471 604 383 604 q 617 630 558 604 q 703 700 675 656 q 731 800 731 744 q 701 900 731 856 q 613 969 671 944 q 471 994 554 994 q 331 969 389 994 q 242 900 272 944 q 213 800 213 856 m 471 61 q 614 88 547 61 q 722 167 681 114 q 764 300 764 221 q 724 425 764 374 q 618 503 685 476 q 471 529 551 529 q 325 503 392 529 q 218 425 258 476 q 178 300 178 374 q 219 167 178 221 q 328 88 261 114 q 471 61 394 61 z "},"9":{"ha":946,"x_min":75,"x_max":860,"o":"m 453 1071 q 669 1010 578 1071 q 810 828 761 950 q 860 528 860 707 q 809 232 860 354 q 667 47 758 110 q 456 -15 576 -15 q 224 53 315 -15 q 100 247 133 122 l 196 247 q 287 112 222 163 q 456 61 351 61 q 628 121 558 61 q 731 285 697 181 q 764 525 764 390 q 761 600 764 550 q 694 474 743 528 q 578 392 646 421 q 438 363 511 363 q 246 406 328 363 q 119 529 164 449 q 75 717 75 610 q 125 903 75 822 q 261 1027 175 983 q 453 1071 347 1071 m 454 438 q 606 474 540 438 q 709 571 672 511 q 746 697 746 631 q 713 843 746 775 q 615 953 681 911 q 454 994 549 994 q 309 959 374 994 q 208 860 244 924 q 171 717 171 797 q 204 572 171 635 q 301 473 238 508 q 454 438 365 438 z "},"\r":{"ha":364,"x_min":0,"x_max":0,"o":""}," ":{"ha":364,"x_min":0,"x_max":0,"o":""},"A":{"ha":1032,"x_min":7,"x_max":1024,"o":"m 1024 0 l 922 0 l 793 340 l 239 340 l 110 0 l 7 0 l 411 1056 l 511 1056 l 272 426 l 760 426 l 519 1056 l 619 1056 l 1024 0 z "},"Á":{"ha":1032,"x_min":7,"x_max":1024,"o":"m 1024 0 l 922 0 l 793 340 l 239 340 l 110 0 l 7 0 l 411 1056 l 511 1056 l 272 426 l 760 426 l 519 1056 l 619 1056 l 1024 0 m 563 1146 l 469 1146 l 646 1321 l 776 1321 l 563 1146 z "},"Ă":{"ha":1032,"x_min":7,"x_max":1024,"o":"m 1024 0 l 922 0 l 793 340 l 239 340 l 110 0 l 7 0 l 411 1056 l 511 1056 l 272 426 l 760 426 l 519 1056 l 619 1056 l 1024 0 m 515 1140 q 406 1165 453 1140 q 335 1231 360 1189 q 311 1321 311 1272 l 389 1321 q 423 1233 389 1265 q 515 1200 457 1200 q 608 1233 574 1200 q 642 1321 642 1265 l 719 1321 q 695 1231 719 1272 q 624 1165 671 1189 q 515 1140 578 1140 z "},"Â":{"ha":1032,"x_min":7,"x_max":1024,"o":"m 1024 0 l 922 0 l 793 340 l 239 340 l 110 0 l 7 0 l 411 1056 l 511 1056 l 272 426 l 760 426 l 519 1056 l 619 1056 l 1024 0 m 581 1321 l 761 1146 l 671 1146 l 515 1276 l 358 1146 l 268 1146 l 450 1321 l 581 1321 z "},"Ä":{"ha":1032,"x_min":7,"x_max":1024,"o":"m 1024 0 l 922 0 l 793 340 l 239 340 l 110 0 l 7 0 l 411 1056 l 511 1056 l 272 426 l 760 426 l 519 1056 l 619 1056 l 1024 0 z "},"Ạ":{"ha":1032,"x_min":7,"x_max":1024,"o":"m 1024 0 l 922 0 l 793 340 l 239 340 l 110 0 l 7 0 l 411 1056 l 511 1056 l 272 426 l 760 426 l 519 1056 l 619 1056 l 1024 0 z "},"À":{"ha":1032,"x_min":7,"x_max":1024,"o":"m 1024 0 l 922 0 l 793 340 l 239 340 l 110 0 l 7 0 l 411 1056 l 511 1056 l 272 426 l 760 426 l 519 1056 l 619 1056 l 1024 0 m 560 1146 l 468 1146 l 253 1321 l 385 1321 l 560 1146 z "},"Ā":{"ha":1032,"x_min":7,"x_max":1024,"o":"m 1024 0 l 922 0 l 793 340 l 239 340 l 110 0 l 7 0 l 411 1056 l 511 1056 l 272 426 l 760 426 l 519 1056 l 619 1056 l 1024 0 m 761 1196 l 269 1196 l 269 1274 l 761 1274 l 761 1196 z "},"Ą":{"ha":1032,"x_min":7,"x_max":1024,"o":"m 904 -135 q 928 -189 904 -171 q 994 -207 953 -207 l 1024 -207 l 1024 -275 l 986 -275 q 866 -243 913 -275 q 819 -151 819 -211 q 847 -67 819 -103 q 922 0 875 -31 l 793 340 l 239 340 l 110 0 l 7 0 l 411 1056 l 511 1056 l 272 426 l 760 426 l 519 1056 l 619 1056 l 1024 0 q 933 -62 963 -31 q 904 -135 904 -94 z "},"Å":{"ha":1032,"x_min":7,"x_max":1024,"o":"m 1024 0 l 922 0 l 793 340 l 239 340 l 110 0 l 7 0 l 411 1056 l 511 1056 l 272 426 l 760 426 l 519 1056 l 619 1056 l 1024 0 m 517 1139 q 437 1160 474 1139 q 378 1219 400 1182 q 357 1299 357 1256 q 378 1378 357 1342 q 437 1435 400 1414 q 517 1456 474 1456 q 596 1435 560 1456 q 653 1378 632 1414 q 674 1299 674 1342 q 653 1219 674 1256 q 596 1160 632 1182 q 517 1139 560 1139 m 517 1206 q 563 1218 542 1206 q 595 1252 583 1231 q 607 1299 607 1274 q 595 1344 607 1324 q 563 1377 583 1365 q 517 1389 542 1389 q 470 1377 492 1389 q 436 1344 449 1365 q 424 1299 424 1324 q 436 1252 424 1274 q 470 1218 449 1231 q 517 1206 492 1206 z "},"Ã":{"ha":1032,"x_min":7,"x_max":1024,"o":"m 1024 0 l 922 0 l 793 340 l 239 340 l 110 0 l 7 0 l 411 1056 l 511 1056 l 272 426 l 760 426 l 519 1056 l 619 1056 l 1024 0 m 293 1172 q 336 1263 300 1231 q 419 1294 372 1294 q 474 1287 449 1294 q 525 1267 499 1279 q 566 1251 543 1257 q 608 1244 589 1244 q 663 1258 640 1244 q 696 1297 686 1271 l 736 1297 q 714 1231 732 1258 q 669 1189 696 1203 q 611 1175 642 1175 q 557 1183 582 1175 q 506 1203 532 1190 q 421 1225 458 1225 q 366 1212 389 1225 q 333 1172 343 1199 l 293 1172 z "},"Æ":{"ha":1393,"x_min":7,"x_max":1314,"o":"m 831 503 l 990 86 l 1314 86 l 1314 0 l 922 0 l 793 340 l 239 340 l 110 0 l 7 0 l 411 1056 l 511 1056 l 272 426 l 760 426 l 519 1056 l 1301 1056 l 1301 969 l 653 969 l 799 589 l 1292 589 l 1292 503 l 831 503 z "},"Ǽ":{"ha":1393,"x_min":7,"x_max":1314,"o":"m 831 503 l 990 86 l 1314 86 l 1314 0 l 922 0 l 793 340 l 239 340 l 110 0 l 7 0 l 411 1056 l 511 1056 l 272 426 l 760 426 l 519 1056 l 1301 1056 l 1301 969 l 653 969 l 799 589 l 1292 589 l 1292 503 l 831 503 m 808 1146 l 715 1146 l 892 1321 l 1022 1321 l 808 1146 z "},"Ǣ":{"ha":1393,"x_min":7,"x_max":1314,"o":"m 831 503 l 990 86 l 1314 86 l 1314 0 l 922 0 l 793 340 l 239 340 l 110 0 l 7 0 l 411 1056 l 511 1056 l 272 426 l 760 426 l 519 1056 l 1301 1056 l 1301 969 l 653 969 l 799 589 l 1292 589 l 1292 503 l 831 503 m 1035 1196 l 543 1196 l 543 1274 l 1035 1274 l 1035 1196 z "},"B":{"ha":982,"x_min":143,"x_max":907,"o":"m 611 546 q 830 472 753 539 q 907 288 907 406 q 861 131 907 196 q 728 33 815 67 q 515 0 640 0 l 143 0 l 143 1056 l 515 1056 q 710 1021 631 1056 q 828 926 789 986 q 868 788 868 865 q 798 623 868 685 q 611 546 728 561 m 769 779 q 702 920 769 871 q 515 969 635 969 l 239 969 l 239 589 l 515 589 q 703 638 636 589 q 769 779 769 686 m 517 86 q 734 140 661 86 q 807 294 807 194 q 734 449 807 394 q 517 503 661 503 l 239 503 l 239 86 l 517 86 z "},"C":{"ha":1079,"x_min":78,"x_max":1028,"o":"m 556 -15 q 313 53 422 -15 q 141 245 204 121 q 78 528 78 369 q 141 810 78 686 q 315 1002 204 933 q 563 1071 425 1071 q 772 1026 679 1071 q 928 903 865 982 q 1019 724 990 825 l 921 724 q 786 917 876 844 q 563 989 696 989 q 364 930 451 989 q 226 766 276 871 q 176 528 176 661 q 227 290 176 394 q 364 126 278 185 q 556 67 450 67 q 790 137 696 67 q 929 333 883 207 l 1028 333 q 853 74 974 163 q 556 -15 733 -15 z "},"Ć":{"ha":1079,"x_min":78,"x_max":1028,"o":"m 556 -15 q 313 53 422 -15 q 141 245 204 121 q 78 528 78 369 q 141 810 78 686 q 315 1002 204 933 q 563 1071 425 1071 q 772 1026 679 1071 q 928 903 865 982 q 1019 724 990 825 l 921 724 q 786 917 876 844 q 563 989 696 989 q 364 930 451 989 q 226 766 276 871 q 176 528 176 661 q 227 290 176 394 q 364 126 278 185 q 556 67 450 67 q 790 137 696 67 q 929 333 883 207 l 1028 333 q 853 74 974 163 q 556 -15 733 -15 m 582 1146 l 489 1146 l 665 1321 l 796 1321 l 582 1146 z "},"Č":{"ha":1079,"x_min":78,"x_max":1028,"o":"m 556 -15 q 313 53 422 -15 q 141 245 204 121 q 78 528 78 369 q 141 810 78 686 q 315 1002 204 933 q 563 1071 425 1071 q 772 1026 679 1071 q 928 903 865 982 q 1019 724 990 825 l 921 724 q 786 917 876 844 q 563 989 696 989 q 364 930 451 989 q 226 766 276 871 q 176 528 176 661 q 227 290 176 394 q 364 126 278 185 q 556 67 450 67 q 790 137 696 67 q 929 333 883 207 l 1028 333 q 853 74 974 163 q 556 -15 733 -15 m 563 1190 l 718 1321 l 808 1321 l 628 1146 l 497 1146 l 315 1321 l 406 1321 l 563 1190 z "},"Ç":{"ha":1079,"x_min":78,"x_max":1028,"o":"m 1028 333 q 866 84 976 172 q 593 -14 756 -4 l 593 -56 q 672 -90 642 -60 q 703 -165 703 -119 q 667 -245 703 -215 q 572 -275 631 -275 l 510 -275 l 510 -217 l 561 -217 q 613 -201 593 -217 q 632 -160 632 -186 q 613 -118 632 -133 q 565 -103 593 -103 l 529 -103 l 529 -14 q 299 63 403 -7 q 137 253 196 133 q 78 528 78 374 q 141 810 78 686 q 315 1002 204 933 q 563 1071 425 1071 q 772 1026 679 1071 q 928 903 865 982 q 1019 724 990 825 l 921 724 q 786 917 876 844 q 563 989 696 989 q 364 930 451 989 q 226 766 276 871 q 176 528 176 661 q 227 290 176 394 q 364 126 278 185 q 556 67 450 67 q 790 137 696 67 q 929 333 883 207 l 1028 333 z "},"Ĉ":{"ha":1079,"x_min":78,"x_max":1028,"o":"m 556 -15 q 313 53 422 -15 q 141 245 204 121 q 78 528 78 369 q 141 810 78 686 q 315 1002 204 933 q 563 1071 425 1071 q 772 1026 679 1071 q 928 903 865 982 q 1019 724 990 825 l 921 724 q 786 917 876 844 q 563 989 696 989 q 364 930 451 989 q 226 766 276 871 q 176 528 176 661 q 227 290 176 394 q 364 126 278 185 q 556 67 450 67 q 790 137 696 67 q 929 333 883 207 l 1028 333 q 853 74 974 163 q 556 -15 733 -15 m 628 1321 l 808 1146 l 718 1146 l 563 1276 l 406 1146 l 315 1146 l 497 1321 l 628 1321 z "},"Ċ":{"ha":1079,"x_min":78,"x_max":1028,"o":"m 556 -15 q 313 53 422 -15 q 141 245 204 121 q 78 528 78 369 q 141 810 78 686 q 315 1002 204 933 q 563 1071 425 1071 q 772 1026 679 1071 q 928 903 865 982 q 1019 724 990 825 l 921 724 q 786 917 876 844 q 563 989 696 989 q 364 930 451 989 q 226 766 276 871 q 176 528 176 661 q 227 290 176 394 q 364 126 278 185 q 556 67 450 67 q 790 137 696 67 q 929 333 883 207 l 1028 333 q 853 74 974 163 q 556 -15 733 -15 m 614 1146 l 511 1146 l 511 1321 l 614 1321 l 614 1146 z "},"D":{"ha":1092,"x_min":143,"x_max":1013,"o":"m 492 1056 q 767 994 650 1056 q 949 813 885 932 q 1013 528 1013 694 q 949 242 1013 361 q 767 62 885 124 q 492 0 650 0 l 143 0 l 143 1056 l 492 1056 m 494 86 q 718 138 624 86 q 863 288 813 189 q 914 528 914 386 q 863 767 914 668 q 718 918 813 867 q 494 969 624 969 l 239 969 l 239 86 l 494 86 z "},"Ð":{"ha":1092,"x_min":17,"x_max":1013,"o":"m 492 1056 q 767 994 650 1056 q 949 813 885 932 q 1013 528 1013 694 q 949 242 1013 361 q 767 62 885 124 q 492 0 650 0 l 143 0 l 143 504 l 17 504 l 17 588 l 143 588 l 143 1056 l 492 1056 m 494 86 q 718 138 624 86 q 863 288 813 189 q 914 528 914 386 q 863 767 914 668 q 718 918 813 867 q 494 969 624 969 l 239 969 l 239 588 l 533 588 l 533 504 l 239 504 l 239 86 l 494 86 z "},"Ď":{"ha":1092,"x_min":143,"x_max":1013,"o":"m 492 1056 q 767 994 650 1056 q 949 813 885 932 q 1013 528 1013 694 q 949 242 1013 361 q 767 62 885 124 q 492 0 650 0 l 143 0 l 143 1056 l 492 1056 m 494 86 q 718 138 624 86 q 863 288 813 189 q 914 528 914 386 q 863 767 914 668 q 718 918 813 867 q 494 969 624 969 l 239 969 l 239 86 l 494 86 m 508 1190 l 664 1321 l 754 1321 l 574 1146 l 443 1146 l 261 1321 l 351 1321 l 508 1190 z "},"Đ":{"ha":1092,"x_min":17,"x_max":1013,"o":"m 492 1056 q 767 994 650 1056 q 949 813 885 932 q 1013 528 1013 694 q 949 242 1013 361 q 767 62 885 124 q 492 0 650 0 l 143 0 l 143 504 l 17 504 l 17 588 l 143 588 l 143 1056 l 492 1056 m 494 86 q 718 138 624 86 q 863 288 813 189 q 914 528 914 386 q 863 767 914 668 q 718 918 813 867 q 494 969 624 969 l 239 969 l 239 588 l 533 588 l 533 504 l 239 504 l 239 86 l 494 86 z "},"E":{"ha":901,"x_min":143,"x_max":821,"o":"m 239 503 l 239 86 l 821 86 l 821 0 l 143 0 l 143 1056 l 808 1056 l 808 969 l 239 969 l 239 589 l 799 589 l 799 503 l 239 503 z "},"É":{"ha":901,"x_min":143,"x_max":821,"o":"m 239 503 l 239 86 l 821 86 l 821 0 l 143 0 l 143 1056 l 808 1056 l 808 969 l 239 969 l 239 589 l 799 589 l 799 503 l 239 503 m 497 1146 l 404 1146 l 581 1321 l 711 1321 l 497 1146 z "},"Ĕ":{"ha":901,"x_min":143,"x_max":821,"o":"m 239 503 l 239 86 l 821 86 l 821 0 l 143 0 l 143 1056 l 808 1056 l 808 969 l 239 969 l 239 589 l 799 589 l 799 503 l 239 503 m 476 1140 q 367 1165 414 1140 q 297 1231 321 1189 q 272 1321 272 1272 l 350 1321 q 384 1233 350 1265 q 476 1200 418 1200 q 569 1233 535 1200 q 603 1321 603 1265 l 681 1321 q 656 1231 681 1272 q 585 1165 632 1189 q 476 1140 539 1140 z "},"Ě":{"ha":901,"x_min":143,"x_max":821,"o":"m 239 503 l 239 86 l 821 86 l 821 0 l 143 0 l 143 1056 l 808 1056 l 808 969 l 239 969 l 239 589 l 799 589 l 799 503 l 239 503 m 476 1190 l 632 1321 l 722 1321 l 542 1146 l 411 1146 l 229 1321 l 319 1321 l 476 1190 z "},"Ê":{"ha":901,"x_min":143,"x_max":821,"o":"m 239 503 l 239 86 l 821 86 l 821 0 l 143 0 l 143 1056 l 808 1056 l 808 969 l 239 969 l 239 589 l 799 589 l 799 503 l 239 503 m 543 1321 l 724 1146 l 633 1146 l 478 1276 l 321 1146 l 231 1146 l 413 1321 l 543 1321 z "},"Ë":{"ha":901,"x_min":143,"x_max":821,"o":"m 239 503 l 239 86 l 821 86 l 821 0 l 143 0 l 143 1056 l 808 1056 l 808 969 l 239 969 l 239 589 l 799 589 l 799 503 l 239 503 z "},"Ė":{"ha":901,"x_min":143,"x_max":821,"o":"m 239 503 l 239 86 l 821 86 l 821 0 l 143 0 l 143 1056 l 808 1056 l 808 969 l 239 969 l 239 589 l 799 589 l 799 503 l 239 503 m 528 1146 l 425 1146 l 425 1321 l 528 1321 l 528 1146 z "},"Ẹ":{"ha":901,"x_min":143,"x_max":821,"o":"m 239 503 l 239 86 l 821 86 l 821 0 l 143 0 l 143 1056 l 808 1056 l 808 969 l 239 969 l 239 589 l 799 589 l 799 503 l 239 503 z "},"È":{"ha":901,"x_min":143,"x_max":821,"o":"m 239 503 l 239 86 l 821 86 l 821 0 l 143 0 l 143 1056 l 808 1056 l 808 969 l 239 969 l 239 589 l 799 589 l 799 503 l 239 503 m 553 1146 l 461 1146 l 246 1321 l 378 1321 l 553 1146 z "},"Ē":{"ha":901,"x_min":143,"x_max":821,"o":"m 239 503 l 239 86 l 821 86 l 821 0 l 143 0 l 143 1056 l 808 1056 l 808 969 l 239 969 l 239 589 l 799 589 l 799 503 l 239 503 m 722 1196 l 231 1196 l 231 1274 l 722 1274 l 722 1196 z "},"Ę":{"ha":901,"x_min":143,"x_max":821,"o":"m 821 0 q 731 -62 760 -31 q 701 -135 701 -94 q 726 -189 701 -171 q 792 -207 751 -207 l 821 -207 l 821 -275 l 785 -275 q 663 -243 710 -275 q 617 -151 617 -211 q 646 -67 617 -103 q 726 0 675 -31 l 143 0 l 143 1056 l 808 1056 l 808 969 l 239 969 l 239 589 l 799 589 l 799 503 l 239 503 l 239 86 l 821 86 l 821 0 z "},"Ẽ":{"ha":901,"x_min":143,"x_max":821,"o":"m 239 503 l 239 86 l 821 86 l 821 0 l 143 0 l 143 1056 l 808 1056 l 808 969 l 239 969 l 239 589 l 799 589 l 799 503 l 239 503 m 254 1172 q 297 1263 261 1231 q 381 1294 333 1294 q 435 1287 410 1294 q 486 1267 460 1279 q 527 1251 504 1257 q 569 1244 550 1244 q 624 1258 601 1244 q 657 1297 647 1271 l 697 1297 q 675 1231 693 1258 q 630 1189 657 1203 q 572 1175 603 1175 q 518 1183 543 1175 q 467 1203 493 1190 q 382 1225 419 1225 q 327 1212 350 1225 q 294 1172 304 1199 l 254 1172 z "},"F":{"ha":858,"x_min":143,"x_max":796,"o":"m 796 1056 l 796 969 l 239 969 l 239 572 l 788 572 l 788 486 l 239 486 l 239 0 l 143 0 l 143 1056 l 796 1056 z "},"G":{"ha":1143,"x_min":78,"x_max":1035,"o":"m 531 550 l 1035 550 l 1035 0 l 950 0 l 950 286 q 878 139 928 207 q 747 28 828 71 q 558 -15 667 -15 q 314 53 424 -15 q 141 246 204 122 q 78 528 78 369 q 141 810 78 686 q 315 1002 204 933 q 563 1071 425 1071 q 774 1028 681 1071 q 928 910 867 986 q 1019 733 990 835 l 921 733 q 788 920 878 851 q 563 989 699 989 q 365 930 453 989 q 226 766 276 871 q 176 528 176 661 q 227 288 176 393 q 367 125 278 183 q 568 67 456 67 q 758 114 675 67 q 890 251 842 161 q 939 465 939 340 l 531 465 l 531 550 z "},"Ğ":{"ha":1143,"x_min":78,"x_max":1035,"o":"m 531 550 l 1035 550 l 1035 0 l 950 0 l 950 286 q 878 139 928 207 q 747 28 828 71 q 558 -15 667 -15 q 314 53 424 -15 q 141 246 204 122 q 78 528 78 369 q 141 810 78 686 q 315 1002 204 933 q 563 1071 425 1071 q 774 1028 681 1071 q 928 910 867 986 q 1019 733 990 835 l 921 733 q 788 920 878 851 q 563 989 699 989 q 365 930 453 989 q 226 766 276 871 q 176 528 176 661 q 227 288 176 393 q 367 125 278 183 q 568 67 456 67 q 758 114 675 67 q 890 251 842 161 q 939 465 939 340 l 531 465 l 531 550 m 563 1140 q 453 1165 500 1140 q 383 1231 407 1189 q 358 1321 358 1272 l 436 1321 q 470 1233 436 1265 q 563 1200 504 1200 q 655 1233 621 1200 q 689 1321 689 1265 l 767 1321 q 742 1231 767 1272 q 672 1165 718 1189 q 563 1140 625 1140 z "},"Ǧ":{"ha":1143,"x_min":78,"x_max":1035,"o":"m 531 550 l 1035 550 l 1035 0 l 950 0 l 950 286 q 878 139 928 207 q 747 28 828 71 q 558 -15 667 -15 q 314 53 424 -15 q 141 246 204 122 q 78 528 78 369 q 141 810 78 686 q 315 1002 204 933 q 563 1071 425 1071 q 774 1028 681 1071 q 928 910 867 986 q 1019 733 990 835 l 921 733 q 788 920 878 851 q 563 989 699 989 q 365 930 453 989 q 226 766 276 871 q 176 528 176 661 q 227 288 176 393 q 367 125 278 183 q 568 67 456 67 q 758 114 675 67 q 890 251 842 161 q 939 465 939 340 l 531 465 l 531 550 m 563 1190 l 718 1321 l 808 1321 l 628 1146 l 497 1146 l 315 1321 l 406 1321 l 563 1190 z "},"Ĝ":{"ha":1143,"x_min":78,"x_max":1035,"o":"m 531 550 l 1035 550 l 1035 0 l 950 0 l 950 286 q 878 139 928 207 q 747 28 828 71 q 558 -15 667 -15 q 314 53 424 -15 q 141 246 204 122 q 78 528 78 369 q 141 810 78 686 q 315 1002 204 933 q 563 1071 425 1071 q 774 1028 681 1071 q 928 910 867 986 q 1019 733 990 835 l 921 733 q 788 920 878 851 q 563 989 699 989 q 365 930 453 989 q 226 766 276 871 q 176 528 176 661 q 227 288 176 393 q 367 125 278 183 q 568 67 456 67 q 758 114 675 67 q 890 251 842 161 q 939 465 939 340 l 531 465 l 531 550 m 629 1321 l 810 1146 l 719 1146 l 564 1276 l 407 1146 l 317 1146 l 499 1321 l 629 1321 z "},"Ģ":{"ha":1143,"x_min":78,"x_max":1035,"o":"m 531 550 l 1035 550 l 1035 0 l 950 0 l 950 286 q 878 139 928 207 q 747 28 828 71 q 558 -15 667 -15 q 314 53 424 -15 q 141 246 204 122 q 78 528 78 369 q 141 810 78 686 q 315 1002 204 933 q 563 1071 425 1071 q 774 1028 681 1071 q 928 910 867 986 q 1019 733 990 835 l 921 733 q 788 920 878 851 q 563 989 699 989 q 365 930 453 989 q 226 766 276 871 q 176 528 176 661 q 227 288 176 393 q 367 125 278 183 q 568 67 456 67 q 758 114 675 67 q 890 251 842 161 q 939 465 939 340 l 531 465 l 531 550 m 517 -271 l 517 -97 l 619 -97 l 619 -278 l 554 -389 l 488 -389 l 544 -271 l 517 -271 z "},"Ġ":{"ha":1143,"x_min":78,"x_max":1035,"o":"m 531 550 l 1035 550 l 1035 0 l 950 0 l 950 286 q 878 139 928 207 q 747 28 828 71 q 558 -15 667 -15 q 314 53 424 -15 q 141 246 204 122 q 78 528 78 369 q 141 810 78 686 q 315 1002 204 933 q 563 1071 425 1071 q 774 1028 681 1071 q 928 910 867 986 q 1019 733 990 835 l 921 733 q 788 920 878 851 q 563 989 699 989 q 365 930 453 989 q 226 766 276 871 q 176 528 176 661 q 227 288 176 393 q 367 125 278 183 q 568 67 456 67 q 758 114 675 67 q 890 251 842 161 q 939 465 939 340 l 531 465 l 531 550 m 614 1146 l 511 1146 l 511 1321 l 614 1321 l 614 1146 z "},"H":{"ha":1096,"x_min":143,"x_max":951,"o":"m 857 589 l 857 1056 l 951 1056 l 951 0 l 857 0 l 857 503 l 239 503 l 239 0 l 143 0 l 143 1056 l 239 1056 l 239 589 l 857 589 z "},"Ħ":{"ha":1096,"x_min":1,"x_max":1093,"o":"m 951 847 l 1093 847 l 1093 764 l 951 764 l 951 0 l 857 0 l 857 503 l 239 503 l 239 0 l 143 0 l 143 764 l 1 764 l 1 847 l 143 847 l 143 1056 l 239 1056 l 239 847 l 857 847 l 857 1056 l 951 1056 l 951 847 m 239 589 l 857 589 l 857 764 l 239 764 l 239 589 z "},"Ĥ":{"ha":1096,"x_min":143,"x_max":951,"o":"m 857 589 l 857 1056 l 951 1056 l 951 0 l 857 0 l 857 503 l 239 503 l 239 0 l 143 0 l 143 1056 l 239 1056 l 239 589 l 857 589 m 614 1321 l 794 1146 l 704 1146 l 549 1276 l 392 1146 l 301 1146 l 483 1321 l 614 1321 z "},"I":{"ha":382,"x_min":143,"x_max":239,"o":"m 239 0 l 143 0 l 143 1056 l 239 1056 l 239 0 z "},"Í":{"ha":382,"x_min":143,"x_max":457,"o":"m 239 0 l 143 0 l 143 1056 l 239 1056 l 239 0 m 243 1146 l 150 1146 l 326 1321 l 457 1321 l 243 1146 z "},"Ĭ":{"ha":382,"x_min":-12,"x_max":396,"o":"m 239 0 l 143 0 l 143 1056 l 239 1056 l 239 0 m 192 1140 q 83 1165 129 1140 q 12 1231 36 1189 q -12 1321 -12 1272 l 65 1321 q 99 1233 65 1265 q 192 1200 133 1200 q 284 1233 250 1200 q 318 1321 318 1265 l 396 1321 q 372 1231 396 1272 q 301 1165 347 1189 q 192 1140 254 1140 z "},"Î":{"ha":382,"x_min":-56,"x_max":438,"o":"m 239 0 l 143 0 l 143 1056 l 239 1056 l 239 0 m 257 1321 l 438 1146 l 347 1146 l 192 1276 l 35 1146 l -56 1146 l 126 1321 l 257 1321 z "},"Ï":{"ha":382,"x_min":13,"x_max":372,"o":"m 239 0 l 143 0 l 143 1056 l 239 1056 l 239 0 z "},"İ":{"ha":382,"x_min":140,"x_max":243,"o":"m 239 0 l 143 0 l 143 1056 l 239 1056 l 239 0 m 243 1146 l 140 1146 l 140 1321 l 243 1321 l 243 1146 z "},"Ị":{"ha":382,"x_min":140,"x_max":243,"o":"m 239 0 l 143 0 l 143 1056 l 239 1056 l 239 0 z "},"Ì":{"ha":382,"x_min":-78,"x_max":239,"o":"m 239 0 l 143 0 l 143 1056 l 239 1056 l 239 0 m 229 1146 l 138 1146 l -78 1321 l 54 1321 l 229 1146 z "},"Ī":{"ha":382,"x_min":-54,"x_max":438,"o":"m 239 0 l 143 0 l 143 1056 l 239 1056 l 239 0 m 438 1196 l -54 1196 l -54 1274 l 438 1274 l 438 1196 z "},"Į":{"ha":382,"x_min":33,"x_max":239,"o":"m 239 0 l 143 0 l 143 1056 l 239 1056 l 239 0 m 201 -275 q 80 -243 126 -275 q 33 -151 33 -211 q 63 -67 33 -103 q 143 0 92 -31 l 239 0 q 147 -62 176 -31 q 118 -135 118 -94 q 143 -189 118 -171 q 208 -207 168 -207 l 239 -207 l 239 -275 l 201 -275 z "},"Ĩ":{"ha":382,"x_min":-31,"x_max":413,"o":"m 239 0 l 143 0 l 143 1056 l 239 1056 l 239 0 m -31 1172 q 13 1263 -24 1231 q 96 1294 49 1294 q 150 1287 125 1294 q 201 1267 175 1279 q 242 1251 219 1257 q 285 1244 265 1244 q 340 1258 317 1244 q 372 1297 363 1271 l 413 1297 q 390 1231 408 1258 q 345 1189 372 1203 q 288 1175 318 1175 q 233 1183 258 1175 q 182 1203 208 1190 q 97 1225 135 1225 q 42 1212 65 1225 q 10 1172 19 1199 l -31 1172 z "},"J":{"ha":496,"x_min":28,"x_max":358,"o":"m 28 0 l 28 86 l 122 86 q 229 114 194 86 q 264 210 264 142 l 264 1056 l 358 1056 l 358 197 q 300 48 358 96 q 133 0 242 0 l 28 0 z "},"Ĵ":{"ha":496,"x_min":28,"x_max":558,"o":"m 28 0 l 28 86 l 122 86 q 229 114 194 86 q 264 210 264 142 l 264 1056 l 358 1056 l 358 197 q 300 48 358 96 q 133 0 242 0 l 28 0 m 378 1321 l 558 1146 l 468 1146 l 313 1276 l 156 1146 l 65 1146 l 247 1321 l 378 1321 z "},"K":{"ha":954,"x_min":143,"x_max":967,"o":"m 358 557 l 967 0 l 838 0 l 239 549 l 239 0 l 143 0 l 143 1056 l 239 1056 l 239 563 l 785 1056 l 913 1056 l 358 557 z "},"Ķ":{"ha":954,"x_min":143,"x_max":967,"o":"m 358 557 l 967 0 l 838 0 l 239 549 l 239 0 l 143 0 l 143 1056 l 239 1056 l 239 563 l 785 1056 l 913 1056 l 358 557 m 460 -271 l 460 -97 l 563 -97 l 563 -278 l 497 -389 l 431 -389 l 488 -271 l 460 -271 z "},"L":{"ha":758,"x_min":143,"x_max":732,"o":"m 239 1056 l 239 86 l 732 86 l 732 0 l 143 0 l 143 1056 l 239 1056 z "},"Ĺ":{"ha":758,"x_min":143,"x_max":732,"o":"m 239 1056 l 239 86 l 732 86 l 732 0 l 143 0 l 143 1056 l 239 1056 m 243 1146 l 150 1146 l 326 1321 l 457 1321 l 243 1146 z "},"Ľ":{"ha":758,"x_min":143,"x_max":732,"o":"m 239 1056 l 239 86 l 732 86 l 732 0 l 143 0 l 143 1056 l 239 1056 m 481 719 l 407 719 l 440 1056 l 539 1056 l 481 719 z "},"Ļ":{"ha":758,"x_min":143,"x_max":732,"o":"m 239 1056 l 239 86 l 732 86 l 732 0 l 143 0 l 143 1056 l 239 1056 m 388 -271 l 388 -97 l 490 -97 l 490 -278 l 425 -389 l 358 -389 l 415 -271 l 388 -271 z "},"Ŀ":{"ha":772,"x_min":143,"x_max":732,"o":"m 239 1056 l 239 86 l 732 86 l 732 0 l 143 0 l 143 1056 l 239 1056 z "},"Ł":{"ha":758,"x_min":18,"x_max":732,"o":"m 239 490 l 239 86 l 732 86 l 732 0 l 143 0 l 143 433 l 18 358 l 18 444 l 143 519 l 143 1056 l 239 1056 l 239 576 l 485 722 l 485 636 l 239 490 z "},"M":{"ha":1446,"x_min":143,"x_max":1301,"o":"m 239 0 l 143 0 l 143 1056 l 239 1056 l 239 0 m 718 0 l 618 0 l 249 1056 l 350 1056 l 718 0 m 828 0 l 728 0 l 1096 1056 l 1196 1056 l 828 0 m 1301 0 l 1207 0 l 1207 1056 l 1301 1056 l 1301 0 z "},"N":{"ha":1160,"x_min":143,"x_max":1017,"o":"m 239 0 l 143 0 l 143 1056 l 239 1056 l 239 0 m 913 0 l 807 0 l 249 1056 l 353 1056 l 913 0 m 1017 0 l 921 0 l 921 1056 l 1017 1056 l 1017 0 z "},"Ń":{"ha":1160,"x_min":143,"x_max":1017,"o":"m 239 0 l 143 0 l 143 1056 l 239 1056 l 239 0 m 913 0 l 807 0 l 249 1056 l 353 1056 l 913 0 m 1017 0 l 921 0 l 921 1056 l 1017 1056 l 1017 0 m 626 1146 l 533 1146 l 710 1321 l 840 1321 l 626 1146 z "},"Ň":{"ha":1160,"x_min":143,"x_max":1017,"o":"m 239 0 l 143 0 l 143 1056 l 239 1056 l 239 0 m 913 0 l 807 0 l 249 1056 l 353 1056 l 913 0 m 1017 0 l 921 0 l 921 1056 l 1017 1056 l 1017 0 m 606 1190 l 761 1321 l 851 1321 l 671 1146 l 540 1146 l 358 1321 l 449 1321 l 606 1190 z "},"Ņ":{"ha":1160,"x_min":143,"x_max":1017,"o":"m 239 0 l 143 0 l 143 1056 l 239 1056 l 239 0 m 913 0 l 807 0 l 249 1056 l 353 1056 l 913 0 m 1017 0 l 921 0 l 921 1056 l 1017 1056 l 1017 0 m 517 -271 l 517 -97 l 619 -97 l 619 -278 l 554 -389 l 488 -389 l 544 -271 l 517 -271 z "},"Ŋ":{"ha":1160,"x_min":143,"x_max":1017,"o":"m 239 0 l 143 0 l 143 1056 l 239 1056 l 239 0 m 353 1056 l 913 0 l 807 0 l 249 1056 l 353 1056 m 1017 1056 l 1017 -75 q 958 -224 1017 -176 q 790 -272 899 -272 l 686 -272 l 686 -186 l 781 -186 q 887 -158 853 -186 q 921 -62 921 -131 l 921 1056 l 1017 1056 z "},"Ɲ":{"ha":1160,"x_min":-92,"x_max":1017,"o":"m 239 0 l 143 0 l 143 1056 l 239 1056 l 239 0 m 913 0 l 807 0 l 249 1056 l 353 1056 l 913 0 m 1017 0 l 921 0 l 921 1056 l 1017 1056 l 1017 0 m -92 -272 l -92 -186 l 3 -186 q 110 -158 75 -186 q 144 -62 144 -131 l 144 0 l 239 0 l 239 -75 q 181 -224 239 -176 q 14 -272 122 -272 l -92 -272 z "},"Ñ":{"ha":1160,"x_min":143,"x_max":1017,"o":"m 239 0 l 143 0 l 143 1056 l 239 1056 l 239 0 m 913 0 l 807 0 l 249 1056 l 353 1056 l 913 0 m 1017 0 l 921 0 l 921 1056 l 1017 1056 l 1017 0 m 383 1172 q 426 1263 390 1231 q 510 1294 463 1294 q 564 1287 539 1294 q 615 1267 589 1279 q 656 1251 633 1257 q 699 1244 679 1244 q 753 1258 731 1244 q 786 1297 776 1271 l 826 1297 q 804 1231 822 1258 q 759 1189 786 1203 q 701 1175 732 1175 q 647 1183 672 1175 q 596 1203 622 1190 q 511 1225 549 1225 q 456 1212 479 1225 q 424 1172 433 1199 l 383 1172 z "},"O":{"ha":1147,"x_min":78,"x_max":1071,"o":"m 574 -15 q 317 53 429 -15 q 141 244 204 121 q 78 528 78 368 q 141 811 78 688 q 317 1003 204 935 q 574 1071 429 1071 q 831 1003 718 1071 q 1008 811 944 935 q 1071 528 1071 688 q 1008 244 1071 368 q 831 53 944 121 q 574 -15 718 -15 m 574 67 q 779 126 689 67 q 920 290 869 185 q 971 528 971 394 q 920 766 971 661 q 779 930 869 871 q 574 989 689 989 q 368 930 458 989 q 227 766 278 871 q 176 528 176 661 q 227 290 176 394 q 368 126 278 185 q 574 67 458 67 z "},"Ó":{"ha":1147,"x_min":78,"x_max":1071,"o":"m 574 -15 q 317 53 429 -15 q 141 244 204 121 q 78 528 78 368 q 141 811 78 688 q 317 1003 204 935 q 574 1071 429 1071 q 831 1003 718 1071 q 1008 811 944 935 q 1071 528 1071 688 q 1008 244 1071 368 q 831 53 944 121 q 574 -15 718 -15 m 574 67 q 779 126 689 67 q 920 290 869 185 q 971 528 971 394 q 920 766 971 661 q 779 930 869 871 q 574 989 689 989 q 368 930 458 989 q 227 766 278 871 q 176 528 176 661 q 227 290 176 394 q 368 126 278 185 q 574 67 458 67 m 593 1146 l 500 1146 l 676 1321 l 807 1321 l 593 1146 z "},"Ŏ":{"ha":1147,"x_min":78,"x_max":1071,"o":"m 574 -15 q 317 53 429 -15 q 141 244 204 121 q 78 528 78 368 q 141 811 78 688 q 317 1003 204 935 q 574 1071 429 1071 q 831 1003 718 1071 q 1008 811 944 935 q 1071 528 1071 688 q 1008 244 1071 368 q 831 53 944 121 q 574 -15 718 -15 m 574 67 q 779 126 689 67 q 920 290 869 185 q 971 528 971 394 q 920 766 971 661 q 779 930 869 871 q 574 989 689 989 q 368 930 458 989 q 227 766 278 871 q 176 528 176 661 q 227 290 176 394 q 368 126 278 185 q 574 67 458 67 m 574 1140 q 465 1165 511 1140 q 394 1231 418 1189 q 369 1321 369 1272 l 447 1321 q 481 1233 447 1265 q 574 1200 515 1200 q 666 1233 632 1200 q 700 1321 700 1265 l 778 1321 q 753 1231 778 1272 q 683 1165 729 1189 q 574 1140 636 1140 z "},"Ô":{"ha":1147,"x_min":78,"x_max":1071,"o":"m 574 -15 q 317 53 429 -15 q 141 244 204 121 q 78 528 78 368 q 141 811 78 688 q 317 1003 204 935 q 574 1071 429 1071 q 831 1003 718 1071 q 1008 811 944 935 q 1071 528 1071 688 q 1008 244 1071 368 q 831 53 944 121 q 574 -15 718 -15 m 574 67 q 779 126 689 67 q 920 290 869 185 q 971 528 971 394 q 920 766 971 661 q 779 930 869 871 q 574 989 689 989 q 368 930 458 989 q 227 766 278 871 q 176 528 176 661 q 227 290 176 394 q 368 126 278 185 q 574 67 458 67 m 640 1321 l 821 1146 l 731 1146 l 575 1276 l 418 1146 l 328 1146 l 510 1321 l 640 1321 z "},"Ö":{"ha":1147,"x_min":78,"x_max":1071,"o":"m 574 -15 q 317 53 429 -15 q 141 244 204 121 q 78 528 78 368 q 141 811 78 688 q 317 1003 204 935 q 574 1071 429 1071 q 831 1003 718 1071 q 1008 811 944 935 q 1071 528 1071 688 q 1008 244 1071 368 q 831 53 944 121 q 574 -15 718 -15 m 574 67 q 779 126 689 67 q 920 290 869 185 q 971 528 971 394 q 920 766 971 661 q 779 930 869 871 q 574 989 689 989 q 368 930 458 989 q 227 766 278 871 q 176 528 176 661 q 227 290 176 394 q 368 126 278 185 q 574 67 458 67 z "},"Ȯ":{"ha":1147,"x_min":78,"x_max":1071,"o":"m 574 -15 q 317 53 429 -15 q 141 244 204 121 q 78 528 78 368 q 141 811 78 688 q 317 1003 204 935 q 574 1071 429 1071 q 831 1003 718 1071 q 1008 811 944 935 q 1071 528 1071 688 q 1008 244 1071 368 q 831 53 944 121 q 574 -15 718 -15 m 574 67 q 779 126 689 67 q 920 290 869 185 q 971 528 971 394 q 920 766 971 661 q 779 930 869 871 q 574 989 689 989 q 368 930 458 989 q 227 766 278 871 q 176 528 176 661 q 227 290 176 394 q 368 126 278 185 q 574 67 458 67 m 625 1146 l 522 1146 l 522 1321 l 625 1321 l 625 1146 z "},"Ọ":{"ha":1147,"x_min":78,"x_max":1071,"o":"m 574 -15 q 317 53 429 -15 q 141 244 204 121 q 78 528 78 368 q 141 811 78 688 q 317 1003 204 935 q 574 1071 429 1071 q 831 1003 718 1071 q 1008 811 944 935 q 1071 528 1071 688 q 1008 244 1071 368 q 831 53 944 121 q 574 -15 718 -15 m 574 67 q 779 126 689 67 q 920 290 869 185 q 971 528 971 394 q 920 766 971 661 q 779 930 869 871 q 574 989 689 989 q 368 930 458 989 q 227 766 278 871 q 176 528 176 661 q 227 290 176 394 q 368 126 278 185 q 574 67 458 67 z "},"Ò":{"ha":1147,"x_min":78,"x_max":1071,"o":"m 574 -15 q 317 53 429 -15 q 141 244 204 121 q 78 528 78 368 q 141 811 78 688 q 317 1003 204 935 q 574 1071 429 1071 q 831 1003 718 1071 q 1008 811 944 935 q 1071 528 1071 688 q 1008 244 1071 368 q 831 53 944 121 q 574 -15 718 -15 m 574 67 q 779 126 689 67 q 920 290 869 185 q 971 528 971 394 q 920 766 971 661 q 779 930 869 871 q 574 989 689 989 q 368 930 458 989 q 227 766 278 871 q 176 528 176 661 q 227 290 176 394 q 368 126 278 185 q 574 67 458 67 m 649 1146 l 557 1146 l 342 1321 l 474 1321 l 649 1146 z "},"Ő":{"ha":1147,"x_min":78,"x_max":1071,"o":"m 574 -15 q 317 53 429 -15 q 141 244 204 121 q 78 528 78 368 q 141 811 78 688 q 317 1003 204 935 q 574 1071 429 1071 q 831 1003 718 1071 q 1008 811 944 935 q 1071 528 1071 688 q 1008 244 1071 368 q 831 53 944 121 q 574 -15 718 -15 m 574 67 q 779 126 689 67 q 920 290 869 185 q 971 528 971 394 q 920 766 971 661 q 779 930 869 871 q 574 989 689 989 q 368 930 458 989 q 227 766 278 871 q 176 528 176 661 q 227 290 176 394 q 368 126 278 185 q 574 67 458 67 m 475 1146 l 382 1146 l 571 1321 l 700 1321 l 475 1146 m 704 1146 l 611 1146 l 800 1321 l 929 1321 l 704 1146 z "},"Ō":{"ha":1147,"x_min":78,"x_max":1071,"o":"m 574 -15 q 317 53 429 -15 q 141 244 204 121 q 78 528 78 368 q 141 811 78 688 q 317 1003 204 935 q 574 1071 429 1071 q 831 1003 718 1071 q 1008 811 944 935 q 1071 528 1071 688 q 1008 244 1071 368 q 831 53 944 121 q 574 -15 718 -15 m 574 67 q 779 126 689 67 q 920 290 869 185 q 971 528 971 394 q 920 766 971 661 q 779 930 869 871 q 574 989 689 989 q 368 930 458 989 q 227 766 278 871 q 176 528 176 661 q 227 290 176 394 q 368 126 278 185 q 574 67 458 67 m 819 1196 l 328 1196 l 328 1274 l 819 1274 l 819 1196 z "},"Ǫ":{"ha":1147,"x_min":78,"x_max":1071,"o":"m 818 46 q 723 -46 750 -6 q 696 -129 696 -86 q 721 -187 696 -168 q 786 -207 746 -207 l 817 -207 l 817 -275 l 779 -275 q 658 -243 704 -275 q 611 -151 611 -211 q 692 -3 611 -74 q 574 -15 636 -15 q 317 53 429 -15 q 141 244 204 121 q 78 528 78 368 q 141 811 78 688 q 317 1003 204 935 q 574 1071 429 1071 q 831 1003 718 1071 q 1008 811 944 935 q 1071 528 1071 688 q 1040 324 1071 418 q 953 160 1010 231 q 818 46 896 89 m 176 528 q 227 290 176 394 q 368 126 278 185 q 574 67 458 67 q 779 126 689 67 q 920 290 869 185 q 971 528 971 394 q 920 766 971 661 q 779 930 869 871 q 574 989 689 989 q 368 930 458 989 q 227 766 278 871 q 176 528 176 661 z "},"Ø":{"ha":1147,"x_min":7,"x_max":1140,"o":"m 1140 1056 l 968 875 q 1044 718 1018 807 q 1071 528 1071 629 q 1008 244 1071 368 q 831 53 944 121 q 574 -15 718 -15 q 390 17 475 -15 q 239 113 304 50 l 132 0 l 7 0 l 179 181 q 104 339 131 251 q 78 528 78 426 q 141 811 78 688 q 317 1003 204 935 q 574 1071 429 1071 q 758 1038 672 1071 q 910 943 844 1006 l 1017 1056 l 1140 1056 m 176 528 q 194 378 176 449 q 247 251 213 308 l 844 876 q 724 960 793 931 q 574 989 654 989 q 368 930 458 989 q 227 766 278 871 q 176 528 176 661 m 971 528 q 953 677 971 607 q 900 804 935 747 l 303 179 q 424 96 356 125 q 574 67 493 67 q 779 126 689 67 q 920 290 869 185 q 971 528 971 394 z "},"Ǿ":{"ha":1147,"x_min":7,"x_max":1140,"o":"m 1140 1056 l 968 875 q 1044 718 1018 807 q 1071 528 1071 629 q 1008 244 1071 368 q 831 53 944 121 q 574 -15 718 -15 q 390 17 475 -15 q 239 113 304 50 l 132 0 l 7 0 l 179 181 q 104 339 131 251 q 78 528 78 426 q 141 811 78 688 q 317 1003 204 935 q 574 1071 429 1071 q 758 1038 672 1071 q 910 943 844 1006 l 1017 1056 l 1140 1056 m 176 528 q 194 378 176 449 q 247 251 213 308 l 844 876 q 724 960 793 931 q 574 989 654 989 q 368 930 458 989 q 227 766 278 871 q 176 528 176 661 m 971 528 q 953 677 971 607 q 900 804 935 747 l 303 179 q 424 96 356 125 q 574 67 493 67 q 779 126 689 67 q 920 290 869 185 q 971 528 971 394 m 593 1146 l 500 1146 l 676 1321 l 807 1321 l 593 1146 z "},"Õ":{"ha":1147,"x_min":78,"x_max":1071,"o":"m 574 -15 q 317 53 429 -15 q 141 244 204 121 q 78 528 78 368 q 141 811 78 688 q 317 1003 204 935 q 574 1071 429 1071 q 831 1003 718 1071 q 1008 811 944 935 q 1071 528 1071 688 q 1008 244 1071 368 q 831 53 944 121 q 574 -15 718 -15 m 574 67 q 779 126 689 67 q 920 290 869 185 q 971 528 971 394 q 920 766 971 661 q 779 930 869 871 q 574 989 689 989 q 368 930 458 989 q 227 766 278 871 q 176 528 176 661 q 227 290 176 394 q 368 126 278 185 q 574 67 458 67 m 351 1172 q 394 1263 358 1231 q 478 1294 431 1294 q 532 1287 507 1294 q 583 1267 557 1279 q 624 1251 601 1257 q 667 1244 647 1244 q 722 1258 699 1244 q 754 1297 744 1271 l 794 1297 q 772 1231 790 1258 q 727 1189 754 1203 q 669 1175 700 1175 q 615 1183 640 1175 q 564 1203 590 1190 q 479 1225 517 1225 q 424 1212 447 1225 q 392 1172 401 1199 l 351 1172 z "},"Œ":{"ha":1578,"x_min":76,"x_max":1497,"o":"m 915 86 l 1497 86 l 1497 0 l 613 0 q 346 63 468 0 q 150 244 224 125 q 76 528 76 364 q 150 811 76 692 q 346 993 224 931 q 613 1056 468 1056 l 1485 1056 l 1485 969 l 915 969 l 915 589 l 1475 589 l 1475 503 l 915 503 l 915 86 m 819 86 l 819 969 l 613 969 q 397 919 497 969 q 236 769 297 869 q 175 528 175 669 q 236 285 175 385 q 397 136 297 186 q 613 86 496 86 l 819 86 z "},"P":{"ha":953,"x_min":143,"x_max":903,"o":"m 500 1056 q 714 1019 624 1056 q 853 910 804 982 q 903 733 903 838 q 853 557 903 629 q 714 448 804 485 q 500 411 624 411 l 239 411 l 239 0 l 143 0 l 143 1056 l 500 1056 m 503 497 q 726 557 647 497 q 804 733 804 617 q 726 910 804 850 q 503 969 647 969 l 239 969 l 239 497 l 503 497 z "},"Þ":{"ha":971,"x_min":143,"x_max":903,"o":"m 500 867 q 714 830 624 867 q 853 721 804 793 q 903 544 903 649 q 853 368 903 440 q 714 259 804 296 q 500 222 624 222 l 239 222 l 239 0 l 143 0 l 143 1056 l 239 1056 l 239 867 l 500 867 m 503 307 q 726 367 647 307 q 804 544 804 426 q 726 721 804 661 q 503 781 647 781 l 239 781 l 239 307 l 503 307 z "},"Q":{"ha":1153,"x_min":78,"x_max":1182,"o":"m 1182 0 l 1043 0 l 901 104 q 753 15 836 46 q 574 -15 669 -15 q 317 53 429 -15 q 141 244 204 121 q 78 528 78 368 q 141 811 78 688 q 317 1003 204 935 q 574 1071 429 1071 q 831 1003 718 1071 q 1008 811 944 935 q 1071 528 1071 688 q 1042 328 1071 419 q 957 165 1013 236 l 1182 0 m 574 67 q 711 90 647 67 q 825 160 775 114 l 567 350 l 706 350 l 881 222 q 947 360 924 283 q 971 528 971 438 q 920 766 971 661 q 779 930 869 871 q 574 989 689 989 q 368 930 458 989 q 227 766 278 871 q 176 528 176 661 q 227 290 176 394 q 368 126 278 185 q 574 67 458 67 z "},"R":{"ha":974,"x_min":143,"x_max":925,"o":"m 925 0 l 814 0 l 529 454 l 515 454 l 239 454 l 239 0 l 143 0 l 143 1056 l 515 1056 q 708 1019 625 1056 q 835 915 790 983 q 879 754 879 847 q 813 567 879 642 q 632 467 747 492 l 925 0 m 239 969 l 239 540 l 518 540 q 658 565 599 540 q 749 638 717 590 q 781 754 781 686 q 749 871 781 822 q 658 944 717 919 q 518 969 599 969 l 239 969 z "},"Ŕ":{"ha":974,"x_min":143,"x_max":925,"o":"m 925 0 l 814 0 l 529 454 l 515 454 l 239 454 l 239 0 l 143 0 l 143 1056 l 515 1056 q 708 1019 625 1056 q 835 915 790 983 q 879 754 879 847 q 813 567 879 642 q 632 467 747 492 l 925 0 m 239 969 l 239 540 l 518 540 q 658 565 599 540 q 749 638 717 590 q 781 754 781 686 q 749 871 781 822 q 658 944 717 919 q 518 969 599 969 l 239 969 m 483 1146 l 390 1146 l 567 1321 l 697 1321 l 483 1146 z "},"Ř":{"ha":974,"x_min":143,"x_max":925,"o":"m 925 0 l 814 0 l 529 454 l 515 454 l 239 454 l 239 0 l 143 0 l 143 1056 l 515 1056 q 708 1019 625 1056 q 835 915 790 983 q 879 754 879 847 q 813 567 879 642 q 632 467 747 492 l 925 0 m 239 969 l 239 540 l 518 540 q 658 565 599 540 q 749 638 717 590 q 781 754 781 686 q 749 871 781 822 q 658 944 717 919 q 518 969 599 969 l 239 969 m 464 1190 l 619 1321 l 710 1321 l 529 1146 l 399 1146 l 217 1321 l 307 1321 l 464 1190 z "},"Ŗ":{"ha":974,"x_min":143,"x_max":925,"o":"m 925 0 l 814 0 l 529 454 l 515 454 l 239 454 l 239 0 l 143 0 l 143 1056 l 515 1056 q 708 1019 625 1056 q 835 915 790 983 q 879 754 879 847 q 813 567 879 642 q 632 467 747 492 l 925 0 m 239 969 l 239 540 l 518 540 q 658 565 599 540 q 749 638 717 590 q 781 754 781 686 q 749 871 781 822 q 658 944 717 919 q 518 969 599 969 l 239 969 m 449 -271 l 449 -97 l 551 -97 l 551 -278 l 486 -389 l 419 -389 l 476 -271 l 449 -271 z "},"S":{"ha":947,"x_min":61,"x_max":878,"o":"m 465 -15 q 272 25 358 -15 q 130 140 185 65 q 61 313 75 214 l 160 313 q 213 181 171 236 q 321 96 256 125 q 465 67 386 67 q 635 96 564 67 q 743 176 706 125 q 781 296 781 228 q 751 392 781 356 q 663 453 722 429 q 500 500 604 476 l 379 526 q 171 618 247 556 q 94 792 94 681 q 142 933 94 869 q 274 1034 190 997 q 461 1071 358 1071 q 649 1036 565 1071 q 786 936 733 1001 q 853 785 839 871 l 754 785 q 655 937 733 885 q 461 989 576 989 q 322 965 383 989 q 226 897 261 940 q 192 800 192 854 q 218 709 192 744 q 299 651 244 674 q 444 608 353 628 l 567 581 q 746 521 678 556 q 846 434 814 486 q 878 306 878 382 q 827 140 878 213 q 683 26 776 67 q 465 -15 589 -15 z "},"Ś":{"ha":947,"x_min":61,"x_max":878,"o":"m 465 -15 q 272 25 358 -15 q 130 140 185 65 q 61 313 75 214 l 160 313 q 213 181 171 236 q 321 96 256 125 q 465 67 386 67 q 635 96 564 67 q 743 176 706 125 q 781 296 781 228 q 751 392 781 356 q 663 453 722 429 q 500 500 604 476 l 379 526 q 171 618 247 556 q 94 792 94 681 q 142 933 94 869 q 274 1034 190 997 q 461 1071 358 1071 q 649 1036 565 1071 q 786 936 733 1001 q 853 785 839 871 l 754 785 q 655 937 733 885 q 461 989 576 989 q 322 965 383 989 q 226 897 261 940 q 192 800 192 854 q 218 709 192 744 q 299 651 244 674 q 444 608 353 628 l 567 581 q 746 521 678 556 q 846 434 814 486 q 878 306 878 382 q 827 140 878 213 q 683 26 776 67 q 465 -15 589 -15 m 482 1146 l 389 1146 l 565 1321 l 696 1321 l 482 1146 z "},"Š":{"ha":947,"x_min":61,"x_max":878,"o":"m 465 -15 q 272 25 358 -15 q 130 140 185 65 q 61 313 75 214 l 160 313 q 213 181 171 236 q 321 96 256 125 q 465 67 386 67 q 635 96 564 67 q 743 176 706 125 q 781 296 781 228 q 751 392 781 356 q 663 453 722 429 q 500 500 604 476 l 379 526 q 171 618 247 556 q 94 792 94 681 q 142 933 94 869 q 274 1034 190 997 q 461 1071 358 1071 q 649 1036 565 1071 q 786 936 733 1001 q 853 785 839 871 l 754 785 q 655 937 733 885 q 461 989 576 989 q 322 965 383 989 q 226 897 261 940 q 192 800 192 854 q 218 709 192 744 q 299 651 244 674 q 444 608 353 628 l 567 581 q 746 521 678 556 q 846 434 814 486 q 878 306 878 382 q 827 140 878 213 q 683 26 776 67 q 465 -15 589 -15 m 461 1190 l 617 1321 l 707 1321 l 526 1146 l 396 1146 l 214 1321 l 304 1321 l 461 1190 z "},"Ş":{"ha":947,"x_min":61,"x_max":878,"o":"m 878 306 q 832 147 878 217 q 701 34 786 76 q 501 -14 615 -8 l 501 -56 q 581 -90 550 -60 q 611 -165 611 -119 q 575 -245 611 -215 q 481 -275 539 -275 l 418 -275 l 418 -217 l 469 -217 q 521 -201 501 -217 q 540 -160 540 -186 q 521 -118 540 -133 q 474 -103 501 -103 l 438 -103 l 438 -14 q 256 32 336 -10 q 126 146 176 74 q 61 313 75 218 l 160 313 q 213 181 171 236 q 321 96 256 125 q 465 67 386 67 q 635 96 564 67 q 743 176 706 125 q 781 296 781 228 q 751 392 781 356 q 663 453 722 429 q 500 500 604 476 l 379 526 q 171 618 247 556 q 94 792 94 681 q 142 933 94 869 q 274 1034 190 997 q 461 1071 358 1071 q 649 1036 565 1071 q 786 936 733 1001 q 853 785 839 871 l 754 785 q 655 937 733 885 q 461 989 576 989 q 322 965 383 989 q 226 897 261 940 q 192 800 192 854 q 218 709 192 744 q 299 651 244 674 q 444 608 353 628 l 567 581 q 746 521 678 556 q 846 434 814 486 q 878 306 878 382 z "},"Ŝ":{"ha":947,"x_min":61,"x_max":878,"o":"m 465 -15 q 272 25 358 -15 q 130 140 185 65 q 61 313 75 214 l 160 313 q 213 181 171 236 q 321 96 256 125 q 465 67 386 67 q 635 96 564 67 q 743 176 706 125 q 781 296 781 228 q 751 392 781 356 q 663 453 722 429 q 500 500 604 476 l 379 526 q 171 618 247 556 q 94 792 94 681 q 142 933 94 869 q 274 1034 190 997 q 461 1071 358 1071 q 649 1036 565 1071 q 786 936 733 1001 q 853 785 839 871 l 754 785 q 655 937 733 885 q 461 989 576 989 q 322 965 383 989 q 226 897 261 940 q 192 800 192 854 q 218 709 192 744 q 299 651 244 674 q 444 608 353 628 l 567 581 q 746 521 678 556 q 846 434 814 486 q 878 306 878 382 q 827 140 878 213 q 683 26 776 67 q 465 -15 589 -15 m 528 1321 l 708 1146 l 618 1146 l 463 1276 l 306 1146 l 215 1146 l 397 1321 l 528 1321 z "},"Ș":{"ha":947,"x_min":61,"x_max":878,"o":"m 465 -15 q 272 25 358 -15 q 130 140 185 65 q 61 313 75 214 l 160 313 q 213 181 171 236 q 321 96 256 125 q 465 67 386 67 q 635 96 564 67 q 743 176 706 125 q 781 296 781 228 q 751 392 781 356 q 663 453 722 429 q 500 500 604 476 l 379 526 q 171 618 247 556 q 94 792 94 681 q 142 933 94 869 q 274 1034 190 997 q 461 1071 358 1071 q 649 1036 565 1071 q 786 936 733 1001 q 853 785 839 871 l 754 785 q 655 937 733 885 q 461 989 576 989 q 322 965 383 989 q 226 897 261 940 q 192 800 192 854 q 218 709 192 744 q 299 651 244 674 q 444 608 353 628 l 567 581 q 746 521 678 556 q 846 434 814 486 q 878 306 878 382 q 827 140 878 213 q 683 26 776 67 q 465 -15 589 -15 m 440 -271 l 440 -97 l 543 -97 l 543 -278 l 478 -389 l 411 -389 l 468 -271 l 440 -271 z "},"ẞ":{"ha":1056,"x_min":143,"x_max":996,"o":"m 611 649 q 807 606 719 644 q 945 495 894 568 q 996 321 996 422 q 951 146 996 222 q 824 27 906 69 q 635 -15 742 -15 q 537 -8 579 -15 q 446 15 494 0 l 446 100 q 530 75 489 83 q 626 67 571 67 q 769 100 708 67 q 864 191 831 133 q 897 321 897 249 q 852 462 897 404 q 729 547 807 519 q 554 575 651 575 l 517 575 l 517 671 l 778 969 l 239 969 l 239 0 l 143 0 l 143 1056 l 872 1056 l 872 947 l 611 649 z "},"Ə":{"ha":1138,"x_min":74,"x_max":1060,"o":"m 557 1071 q 812 1006 697 1071 q 993 817 926 940 q 1060 528 1060 694 q 993 241 1060 364 q 813 51 926 118 q 563 -15 700 -15 q 308 56 419 -15 q 135 256 197 128 q 74 544 74 383 l 74 571 l 960 571 q 897 799 951 704 q 753 941 842 893 q 557 989 664 989 q 330 924 422 989 q 197 742 238 860 l 99 742 q 194 922 129 849 q 352 1033 260 996 q 557 1071 444 1071 m 563 67 q 756 117 668 67 q 897 261 843 167 q 960 486 951 356 l 174 486 q 230 275 181 371 q 365 123 279 179 q 563 67 451 67 z "},"T":{"ha":871,"x_min":26,"x_max":844,"o":"m 26 1056 l 844 1056 l 844 969 l 483 969 l 483 0 l 388 0 l 388 969 l 26 969 l 26 1056 z "},"Ŧ":{"ha":913,"x_min":47,"x_max":865,"o":"m 865 1056 l 865 969 l 504 969 l 504 575 l 779 575 l 779 493 l 504 493 l 504 0 l 408 0 l 408 493 l 133 493 l 133 575 l 408 575 l 408 969 l 47 969 l 47 1056 l 865 1056 z "},"Ť":{"ha":871,"x_min":26,"x_max":844,"o":"m 26 1056 l 844 1056 l 844 969 l 483 969 l 483 0 l 388 0 l 388 969 l 26 969 l 26 1056 m 435 1190 l 590 1321 l 681 1321 l 500 1146 l 369 1146 l 188 1321 l 278 1321 l 435 1190 z "},"Ţ":{"ha":871,"x_min":26,"x_max":844,"o":"z "},"Ț":{"ha":871,"x_min":26,"x_max":844,"o":"m 26 1056 l 844 1056 l 844 969 l 483 969 l 483 0 l 388 0 l 388 969 l 26 969 l 26 1056 m 383 -271 l 383 -97 l 486 -97 l 486 -278 l 421 -389 l 354 -389 l 411 -271 l 383 -271 z "},"U":{"ha":1076,"x_min":132,"x_max":944,"o":"m 539 -15 q 132 421 132 -15 l 132 424 l 132 1056 l 226 1056 l 226 418 l 226 415 q 305 154 226 242 q 539 67 383 67 q 771 155 693 67 q 849 418 849 243 l 849 1056 l 944 1056 l 944 424 q 539 -15 944 -15 z "},"Ú":{"ha":1076,"x_min":132,"x_max":944,"o":"m 539 -15 q 132 421 132 -15 l 132 424 l 132 1056 l 226 1056 l 226 418 l 226 415 q 305 154 226 242 q 539 67 383 67 q 771 155 693 67 q 849 418 849 243 l 849 1056 l 944 1056 l 944 424 q 539 -15 944 -15 m 558 1146 l 465 1146 l 642 1321 l 772 1321 l 558 1146 z "},"Ŭ":{"ha":1076,"x_min":132,"x_max":944,"o":"m 539 -15 q 132 421 132 -15 l 132 424 l 132 1056 l 226 1056 l 226 418 l 226 415 q 305 154 226 242 q 539 67 383 67 q 771 155 693 67 q 849 418 849 243 l 849 1056 l 944 1056 l 944 424 q 539 -15 944 -15 m 539 1140 q 430 1165 476 1140 q 359 1231 383 1189 q 335 1321 335 1272 l 413 1321 q 447 1233 413 1265 q 539 1200 481 1200 q 631 1233 597 1200 q 665 1321 665 1265 l 743 1321 q 719 1231 743 1272 q 648 1165 694 1189 q 539 1140 601 1140 z "},"Û":{"ha":1076,"x_min":132,"x_max":944,"o":"m 539 -15 q 132 421 132 -15 l 132 424 l 132 1056 l 226 1056 l 226 418 l 226 415 q 305 154 226 242 q 539 67 383 67 q 771 155 693 67 q 849 418 849 243 l 849 1056 l 944 1056 l 944 424 q 539 -15 944 -15 m 604 1321 l 785 1146 l 694 1146 l 539 1276 l 382 1146 l 292 1146 l 474 1321 l 604 1321 z "},"Ü":{"ha":1076,"x_min":132,"x_max":944,"o":"m 539 -15 q 132 421 132 -15 l 132 424 l 132 1056 l 226 1056 l 226 418 l 226 415 q 305 154 226 242 q 539 67 383 67 q 771 155 693 67 q 849 418 849 243 l 849 1056 l 944 1056 l 944 424 q 539 -15 944 -15 z "},"Ụ":{"ha":1076,"x_min":132,"x_max":944,"o":"m 539 -15 q 132 421 132 -15 l 132 424 l 132 1056 l 226 1056 l 226 418 l 226 415 q 305 154 226 242 q 539 67 383 67 q 771 155 693 67 q 849 418 849 243 l 849 1056 l 944 1056 l 944 424 q 539 -15 944 -15 z "},"Ù":{"ha":1076,"x_min":132,"x_max":944,"o":"m 539 -15 q 132 421 132 -15 l 132 424 l 132 1056 l 226 1056 l 226 418 l 226 415 q 305 154 226 242 q 539 67 383 67 q 771 155 693 67 q 849 418 849 243 l 849 1056 l 944 1056 l 944 424 q 539 -15 944 -15 m 614 1146 l 522 1146 l 307 1321 l 439 1321 l 614 1146 z "},"Ű":{"ha":1076,"x_min":132,"x_max":944,"o":"m 539 -15 q 132 421 132 -15 l 132 424 l 132 1056 l 226 1056 l 226 418 l 226 415 q 305 154 226 242 q 539 67 383 67 q 771 155 693 67 q 849 418 849 243 l 849 1056 l 944 1056 l 944 424 q 539 -15 944 -15 m 439 1146 l 346 1146 l 535 1321 l 664 1321 l 439 1146 m 668 1146 l 575 1146 l 764 1321 l 893 1321 l 668 1146 z "},"Ū":{"ha":1076,"x_min":132,"x_max":944,"o":"m 539 -15 q 132 421 132 -15 l 132 424 l 132 1056 l 226 1056 l 226 418 l 226 415 q 305 154 226 242 q 539 67 383 67 q 771 155 693 67 q 849 418 849 243 l 849 1056 l 944 1056 l 944 424 q 539 -15 944 -15 m 783 1196 l 292 1196 l 292 1274 l 783 1274 l 783 1196 z "},"Ų":{"ha":1076,"x_min":132,"x_max":944,"o":"m 849 1056 l 944 1056 l 944 424 q 778 42 944 142 q 687 -47 713 -7 q 661 -129 661 -87 q 686 -187 661 -168 q 751 -207 711 -207 l 782 -207 l 782 -275 l 744 -275 q 623 -243 669 -275 q 576 -151 576 -211 q 654 -6 576 -75 q 539 -15 593 -15 q 132 421 132 -15 l 132 424 l 132 1056 l 226 1056 l 226 418 l 226 415 q 305 154 226 242 q 539 67 383 67 q 771 155 693 67 q 849 418 849 243 l 849 1056 z "},"Ů":{"ha":1076,"x_min":132,"x_max":944,"o":"m 539 -15 q 132 421 132 -15 l 132 424 l 132 1056 l 226 1056 l 226 418 l 226 415 q 305 154 226 242 q 539 67 383 67 q 771 155 693 67 q 849 418 849 243 l 849 1056 l 944 1056 l 944 424 q 539 -15 944 -15 m 539 1139 q 459 1160 496 1139 q 401 1219 422 1182 q 379 1299 379 1256 q 401 1378 379 1342 q 459 1435 422 1414 q 539 1456 496 1456 q 618 1435 582 1456 q 675 1378 654 1414 q 696 1299 696 1342 q 675 1219 696 1256 q 618 1160 654 1182 q 539 1139 582 1139 m 539 1206 q 585 1218 564 1206 q 617 1252 606 1231 q 629 1299 629 1274 q 617 1344 629 1324 q 585 1377 606 1365 q 539 1389 564 1389 q 492 1377 514 1389 q 458 1344 471 1365 q 446 1299 446 1324 q 458 1252 446 1274 q 492 1218 471 1231 q 539 1206 514 1206 z "},"Ũ":{"ha":1076,"x_min":132,"x_max":944,"o":"m 539 -15 q 132 421 132 -15 l 132 424 l 132 1056 l 226 1056 l 226 418 l 226 415 q 305 154 226 242 q 539 67 383 67 q 771 155 693 67 q 849 418 849 243 l 849 1056 l 944 1056 l 944 424 q 539 -15 944 -15 m 317 1172 q 360 1263 324 1231 q 443 1294 396 1294 q 497 1287 472 1294 q 549 1267 522 1279 q 590 1251 567 1257 q 632 1244 613 1244 q 687 1258 664 1244 q 719 1297 710 1271 l 760 1297 q 738 1231 756 1258 q 692 1189 719 1203 q 635 1175 665 1175 q 581 1183 606 1175 q 529 1203 556 1190 q 444 1225 482 1225 q 390 1212 413 1225 q 357 1172 367 1199 l 317 1172 z "},"V":{"ha":1010,"x_min":10,"x_max":1000,"o":"m 500 0 l 399 0 l 10 1056 l 114 1056 l 500 0 m 611 0 l 510 0 l 894 1056 l 1000 1056 l 611 0 z "},"W":{"ha":1560,"x_min":26,"x_max":1533,"o":"m 422 0 l 321 0 l 26 1056 l 128 1056 l 422 0 m 531 0 l 432 0 l 676 1056 l 775 1056 l 531 0 m 1129 0 l 1029 0 l 785 1056 l 883 1056 l 1129 0 m 1239 0 l 1138 0 l 1433 1056 l 1533 1056 l 1239 0 z "},"Ẃ":{"ha":1560,"x_min":26,"x_max":1533,"o":"m 422 0 l 321 0 l 26 1056 l 128 1056 l 422 0 m 531 0 l 432 0 l 676 1056 l 775 1056 l 531 0 m 1129 0 l 1029 0 l 785 1056 l 883 1056 l 1129 0 m 1239 0 l 1138 0 l 1433 1056 l 1533 1056 l 1239 0 m 825 1146 l 732 1146 l 908 1321 l 1039 1321 l 825 1146 z "},"Ŵ":{"ha":1560,"x_min":26,"x_max":1533,"o":"m 422 0 l 321 0 l 26 1056 l 128 1056 l 422 0 m 531 0 l 432 0 l 676 1056 l 775 1056 l 531 0 m 1129 0 l 1029 0 l 785 1056 l 883 1056 l 1129 0 m 1239 0 l 1138 0 l 1433 1056 l 1533 1056 l 1239 0 m 846 1321 l 1026 1146 l 936 1146 l 781 1276 l 624 1146 l 533 1146 l 715 1321 l 846 1321 z "},"Ẅ":{"ha":1560,"x_min":26,"x_max":1533,"o":"m 422 0 l 321 0 l 26 1056 l 128 1056 l 422 0 m 531 0 l 432 0 l 676 1056 l 775 1056 l 531 0 m 1129 0 l 1029 0 l 785 1056 l 883 1056 l 1129 0 m 1239 0 l 1138 0 l 1433 1056 l 1533 1056 l 1239 0 z "},"Ẁ":{"ha":1560,"x_min":26,"x_max":1533,"o":"m 422 0 l 321 0 l 26 1056 l 128 1056 l 422 0 m 531 0 l 432 0 l 676 1056 l 775 1056 l 531 0 m 1129 0 l 1029 0 l 785 1056 l 883 1056 l 1129 0 m 1239 0 l 1138 0 l 1433 1056 l 1533 1056 l 1239 0 m 826 1146 l 735 1146 l 519 1321 l 651 1321 l 826 1146 z "},"X":{"ha":1024,"x_min":3,"x_max":1021,"o":"m 572 568 l 1021 0 l 906 0 l 513 497 l 118 0 l 3 0 l 451 568 l 65 1056 l 179 1056 l 511 638 l 844 1056 l 958 1056 l 572 568 z "},"Y":{"ha":915,"x_min":1,"x_max":914,"o":"m 804 1056 l 914 1056 l 506 463 l 506 0 l 410 0 l 410 463 l 1 1056 l 110 1056 l 457 554 l 804 1056 z "},"Ý":{"ha":915,"x_min":1,"x_max":914,"o":"m 804 1056 l 914 1056 l 506 463 l 506 0 l 410 0 l 410 463 l 1 1056 l 110 1056 l 457 554 l 804 1056 m 478 1146 l 385 1146 l 561 1321 l 692 1321 l 478 1146 z "},"Ŷ":{"ha":915,"x_min":1,"x_max":914,"o":"m 804 1056 l 914 1056 l 506 463 l 506 0 l 410 0 l 410 463 l 1 1056 l 110 1056 l 457 554 l 804 1056 m 524 1321 l 704 1146 l 614 1146 l 458 1276 l 301 1146 l 211 1146 l 393 1321 l 524 1321 z "},"Ÿ":{"ha":915,"x_min":1,"x_max":914,"o":"m 804 1056 l 914 1056 l 506 463 l 506 0 l 410 0 l 410 463 l 1 1056 l 110 1056 l 457 554 l 804 1056 z "},"Ỳ":{"ha":915,"x_min":1,"x_max":914,"o":"m 804 1056 l 914 1056 l 506 463 l 506 0 l 410 0 l 410 463 l 1 1056 l 110 1056 l 457 554 l 804 1056 m 533 1146 l 442 1146 l 226 1321 l 358 1321 l 533 1146 z "},"Ȳ":{"ha":915,"x_min":1,"x_max":914,"o":"m 804 1056 l 914 1056 l 506 463 l 506 0 l 410 0 l 410 463 l 1 1056 l 110 1056 l 457 554 l 804 1056 m 703 1196 l 211 1196 l 211 1274 l 703 1274 l 703 1196 z "},"Ỹ":{"ha":915,"x_min":1,"x_max":914,"o":"m 804 1056 l 914 1056 l 506 463 l 506 0 l 410 0 l 410 463 l 1 1056 l 110 1056 l 457 554 l 804 1056 m 235 1172 q 278 1263 242 1231 q 361 1294 314 1294 q 415 1287 390 1294 q 467 1267 440 1279 q 508 1251 485 1257 q 550 1244 531 1244 q 605 1258 582 1244 q 638 1297 628 1271 l 678 1297 q 656 1231 674 1258 q 610 1189 638 1203 q 553 1175 583 1175 q 499 1183 524 1175 q 447 1203 474 1190 q 363 1225 400 1225 q 308 1212 331 1225 q 275 1172 285 1199 l 235 1172 z "},"Z":{"ha":932,"x_min":53,"x_max":893,"o":"m 867 939 l 151 86 l 893 86 l 893 0 l 53 0 l 53 117 l 768 969 l 61 969 l 61 1056 l 867 1056 l 867 939 z "},"Ź":{"ha":932,"x_min":53,"x_max":893,"o":"m 867 939 l 151 86 l 893 86 l 893 0 l 53 0 l 53 117 l 768 969 l 61 969 l 61 1056 l 867 1056 l 867 939 m 485 1146 l 392 1146 l 568 1321 l 699 1321 l 485 1146 z "},"Ž":{"ha":932,"x_min":53,"x_max":893,"o":"m 867 939 l 151 86 l 893 86 l 893 0 l 53 0 l 53 117 l 768 969 l 61 969 l 61 1056 l 867 1056 l 867 939 m 465 1190 l 621 1321 l 711 1321 l 531 1146 l 400 1146 l 218 1321 l 308 1321 l 465 1190 z "},"Ż":{"ha":932,"x_min":53,"x_max":893,"o":"m 867 939 l 151 86 l 893 86 l 893 0 l 53 0 l 53 117 l 768 969 l 61 969 l 61 1056 l 867 1056 l 867 939 m 515 1146 l 413 1146 l 413 1321 l 515 1321 l 515 1146 z "},"Ƶ":{"ha":961,"x_min":65,"x_max":906,"o":"m 513 501 l 164 86 l 906 86 l 906 0 l 65 0 l 65 117 l 388 501 l 101 501 l 101 585 l 458 585 l 781 969 l 75 969 l 75 1056 l 881 1056 l 881 939 l 583 585 l 868 585 l 868 501 l 513 501 z "},"a":{"ha":796,"x_min":75,"x_max":688,"o":"m 393 754 q 560 715 494 754 q 657 614 626 676 q 688 482 688 551 l 688 479 l 688 0 l 596 0 l 596 163 q 494 31 557 76 q 326 -15 432 -15 q 198 15 256 -15 q 108 99 140 46 q 75 218 75 151 q 121 341 75 296 q 233 405 167 386 q 390 435 300 424 l 596 457 l 596 472 l 596 475 q 574 579 596 532 q 508 656 553 626 q 393 685 463 685 q 288 663 332 685 q 220 606 244 642 q 192 528 196 571 l 97 528 q 143 646 106 594 q 244 726 181 697 q 393 754 308 754 m 356 49 q 486 83 432 49 q 568 178 540 118 q 596 314 596 239 l 596 392 l 433 374 q 294 351 349 364 q 205 306 240 338 q 169 218 169 275 q 194 127 169 165 q 262 69 219 89 q 356 49 304 49 z "},"á":{"ha":796,"x_min":75,"x_max":688,"o":"m 393 754 q 560 715 494 754 q 657 614 626 676 q 688 482 688 551 l 688 479 l 688 0 l 596 0 l 596 163 q 494 31 557 76 q 326 -15 432 -15 q 198 15 256 -15 q 108 99 140 46 q 75 218 75 151 q 121 341 75 296 q 233 405 167 386 q 390 435 300 424 l 596 457 l 596 472 l 596 475 q 574 579 596 532 q 508 656 553 626 q 393 685 463 685 q 288 663 332 685 q 220 606 244 642 q 192 528 196 571 l 97 528 q 143 646 106 594 q 244 726 181 697 q 393 754 308 754 m 356 49 q 486 83 432 49 q 568 178 540 118 q 596 314 596 239 l 596 392 l 433 374 q 294 351 349 364 q 205 306 240 338 q 169 218 169 275 q 194 127 169 165 q 262 69 219 89 q 356 49 304 49 m 418 849 l 332 849 l 500 1056 l 625 1056 l 418 849 z "},"ă":{"ha":796,"x_min":75,"x_max":688,"o":"m 393 754 q 560 715 494 754 q 657 614 626 676 q 688 482 688 551 l 688 479 l 688 0 l 596 0 l 596 163 q 494 31 557 76 q 326 -15 432 -15 q 198 15 256 -15 q 108 99 140 46 q 75 218 75 151 q 121 341 75 296 q 233 405 167 386 q 390 435 300 424 l 596 457 l 596 472 l 596 475 q 574 579 596 532 q 508 656 553 626 q 393 685 463 685 q 288 663 332 685 q 220 606 244 642 q 192 528 196 571 l 97 528 q 143 646 106 594 q 244 726 181 697 q 393 754 308 754 m 356 49 q 486 83 432 49 q 568 178 540 118 q 596 314 596 239 l 596 392 l 433 374 q 294 351 349 364 q 205 306 240 338 q 169 218 169 275 q 194 127 169 165 q 262 69 219 89 q 356 49 304 49 m 394 844 q 286 872 332 844 q 216 949 240 900 q 192 1056 192 997 l 267 1056 q 301 949 267 986 q 394 911 335 911 q 487 949 453 911 q 521 1056 521 986 l 596 1056 q 572 949 596 997 q 502 872 547 900 q 394 844 457 844 z "},"â":{"ha":796,"x_min":75,"x_max":688,"o":"m 393 754 q 560 715 494 754 q 657 614 626 676 q 688 482 688 551 l 688 479 l 688 0 l 596 0 l 596 163 q 494 31 557 76 q 326 -15 432 -15 q 198 15 256 -15 q 108 99 140 46 q 75 218 75 151 q 121 341 75 296 q 233 405 167 386 q 390 435 300 424 l 596 457 l 596 472 l 596 475 q 574 579 596 532 q 508 656 553 626 q 393 685 463 685 q 288 663 332 685 q 220 606 244 642 q 192 528 196 571 l 97 528 q 143 646 106 594 q 244 726 181 697 q 393 754 308 754 m 356 49 q 486 83 432 49 q 568 178 540 118 q 596 314 596 239 l 596 392 l 433 374 q 294 351 349 364 q 205 306 240 338 q 169 218 169 275 q 194 127 169 165 q 262 69 219 89 q 356 49 304 49 m 456 1056 l 640 849 l 554 849 l 394 1011 l 233 849 l 147 849 l 332 1056 l 456 1056 z "},"ä":{"ha":796,"x_min":75,"x_max":688,"o":"m 393 754 q 560 715 494 754 q 657 614 626 676 q 688 482 688 551 l 688 479 l 688 0 l 596 0 l 596 163 q 494 31 557 76 q 326 -15 432 -15 q 198 15 256 -15 q 108 99 140 46 q 75 218 75 151 q 121 341 75 296 q 233 405 167 386 q 390 435 300 424 l 596 457 l 596 472 l 596 475 q 574 579 596 532 q 508 656 553 626 q 393 685 463 685 q 288 663 332 685 q 220 606 244 642 q 192 528 196 571 l 97 528 q 143 646 106 594 q 244 726 181 697 q 393 754 308 754 m 356 49 q 486 83 432 49 q 568 178 540 118 q 596 314 596 239 l 596 392 l 433 374 q 294 351 349 364 q 205 306 240 338 q 169 218 169 275 q 194 127 169 165 q 262 69 219 89 q 356 49 304 49 z "},"ạ":{"ha":796,"x_min":75,"x_max":688,"o":"m 393 754 q 560 715 494 754 q 657 614 626 676 q 688 482 688 551 l 688 479 l 688 0 l 596 0 l 596 163 q 494 31 557 76 q 326 -15 432 -15 q 198 15 256 -15 q 108 99 140 46 q 75 218 75 151 q 121 341 75 296 q 233 405 167 386 q 390 435 300 424 l 596 457 l 596 472 l 596 475 q 574 579 596 532 q 508 656 553 626 q 393 685 463 685 q 288 663 332 685 q 220 606 244 642 q 192 528 196 571 l 97 528 q 143 646 106 594 q 244 726 181 697 q 393 754 308 754 m 356 49 q 486 83 432 49 q 568 178 540 118 q 596 314 596 239 l 596 392 l 433 374 q 294 351 349 364 q 205 306 240 338 q 169 218 169 275 q 194 127 169 165 q 262 69 219 89 q 356 49 304 49 z "},"à":{"ha":796,"x_min":75,"x_max":688,"o":"m 393 754 q 560 715 494 754 q 657 614 626 676 q 688 482 688 551 l 688 479 l 688 0 l 596 0 l 596 163 q 494 31 557 76 q 326 -15 432 -15 q 198 15 256 -15 q 108 99 140 46 q 75 218 75 151 q 121 341 75 296 q 233 405 167 386 q 390 435 300 424 l 596 457 l 596 472 l 596 475 q 574 579 596 532 q 508 656 553 626 q 393 685 463 685 q 288 663 332 685 q 220 606 244 642 q 192 528 196 571 l 97 528 q 143 646 106 594 q 244 726 181 697 q 393 754 308 754 m 356 49 q 486 83 432 49 q 568 178 540 118 q 596 314 596 239 l 596 392 l 433 374 q 294 351 349 364 q 205 306 240 338 q 169 218 169 275 q 194 127 169 165 q 262 69 219 89 q 356 49 304 49 m 454 849 l 368 849 l 161 1056 l 286 1056 l 454 849 z "},"ā":{"ha":796,"x_min":75,"x_max":688,"o":"m 393 754 q 560 715 494 754 q 657 614 626 676 q 688 482 688 551 l 688 479 l 688 0 l 596 0 l 596 163 q 494 31 557 76 q 326 -15 432 -15 q 198 15 256 -15 q 108 99 140 46 q 75 218 75 151 q 121 341 75 296 q 233 405 167 386 q 390 435 300 424 l 596 457 l 596 472 l 596 475 q 574 579 596 532 q 508 656 553 626 q 393 685 463 685 q 288 663 332 685 q 220 606 244 642 q 192 528 196 571 l 97 528 q 143 646 106 594 q 244 726 181 697 q 393 754 308 754 m 356 49 q 486 83 432 49 q 568 178 540 118 q 596 314 596 239 l 596 392 l 433 374 q 294 351 349 364 q 205 306 240 338 q 169 218 169 275 q 194 127 169 165 q 262 69 219 89 q 356 49 304 49 m 621 911 l 167 911 l 167 981 l 621 981 l 621 911 z "},"ą":{"ha":796,"x_min":75,"x_max":688,"o":"m 393 754 q 560 715 494 754 q 657 614 626 676 q 688 482 688 551 l 688 479 l 688 0 q 595 -63 625 -31 q 565 -135 565 -96 q 591 -190 565 -171 q 658 -210 617 -210 l 688 -210 l 688 -275 l 651 -275 q 531 -243 576 -275 q 485 -151 485 -211 q 514 -67 485 -103 q 596 0 543 -32 l 596 163 q 494 31 557 76 q 326 -15 432 -15 q 198 15 256 -15 q 108 99 140 46 q 75 218 75 151 q 121 341 75 296 q 233 405 167 386 q 390 435 300 424 l 596 457 l 596 472 l 596 475 q 574 579 596 532 q 508 656 553 626 q 393 685 463 685 q 288 663 332 685 q 220 606 244 642 q 192 528 196 571 l 97 528 q 143 646 106 594 q 244 726 181 697 q 393 754 308 754 m 356 49 q 486 83 432 49 q 568 178 540 118 q 596 314 596 239 l 596 392 l 433 374 q 294 351 349 364 q 205 306 240 338 q 169 218 169 275 q 194 127 169 165 q 262 69 219 89 q 356 49 304 49 z "},"å":{"ha":796,"x_min":75,"x_max":688,"o":"m 393 754 q 560 715 494 754 q 657 614 626 676 q 688 482 688 551 l 688 479 l 688 0 l 596 0 l 596 163 q 494 31 557 76 q 326 -15 432 -15 q 198 15 256 -15 q 108 99 140 46 q 75 218 75 151 q 121 341 75 296 q 233 405 167 386 q 390 435 300 424 l 596 457 l 596 472 l 596 475 q 574 579 596 532 q 508 656 553 626 q 393 685 463 685 q 288 663 332 685 q 220 606 244 642 q 192 528 196 571 l 97 528 q 143 646 106 594 q 244 726 181 697 q 393 754 308 754 m 356 49 q 486 83 432 49 q 568 178 540 118 q 596 314 596 239 l 596 392 l 433 374 q 294 351 349 364 q 205 306 240 338 q 169 218 169 275 q 194 127 169 165 q 262 69 219 89 q 356 49 304 49 m 394 844 q 325 863 357 844 q 274 914 293 882 q 256 985 256 946 q 274 1053 256 1022 q 325 1103 293 1085 q 394 1121 357 1121 q 464 1103 432 1121 q 515 1053 496 1085 q 533 985 533 1022 q 515 914 533 946 q 464 863 496 882 q 394 844 432 844 m 394 906 q 448 929 425 906 q 471 985 471 953 q 449 1038 471 1015 q 394 1060 426 1060 q 340 1038 363 1060 q 317 985 317 1015 q 340 929 317 953 q 394 906 363 906 z "},"ã":{"ha":796,"x_min":75,"x_max":688,"o":"m 393 754 q 560 715 494 754 q 657 614 626 676 q 688 482 688 551 l 688 479 l 688 0 l 596 0 l 596 163 q 494 31 557 76 q 326 -15 432 -15 q 198 15 256 -15 q 108 99 140 46 q 75 218 75 151 q 121 341 75 296 q 233 405 167 386 q 390 435 300 424 l 596 457 l 596 472 l 596 475 q 574 579 596 532 q 508 656 553 626 q 393 685 463 685 q 288 663 332 685 q 220 606 244 642 q 192 528 196 571 l 97 528 q 143 646 106 594 q 244 726 181 697 q 393 754 308 754 m 356 49 q 486 83 432 49 q 568 178 540 118 q 596 314 596 239 l 596 392 l 433 374 q 294 351 349 364 q 205 306 240 338 q 169 218 169 275 q 194 127 169 165 q 262 69 219 89 q 356 49 304 49 m 182 886 q 223 977 189 944 q 301 1010 257 1010 q 353 1001 328 1010 q 403 979 378 993 q 483 956 447 956 q 538 971 517 956 q 568 1014 560 986 l 606 1014 q 565 923 599 956 q 486 890 531 890 q 435 899 460 890 q 385 921 410 907 q 304 944 340 944 q 249 929 271 944 q 219 886 228 914 l 182 886 z "},"æ":{"ha":1346,"x_min":75,"x_max":1281,"o":"m 1281 382 q 1279 360 1281 369 q 1278 346 1278 351 l 688 346 q 724 188 692 254 q 813 88 757 122 q 943 54 869 54 q 1090 97 1033 54 q 1171 217 1146 139 l 1265 217 q 1149 43 1233 101 q 943 -15 1065 -15 q 749 40 831 -15 q 633 190 668 94 q 572 85 614 132 q 467 12 529 39 q 329 -15 406 -15 q 196 14 254 -15 q 106 92 138 43 q 75 201 75 142 q 167 369 75 321 q 422 417 258 417 l 596 417 l 596 472 l 596 475 q 574 579 596 532 q 507 656 553 626 q 393 685 461 685 q 288 663 332 685 q 220 606 244 642 q 192 528 196 571 l 97 528 q 142 646 104 594 q 244 726 179 697 q 393 754 308 754 q 564 707 499 754 q 656 590 629 660 q 770 710 697 667 q 939 754 843 754 q 1114 708 1036 754 q 1236 578 1192 663 q 1281 382 1281 494 m 939 685 q 815 653 869 685 q 728 560 761 621 q 689 417 696 500 l 1186 417 q 1150 556 1182 494 q 1063 651 1118 617 q 939 685 1008 685 m 596 346 l 438 346 q 238 315 306 346 q 169 201 169 283 q 191 125 169 158 q 253 73 213 92 q 347 54 293 54 q 481 88 425 54 q 566 186 536 122 q 596 335 596 250 l 596 346 z "},"ǽ":{"ha":1346,"x_min":75,"x_max":1281,"o":"m 1281 382 q 1279 360 1281 369 q 1278 346 1278 351 l 688 346 q 724 188 692 254 q 813 88 757 122 q 943 54 869 54 q 1090 97 1033 54 q 1171 217 1146 139 l 1265 217 q 1149 43 1233 101 q 943 -15 1065 -15 q 749 40 831 -15 q 633 190 668 94 q 572 85 614 132 q 467 12 529 39 q 329 -15 406 -15 q 196 14 254 -15 q 106 92 138 43 q 75 201 75 142 q 167 369 75 321 q 422 417 258 417 l 596 417 l 596 472 l 596 475 q 574 579 596 532 q 507 656 553 626 q 393 685 461 685 q 288 663 332 685 q 220 606 244 642 q 192 528 196 571 l 97 528 q 142 646 104 594 q 244 726 179 697 q 393 754 308 754 q 564 707 499 754 q 656 590 629 660 q 770 710 697 667 q 939 754 843 754 q 1114 708 1036 754 q 1236 578 1192 663 q 1281 382 1281 494 m 939 685 q 815 653 869 685 q 728 560 761 621 q 689 417 696 500 l 1186 417 q 1150 556 1182 494 q 1063 651 1118 617 q 939 685 1008 685 m 596 346 l 438 346 q 238 315 306 346 q 169 201 169 283 q 191 125 169 158 q 253 73 213 92 q 347 54 293 54 q 481 88 425 54 q 566 186 536 122 q 596 335 596 250 l 596 346 m 699 849 l 613 849 l 781 1056 l 906 1056 l 699 849 z "},"ǣ":{"ha":1346,"x_min":75,"x_max":1281,"o":"m 1281 382 q 1279 360 1281 369 q 1278 346 1278 351 l 688 346 q 724 188 692 254 q 813 88 757 122 q 943 54 869 54 q 1090 97 1033 54 q 1171 217 1146 139 l 1265 217 q 1149 43 1233 101 q 943 -15 1065 -15 q 749 40 831 -15 q 633 190 668 94 q 572 85 614 132 q 467 12 529 39 q 329 -15 406 -15 q 196 14 254 -15 q 106 92 138 43 q 75 201 75 142 q 167 369 75 321 q 422 417 258 417 l 596 417 l 596 472 l 596 475 q 574 579 596 532 q 507 656 553 626 q 393 685 461 685 q 288 663 332 685 q 220 606 244 642 q 192 528 196 571 l 97 528 q 142 646 104 594 q 244 726 179 697 q 393 754 308 754 q 564 707 499 754 q 656 590 629 660 q 770 710 697 667 q 939 754 843 754 q 1114 708 1036 754 q 1236 578 1192 663 q 1281 382 1281 494 m 939 685 q 815 653 869 685 q 728 560 761 621 q 689 417 696 500 l 1186 417 q 1150 556 1182 494 q 1063 651 1118 617 q 939 685 1008 685 m 596 346 l 438 346 q 238 315 306 346 q 169 201 169 283 q 191 125 169 158 q 253 73 213 92 q 347 54 293 54 q 481 88 425 54 q 566 186 536 122 q 596 335 596 250 l 596 346 m 900 911 l 446 911 l 446 981 l 900 981 l 900 911 z "},"b":{"ha":883,"x_min":118,"x_max":815,"o":"m 490 754 q 657 706 583 754 q 773 569 731 657 q 815 369 815 482 q 774 169 815 257 q 658 33 732 82 q 490 -15 583 -15 q 372 10 428 -15 q 274 81 315 36 q 210 183 232 126 l 210 0 l 118 0 l 118 1056 l 210 1056 l 210 546 q 268 650 229 603 q 364 726 307 697 q 490 754 421 754 m 464 54 q 601 94 543 54 q 690 205 658 133 q 721 369 721 276 q 690 534 721 463 q 601 645 658 606 q 464 685 543 685 q 326 645 385 685 q 237 534 268 606 q 206 369 206 463 q 237 205 206 276 q 326 94 268 133 q 464 54 385 54 z "},"c":{"ha":806,"x_min":68,"x_max":754,"o":"m 421 -15 q 235 33 315 -15 q 112 168 156 81 q 68 369 68 256 q 112 571 68 483 q 235 706 156 658 q 421 754 315 754 q 572 722 506 754 q 683 630 639 689 q 746 492 726 571 l 651 492 q 570 632 629 579 q 421 685 511 685 q 283 645 342 685 q 192 534 224 606 q 161 369 161 463 q 192 205 161 276 q 283 94 224 133 q 421 54 342 54 q 572 105 511 54 q 660 246 633 156 l 754 246 q 686 106 733 165 q 571 16 639 47 q 421 -15 503 -15 z "},"ć":{"ha":806,"x_min":68,"x_max":754,"o":"m 421 -15 q 235 33 315 -15 q 112 168 156 81 q 68 369 68 256 q 112 571 68 483 q 235 706 156 658 q 421 754 315 754 q 572 722 506 754 q 683 630 639 689 q 746 492 726 571 l 651 492 q 570 632 629 579 q 421 685 511 685 q 283 645 342 685 q 192 534 224 606 q 161 369 161 463 q 192 205 161 276 q 283 94 224 133 q 421 54 342 54 q 572 105 511 54 q 660 246 633 156 l 754 246 q 686 106 733 165 q 571 16 639 47 q 421 -15 503 -15 m 446 849 l 360 849 l 528 1056 l 653 1056 l 446 849 z "},"č":{"ha":806,"x_min":68,"x_max":754,"o":"m 421 -15 q 235 33 315 -15 q 112 168 156 81 q 68 369 68 256 q 112 571 68 483 q 235 706 156 658 q 421 754 315 754 q 572 722 506 754 q 683 630 639 689 q 746 492 726 571 l 651 492 q 570 632 629 579 q 421 685 511 685 q 283 645 342 685 q 192 534 224 606 q 161 369 161 463 q 192 205 161 276 q 283 94 224 133 q 421 54 342 54 q 572 105 511 54 q 660 246 633 156 l 754 246 q 686 106 733 165 q 571 16 639 47 q 421 -15 503 -15 m 421 893 l 581 1056 l 667 1056 l 482 849 l 358 849 l 174 1056 l 260 1056 l 421 893 z "},"ç":{"ha":806,"x_min":68,"x_max":754,"o":"m 754 246 q 688 108 735 167 q 575 18 642 50 q 429 -15 508 -14 l 429 -56 q 508 -90 478 -60 q 539 -165 539 -119 q 504 -244 539 -214 q 411 -275 469 -275 l 351 -275 l 351 -219 l 404 -219 q 456 -204 438 -219 q 475 -160 475 -189 q 456 -117 475 -133 q 408 -101 436 -101 l 371 -101 l 371 -12 q 210 49 279 -1 q 105 181 142 99 q 68 369 68 264 q 112 571 68 483 q 235 706 156 658 q 421 754 315 754 q 572 722 506 754 q 683 630 639 689 q 746 492 726 571 l 651 492 q 570 632 629 579 q 421 685 511 685 q 283 645 342 685 q 192 534 224 606 q 161 369 161 463 q 192 205 161 276 q 283 94 224 133 q 421 54 342 54 q 572 105 511 54 q 660 246 633 156 l 754 246 z "},"ĉ":{"ha":806,"x_min":68,"x_max":754,"o":"m 421 -15 q 235 33 315 -15 q 112 168 156 81 q 68 369 68 256 q 112 571 68 483 q 235 706 156 658 q 421 754 315 754 q 572 722 506 754 q 683 630 639 689 q 746 492 726 571 l 651 492 q 570 632 629 579 q 421 685 511 685 q 283 645 342 685 q 192 534 224 606 q 161 369 161 463 q 192 205 161 276 q 283 94 224 133 q 421 54 342 54 q 572 105 511 54 q 660 246 633 156 l 754 246 q 686 106 733 165 q 571 16 639 47 q 421 -15 503 -15 m 482 1056 l 667 849 l 581 849 l 421 1011 l 260 849 l 174 849 l 358 1056 l 482 1056 z "},"ċ":{"ha":806,"x_min":68,"x_max":754,"o":"m 421 -15 q 235 33 315 -15 q 112 168 156 81 q 68 369 68 256 q 112 571 68 483 q 235 706 156 658 q 421 754 315 754 q 572 722 506 754 q 683 630 639 689 q 746 492 726 571 l 651 492 q 570 632 629 579 q 421 685 511 685 q 283 645 342 685 q 192 534 224 606 q 161 369 161 463 q 192 205 161 276 q 283 94 224 133 q 421 54 342 54 q 572 105 511 54 q 660 246 633 156 l 754 246 q 686 106 733 165 q 571 16 639 47 q 421 -15 503 -15 m 469 881 l 371 881 l 371 1056 l 469 1056 l 469 881 z "},"d":{"ha":883,"x_min":68,"x_max":765,"o":"m 674 1056 l 765 1056 l 765 0 l 674 0 l 674 183 q 610 81 651 126 q 512 10 568 36 q 393 -15 456 -15 q 226 33 300 -15 q 110 169 151 82 q 68 369 68 257 q 110 569 68 482 q 226 706 153 657 q 393 754 300 754 q 519 726 463 754 q 615 650 576 697 q 674 546 654 603 l 674 1056 m 419 54 q 557 94 499 54 q 647 205 615 133 q 678 369 678 276 q 647 534 678 463 q 557 645 615 606 q 419 685 499 685 q 283 645 340 685 q 194 534 225 606 q 163 369 163 463 q 194 205 163 276 q 283 94 225 133 q 419 54 340 54 z "},"ð":{"ha":843,"x_min":68,"x_max":771,"o":"m 556 911 q 771 388 771 699 q 726 172 771 263 q 602 33 682 81 q 419 -15 522 -15 q 235 33 315 -15 q 112 168 156 81 q 68 369 68 256 q 110 571 68 483 q 226 706 151 658 q 397 754 301 754 q 512 729 460 754 q 602 663 564 704 q 660 569 640 621 q 598 729 644 649 q 476 883 551 810 l 307 824 l 288 881 l 424 929 q 222 1056 333 1004 l 369 1056 q 506 958 449 1006 l 678 1019 l 697 961 l 556 911 m 419 54 q 556 94 499 54 q 645 205 614 133 q 676 369 676 276 q 645 534 676 463 q 556 645 614 606 q 419 685 499 685 q 282 645 340 685 q 192 534 224 606 q 161 369 161 463 q 192 205 161 276 q 282 94 224 133 q 419 54 340 54 z "},"ď":{"ha":883,"x_min":68,"x_max":950,"o":"m 674 1056 l 765 1056 l 765 0 l 674 0 l 674 183 q 610 81 651 126 q 512 10 568 36 q 393 -15 456 -15 q 226 33 300 -15 q 110 169 151 82 q 68 369 68 257 q 110 569 68 482 q 226 706 153 657 q 393 754 300 754 q 519 726 463 754 q 615 650 576 697 q 674 546 654 603 l 674 1056 m 419 54 q 557 94 499 54 q 647 205 615 133 q 678 369 678 276 q 647 534 678 463 q 557 645 615 606 q 419 685 499 685 q 283 645 340 685 q 194 534 225 606 q 163 369 163 463 q 194 205 163 276 q 283 94 225 133 q 419 54 340 54 m 911 806 l 842 806 l 864 1056 l 950 1056 l 911 806 z "},"đ":{"ha":883,"x_min":68,"x_max":864,"o":"m 864 938 l 864 867 l 765 867 l 765 0 l 674 0 l 674 183 q 610 81 651 126 q 512 10 568 36 q 393 -15 456 -15 q 226 33 300 -15 q 110 169 151 82 q 68 369 68 257 q 110 569 68 482 q 226 706 153 657 q 393 754 300 754 q 519 726 463 754 q 615 650 576 697 q 674 546 654 603 l 674 867 l 535 867 l 535 938 l 674 938 l 674 1056 l 765 1056 l 765 938 l 864 938 m 419 54 q 557 94 499 54 q 647 205 615 133 q 678 369 678 276 q 647 534 678 463 q 557 645 615 606 q 419 685 499 685 q 283 645 340 685 q 194 534 225 606 q 163 369 163 463 q 194 205 163 276 q 283 94 225 133 q 419 54 340 54 z "},"e":{"ha":819,"x_min":68,"x_max":754,"o":"m 754 382 q 753 360 754 369 q 751 346 751 351 l 161 346 q 198 188 165 254 q 287 88 231 122 q 417 54 343 54 q 563 97 507 54 q 644 217 619 139 l 739 217 q 623 43 707 101 q 417 -15 539 -15 q 233 33 313 -15 q 111 168 154 81 q 68 369 68 256 q 111 570 68 483 q 233 706 154 657 q 413 754 311 754 q 588 708 510 754 q 710 578 665 663 q 754 382 754 493 m 413 685 q 289 653 343 685 q 202 560 235 621 q 163 417 169 500 l 660 417 q 624 554 656 493 q 537 650 592 615 q 413 685 482 685 z "},"é":{"ha":819,"x_min":68,"x_max":754,"o":"m 754 382 q 753 360 754 369 q 751 346 751 351 l 161 346 q 198 188 165 254 q 287 88 231 122 q 417 54 343 54 q 563 97 507 54 q 644 217 619 139 l 739 217 q 623 43 707 101 q 417 -15 539 -15 q 233 33 313 -15 q 111 168 154 81 q 68 369 68 256 q 111 570 68 483 q 233 706 154 657 q 413 754 311 754 q 588 708 510 754 q 710 578 665 663 q 754 382 754 493 m 413 685 q 289 653 343 685 q 202 560 235 621 q 163 417 169 500 l 660 417 q 624 554 656 493 q 537 650 592 615 q 413 685 482 685 m 438 849 l 351 849 l 519 1056 l 644 1056 l 438 849 z "},"ĕ":{"ha":819,"x_min":68,"x_max":754,"o":"m 754 382 q 753 360 754 369 q 751 346 751 351 l 161 346 q 198 188 165 254 q 287 88 231 122 q 417 54 343 54 q 563 97 507 54 q 644 217 619 139 l 739 217 q 623 43 707 101 q 417 -15 539 -15 q 233 33 313 -15 q 111 168 154 81 q 68 369 68 256 q 111 570 68 483 q 233 706 154 657 q 413 754 311 754 q 588 708 510 754 q 710 578 665 663 q 754 382 754 493 m 413 685 q 289 653 343 685 q 202 560 235 621 q 163 417 169 500 l 660 417 q 624 554 656 493 q 537 650 592 615 q 413 685 482 685 m 413 844 q 304 872 350 844 q 234 949 258 900 q 210 1056 210 997 l 285 1056 q 319 949 285 986 q 413 911 353 911 q 505 949 471 911 q 539 1056 539 986 l 614 1056 q 590 949 614 997 q 520 872 565 900 q 413 844 475 844 z "},"ě":{"ha":819,"x_min":68,"x_max":754,"o":"m 754 382 q 753 360 754 369 q 751 346 751 351 l 161 346 q 198 188 165 254 q 287 88 231 122 q 417 54 343 54 q 563 97 507 54 q 644 217 619 139 l 739 217 q 623 43 707 101 q 417 -15 539 -15 q 233 33 313 -15 q 111 168 154 81 q 68 369 68 256 q 111 570 68 483 q 233 706 154 657 q 413 754 311 754 q 588 708 510 754 q 710 578 665 663 q 754 382 754 493 m 413 685 q 289 653 343 685 q 202 560 235 621 q 163 417 169 500 l 660 417 q 624 554 656 493 q 537 650 592 615 q 413 685 482 685 m 413 893 l 572 1056 l 658 1056 l 474 849 l 350 849 l 165 1056 l 251 1056 l 413 893 z "},"ê":{"ha":819,"x_min":68,"x_max":754,"o":"m 754 382 q 753 360 754 369 q 751 346 751 351 l 161 346 q 198 188 165 254 q 287 88 231 122 q 417 54 343 54 q 563 97 507 54 q 644 217 619 139 l 739 217 q 623 43 707 101 q 417 -15 539 -15 q 233 33 313 -15 q 111 168 154 81 q 68 369 68 256 q 111 570 68 483 q 233 706 154 657 q 413 754 311 754 q 588 708 510 754 q 710 578 665 663 q 754 382 754 493 m 413 685 q 289 653 343 685 q 202 560 235 621 q 163 417 169 500 l 660 417 q 624 554 656 493 q 537 650 592 615 q 413 685 482 685 m 474 1056 l 658 849 l 572 849 l 413 1011 l 251 849 l 165 849 l 350 1056 l 474 1056 z "},"ë":{"ha":819,"x_min":68,"x_max":754,"o":"m 754 382 q 753 360 754 369 q 751 346 751 351 l 161 346 q 198 188 165 254 q 287 88 231 122 q 417 54 343 54 q 563 97 507 54 q 644 217 619 139 l 739 217 q 623 43 707 101 q 417 -15 539 -15 q 233 33 313 -15 q 111 168 154 81 q 68 369 68 256 q 111 570 68 483 q 233 706 154 657 q 413 754 311 754 q 588 708 510 754 q 710 578 665 663 q 754 382 754 493 m 413 685 q 289 653 343 685 q 202 560 235 621 q 163 417 169 500 l 660 417 q 624 554 656 493 q 537 650 592 615 q 413 685 482 685 z "},"ė":{"ha":819,"x_min":68,"x_max":754,"o":"m 754 382 q 753 360 754 369 q 751 346 751 351 l 161 346 q 198 188 165 254 q 287 88 231 122 q 417 54 343 54 q 563 97 507 54 q 644 217 619 139 l 739 217 q 623 43 707 101 q 417 -15 539 -15 q 233 33 313 -15 q 111 168 154 81 q 68 369 68 256 q 111 570 68 483 q 233 706 154 657 q 413 754 311 754 q 588 708 510 754 q 710 578 665 663 q 754 382 754 493 m 413 685 q 289 653 343 685 q 202 560 235 621 q 163 417 169 500 l 660 417 q 624 554 656 493 q 537 650 592 615 q 413 685 482 685 m 461 881 l 363 881 l 363 1056 l 461 1056 l 461 881 z "},"ẹ":{"ha":819,"x_min":68,"x_max":754,"o":"m 754 382 q 753 360 754 369 q 751 346 751 351 l 161 346 q 198 188 165 254 q 287 88 231 122 q 417 54 343 54 q 563 97 507 54 q 644 217 619 139 l 739 217 q 623 43 707 101 q 417 -15 539 -15 q 233 33 313 -15 q 111 168 154 81 q 68 369 68 256 q 111 570 68 483 q 233 706 154 657 q 413 754 311 754 q 588 708 510 754 q 710 578 665 663 q 754 382 754 493 m 413 685 q 289 653 343 685 q 202 560 235 621 q 163 417 169 500 l 660 417 q 624 554 656 493 q 537 650 592 615 q 413 685 482 685 z "},"è":{"ha":819,"x_min":68,"x_max":754,"o":"m 754 382 q 753 360 754 369 q 751 346 751 351 l 161 346 q 198 188 165 254 q 287 88 231 122 q 417 54 343 54 q 563 97 507 54 q 644 217 619 139 l 739 217 q 623 43 707 101 q 417 -15 539 -15 q 233 33 313 -15 q 111 168 154 81 q 68 369 68 256 q 111 570 68 483 q 233 706 154 657 q 413 754 311 754 q 588 708 510 754 q 710 578 665 663 q 754 382 754 493 m 413 685 q 289 653 343 685 q 202 560 235 621 q 163 417 169 500 l 660 417 q 624 554 656 493 q 537 650 592 615 q 413 685 482 685 m 474 849 l 388 849 l 181 1056 l 306 1056 l 474 849 z "},"ē":{"ha":819,"x_min":68,"x_max":754,"o":"m 754 382 q 753 360 754 369 q 751 346 751 351 l 161 346 q 198 188 165 254 q 287 88 231 122 q 417 54 343 54 q 563 97 507 54 q 644 217 619 139 l 739 217 q 623 43 707 101 q 417 -15 539 -15 q 233 33 313 -15 q 111 168 154 81 q 68 369 68 256 q 111 570 68 483 q 233 706 154 657 q 413 754 311 754 q 588 708 510 754 q 710 578 665 663 q 754 382 754 493 m 413 685 q 289 653 343 685 q 202 560 235 621 q 163 417 169 500 l 660 417 q 624 554 656 493 q 537 650 592 615 q 413 685 482 685 m 639 911 l 185 911 l 185 981 l 639 981 l 639 911 z "},"ę":{"ha":819,"x_min":68,"x_max":754,"o":"m 754 382 q 753 360 754 369 q 751 346 751 351 l 161 346 q 198 188 165 254 q 287 88 231 122 q 417 54 343 54 q 563 97 507 54 q 644 217 619 139 l 739 217 q 692 113 722 158 q 619 40 661 68 q 529 -51 554 -14 q 504 -131 504 -89 q 530 -190 504 -171 q 597 -210 556 -210 l 626 -210 l 626 -275 l 589 -275 q 469 -243 515 -275 q 424 -151 424 -211 q 442 -77 424 -111 q 499 -8 460 -43 q 417 -15 454 -15 q 233 33 313 -15 q 111 168 154 81 q 68 369 68 256 q 111 570 68 483 q 233 706 154 657 q 413 754 311 754 q 588 708 510 754 q 710 578 665 663 q 754 382 754 493 m 413 685 q 289 653 343 685 q 202 560 235 621 q 163 417 169 500 l 660 417 q 624 554 656 493 q 537 650 592 615 q 413 685 482 685 z "},"ẽ":{"ha":819,"x_min":68,"x_max":754,"o":"m 754 382 q 753 360 754 369 q 751 346 751 351 l 161 346 q 198 188 165 254 q 287 88 231 122 q 417 54 343 54 q 563 97 507 54 q 644 217 619 139 l 739 217 q 623 43 707 101 q 417 -15 539 -15 q 233 33 313 -15 q 111 168 154 81 q 68 369 68 256 q 111 570 68 483 q 233 706 154 657 q 413 754 311 754 q 588 708 510 754 q 710 578 665 663 q 754 382 754 493 m 413 685 q 289 653 343 685 q 202 560 235 621 q 163 417 169 500 l 660 417 q 624 554 656 493 q 537 650 592 615 q 413 685 482 685 m 200 886 q 241 977 207 944 q 319 1010 275 1010 q 371 1001 346 1010 q 421 979 396 993 q 501 956 465 956 q 556 971 535 956 q 586 1014 578 986 l 624 1014 q 583 923 617 956 q 504 890 549 890 q 453 899 478 890 q 403 921 428 907 q 322 944 358 944 q 267 929 289 944 q 238 886 246 914 l 200 886 z "},"ə":{"ha":819,"x_min":67,"x_max":751,"o":"m 403 754 q 586 706 507 754 q 708 571 665 658 q 751 369 751 483 q 708 169 751 256 q 588 33 665 82 q 408 -15 510 -15 q 232 31 310 -15 q 110 161 154 76 q 67 357 67 246 q 68 393 67 378 l 658 393 q 622 551 654 485 q 533 651 589 617 q 403 685 476 685 q 175 522 228 685 l 81 522 q 197 696 113 638 q 403 754 281 754 m 408 54 q 531 86 478 54 q 617 178 585 118 q 657 322 650 239 l 160 322 q 196 185 164 246 q 283 89 228 124 q 408 54 338 54 z "},"f":{"ha":497,"x_min":19,"x_max":481,"o":"m 397 985 q 306 957 336 985 q 276 865 276 929 l 276 739 l 481 739 l 481 668 l 276 668 l 276 0 l 185 0 l 185 668 l 19 668 l 19 739 l 185 739 l 185 865 q 240 1008 185 960 q 389 1056 294 1056 l 481 1056 l 481 985 l 397 985 z "},"g":{"ha":883,"x_min":71,"x_max":768,"o":"m 676 739 l 768 739 l 768 -14 q 724 -163 768 -101 q 605 -256 679 -225 q 439 -287 531 -287 q 276 -259 349 -287 q 159 -175 203 -231 q 108 -43 115 -119 l 203 -43 q 242 -139 208 -100 q 326 -198 275 -178 q 439 -218 378 -218 q 561 -194 507 -218 q 646 -125 615 -171 q 676 -15 676 -79 l 676 197 q 613 96 654 140 q 515 26 571 51 q 396 1 460 1 q 228 48 303 1 q 113 180 154 94 q 71 378 71 265 q 113 576 71 490 q 229 708 156 661 q 396 754 303 754 q 523 726 465 754 q 619 652 581 699 q 676 549 657 606 l 676 739 m 422 71 q 560 108 501 71 q 649 215 618 146 q 681 378 681 285 q 649 540 681 471 q 560 647 618 610 q 422 685 501 685 q 285 647 343 685 q 197 540 228 610 q 165 378 165 471 q 197 215 165 285 q 285 108 228 146 q 422 71 343 71 z "},"ğ":{"ha":883,"x_min":71,"x_max":768,"o":"m 676 739 l 768 739 l 768 -14 q 724 -163 768 -101 q 605 -256 679 -225 q 439 -287 531 -287 q 276 -259 349 -287 q 159 -175 203 -231 q 108 -43 115 -119 l 203 -43 q 242 -139 208 -100 q 326 -198 275 -178 q 439 -218 378 -218 q 561 -194 507 -218 q 646 -125 615 -171 q 676 -15 676 -79 l 676 197 q 613 96 654 140 q 515 26 571 51 q 396 1 460 1 q 228 48 303 1 q 113 180 154 94 q 71 378 71 265 q 113 576 71 490 q 229 708 156 661 q 396 754 303 754 q 523 726 465 754 q 619 652 581 699 q 676 549 657 606 l 676 739 m 422 71 q 560 108 501 71 q 649 215 618 146 q 681 378 681 285 q 649 540 681 471 q 560 647 618 610 q 422 685 501 685 q 285 647 343 685 q 197 540 228 610 q 165 378 165 471 q 197 215 165 285 q 285 108 228 146 q 422 71 343 71 m 422 844 q 314 872 360 844 q 244 949 268 900 q 219 1056 219 997 l 294 1056 q 328 949 294 986 q 422 911 363 911 q 515 949 481 911 q 549 1056 549 986 l 624 1056 q 599 949 624 997 q 530 872 575 900 q 422 844 485 844 z "},"ǧ":{"ha":883,"x_min":71,"x_max":768,"o":"m 676 739 l 768 739 l 768 -14 q 724 -163 768 -101 q 605 -256 679 -225 q 439 -287 531 -287 q 276 -259 349 -287 q 159 -175 203 -231 q 108 -43 115 -119 l 203 -43 q 242 -139 208 -100 q 326 -198 275 -178 q 439 -218 378 -218 q 561 -194 507 -218 q 646 -125 615 -171 q 676 -15 676 -79 l 676 197 q 613 96 654 140 q 515 26 571 51 q 396 1 460 1 q 228 48 303 1 q 113 180 154 94 q 71 378 71 265 q 113 576 71 490 q 229 708 156 661 q 396 754 303 754 q 523 726 465 754 q 619 652 581 699 q 676 549 657 606 l 676 739 m 422 71 q 560 108 501 71 q 649 215 618 146 q 681 378 681 285 q 649 540 681 471 q 560 647 618 610 q 422 685 501 685 q 285 647 343 685 q 197 540 228 610 q 165 378 165 471 q 197 215 165 285 q 285 108 228 146 q 422 71 343 71 m 421 893 l 581 1056 l 667 1056 l 482 849 l 358 849 l 174 1056 l 260 1056 l 421 893 z "},"ĝ":{"ha":883,"x_min":71,"x_max":768,"o":"m 676 739 l 768 739 l 768 -14 q 724 -163 768 -101 q 605 -256 679 -225 q 439 -287 531 -287 q 276 -259 349 -287 q 159 -175 203 -231 q 108 -43 115 -119 l 203 -43 q 242 -139 208 -100 q 326 -198 275 -178 q 439 -218 378 -218 q 561 -194 507 -218 q 646 -125 615 -171 q 676 -15 676 -79 l 676 197 q 613 96 654 140 q 515 26 571 51 q 396 1 460 1 q 228 48 303 1 q 113 180 154 94 q 71 378 71 265 q 113 576 71 490 q 229 708 156 661 q 396 754 303 754 q 523 726 465 754 q 619 652 581 699 q 676 549 657 606 l 676 739 m 422 71 q 560 108 501 71 q 649 215 618 146 q 681 378 681 285 q 649 540 681 471 q 560 647 618 610 q 422 685 501 685 q 285 647 343 685 q 197 540 228 610 q 165 378 165 471 q 197 215 165 285 q 285 108 228 146 q 422 71 343 71 m 483 1056 l 668 849 l 582 849 l 422 1011 l 261 849 l 175 849 l 360 1056 l 483 1056 z "},"ģ":{"ha":883,"x_min":71,"x_max":768,"o":"m 676 739 l 768 739 l 768 -14 q 724 -163 768 -101 q 605 -256 679 -225 q 439 -287 531 -287 q 276 -259 349 -287 q 159 -175 203 -231 q 108 -43 115 -119 l 203 -43 q 242 -139 208 -100 q 326 -198 275 -178 q 439 -218 378 -218 q 561 -194 507 -218 q 646 -125 615 -171 q 676 -15 676 -79 l 676 197 q 613 96 654 140 q 515 26 571 51 q 396 1 460 1 q 228 48 303 1 q 113 180 154 94 q 71 378 71 265 q 113 576 71 490 q 229 708 156 661 q 396 754 303 754 q 523 726 465 754 q 619 652 581 699 q 676 549 657 606 l 676 739 m 422 71 q 560 108 501 71 q 649 215 618 146 q 681 378 681 285 q 649 540 681 471 q 560 647 618 610 q 422 685 501 685 q 285 647 343 685 q 197 540 228 610 q 165 378 165 471 q 197 215 165 285 q 285 108 228 146 q 422 71 343 71 m 438 1172 l 500 1172 l 444 1054 l 471 1054 l 471 881 l 372 881 l 372 1061 l 438 1172 z "},"ġ":{"ha":883,"x_min":71,"x_max":768,"o":"m 676 739 l 768 739 l 768 -14 q 724 -163 768 -101 q 605 -256 679 -225 q 439 -287 531 -287 q 276 -259 349 -287 q 159 -175 203 -231 q 108 -43 115 -119 l 203 -43 q 242 -139 208 -100 q 326 -198 275 -178 q 439 -218 378 -218 q 561 -194 507 -218 q 646 -125 615 -171 q 676 -15 676 -79 l 676 197 q 613 96 654 140 q 515 26 571 51 q 396 1 460 1 q 228 48 303 1 q 113 180 154 94 q 71 378 71 265 q 113 576 71 490 q 229 708 156 661 q 396 754 303 754 q 523 726 465 754 q 619 652 581 699 q 676 549 657 606 l 676 739 m 422 71 q 560 108 501 71 q 649 215 618 146 q 681 378 681 285 q 649 540 681 471 q 560 647 618 610 q 422 685 501 685 q 285 647 343 685 q 197 540 228 610 q 165 378 165 471 q 197 215 165 285 q 285 108 228 146 q 422 71 343 71 m 471 881 l 372 881 l 372 1056 l 471 1056 l 471 881 z "},"h":{"ha":818,"x_min":118,"x_max":710,"o":"m 447 754 q 585 717 525 754 q 677 614 644 681 q 710 461 710 547 l 710 458 l 710 0 l 618 0 l 618 443 l 618 446 q 592 577 618 524 q 520 658 567 631 q 414 685 474 685 q 308 658 354 685 q 235 576 261 631 q 210 444 210 522 l 210 0 l 118 0 l 118 1056 l 210 1056 l 210 586 q 299 708 238 661 q 447 754 360 754 z "},"ħ":{"ha":818,"x_min":21,"x_max":710,"o":"m 447 754 q 585 717 525 754 q 677 614 644 681 q 710 461 710 547 l 710 458 l 710 0 l 618 0 l 618 443 l 618 446 q 592 577 618 524 q 520 658 567 631 q 414 685 474 685 q 308 658 354 685 q 235 576 261 631 q 210 444 210 522 l 210 0 l 118 0 l 118 867 l 21 867 l 21 938 l 118 938 l 118 1056 l 210 1056 l 210 938 l 350 938 l 350 867 l 210 867 l 210 586 q 299 708 238 661 q 447 754 360 754 z "},"ĥ":{"ha":818,"x_min":-83,"x_max":710,"o":"m 447 754 q 585 717 525 754 q 677 614 644 681 q 710 461 710 547 l 710 458 l 710 0 l 618 0 l 618 443 l 618 446 q 592 577 618 524 q 520 658 567 631 q 414 685 474 685 q 308 658 354 685 q 235 576 261 631 q 210 444 210 522 l 210 0 l 118 0 l 118 1056 l 210 1056 l 210 586 q 299 708 238 661 q 447 754 360 754 m 229 1321 l 410 1146 l 319 1146 l 164 1276 l 7 1146 l -83 1146 l 99 1321 l 229 1321 z "},"i":{"ha":328,"x_min":114,"x_max":213,"o":"m 210 0 l 118 0 l 118 739 l 210 739 l 210 0 m 213 881 l 114 881 l 114 1056 l 213 1056 l 213 881 z "},"ı":{"ha":328,"x_min":118,"x_max":210,"o":"m 210 0 l 118 0 l 118 739 l 210 739 l 210 0 z "},"í":{"ha":328,"x_min":118,"x_max":417,"o":"m 210 0 l 118 0 l 118 739 l 210 739 l 210 0 m 210 849 l 124 849 l 292 1056 l 417 1056 l 210 849 z "},"ĭ":{"ha":328,"x_min":-39,"x_max":365,"o":"m 210 0 l 118 0 l 118 739 l 210 739 l 210 0 m 164 844 q 56 872 101 844 q -15 949 10 900 q -39 1056 -39 997 l 36 1056 q 70 949 36 986 q 164 911 104 911 q 256 949 222 911 q 290 1056 290 986 l 365 1056 q 341 949 365 997 q 272 872 317 900 q 164 844 226 844 z "},"î":{"ha":328,"x_min":-83,"x_max":410,"o":"m 210 0 l 118 0 l 118 739 l 210 739 l 210 0 m 225 1056 l 410 849 l 324 849 l 164 1011 l 3 849 l -83 849 l 101 1056 l 225 1056 z "},"ï":{"ha":328,"x_min":-17,"x_max":342,"o":"m 210 0 l 118 0 l 118 739 l 210 739 l 210 0 z "},"ị":{"ha":328,"x_min":114,"x_max":213,"o":"m 210 0 l 118 0 l 118 739 l 210 739 l 210 0 m 213 881 l 114 881 l 114 1056 l 213 1056 l 213 881 z "},"ì":{"ha":328,"x_min":-90,"x_max":210,"o":"m 210 0 l 118 0 l 118 739 l 210 739 l 210 0 m 203 849 l 117 849 l -90 1056 l 35 1056 l 203 849 z "},"ī":{"ha":328,"x_min":-64,"x_max":390,"o":"m 210 0 l 118 0 l 118 739 l 210 739 l 210 0 m 390 911 l -64 911 l -64 981 l 390 981 l 390 911 z "},"į":{"ha":328,"x_min":8,"x_max":213,"o":"m 114 881 l 114 1056 l 213 1056 l 213 881 l 114 881 m 118 739 l 210 739 l 210 0 q 117 -63 147 -31 q 88 -135 88 -96 q 113 -190 88 -171 q 181 -210 139 -210 l 210 -210 l 210 -275 l 174 -275 q 53 -243 99 -275 q 8 -151 8 -211 q 37 -67 8 -103 q 118 0 65 -31 l 118 739 z "},"ĩ":{"ha":328,"x_min":-49,"x_max":375,"o":"m 210 0 l 118 0 l 118 739 l 210 739 l 210 0 m -49 886 q -8 977 -42 944 q 71 1010 26 1010 q 122 1001 97 1010 q 172 979 147 993 q 253 956 217 956 q 308 971 286 956 q 338 1014 329 986 l 375 1014 q 334 923 368 956 q 256 890 300 890 q 204 899 229 890 q 154 921 179 907 q 74 944 110 944 q 19 929 40 944 q -11 886 -3 914 l -49 886 z "},"j":{"ha":328,"x_min":-36,"x_max":213,"o":"m -36 -272 l -36 -201 l -3 -201 q 88 -174 58 -201 q 118 -82 118 -146 l 118 739 l 210 739 l 210 -82 q 155 -224 210 -176 q 6 -272 100 -272 l -36 -272 m 213 881 l 114 881 l 114 1056 l 213 1056 l 213 881 z "},"ȷ":{"ha":328,"x_min":-36,"x_max":210,"o":"m -36 -272 l -36 -201 l -3 -201 q 88 -174 58 -201 q 118 -82 118 -146 l 118 739 l 210 739 l 210 -82 q 155 -224 210 -176 q 6 -272 100 -272 l -36 -272 z "},"ĵ":{"ha":328,"x_min":-83,"x_max":410,"o":"m -36 -272 l -36 -201 l -3 -201 q 88 -174 58 -201 q 118 -82 118 -146 l 118 739 l 210 739 l 210 -82 q 155 -224 210 -176 q 6 -272 100 -272 l -36 -272 m 225 1056 l 410 849 l 324 849 l 164 1011 l 3 849 l -83 849 l 101 1056 l 225 1056 z "},"k":{"ha":726,"x_min":118,"x_max":724,"o":"m 318 413 l 724 0 l 608 0 l 210 404 l 210 0 l 118 0 l 118 1056 l 210 1056 l 210 419 l 590 739 l 708 739 l 318 413 z "},"ķ":{"ha":726,"x_min":118,"x_max":724,"o":"m 318 413 l 724 0 l 608 0 l 210 404 l 210 0 l 118 0 l 118 1056 l 210 1056 l 210 419 l 590 739 l 708 739 l 318 413 m 346 -271 l 346 -97 l 444 -97 l 444 -278 l 379 -389 l 317 -389 l 374 -271 l 346 -271 z "},"ĸ":{"ha":732,"x_min":118,"x_max":729,"o":"m 313 396 l 729 0 l 614 0 l 208 385 l 208 0 l 118 0 l 118 739 l 208 739 l 208 408 l 594 739 l 713 739 l 313 396 z "},"l":{"ha":328,"x_min":118,"x_max":210,"o":"m 210 0 l 118 0 l 118 1056 l 210 1056 l 210 0 z "},"ĺ":{"ha":328,"x_min":118,"x_max":433,"o":"m 210 0 l 118 0 l 118 1056 l 210 1056 l 210 0 m 219 1146 l 126 1146 l 303 1321 l 433 1321 l 219 1146 z "},"ľ":{"ha":328,"x_min":118,"x_max":394,"o":"m 210 0 l 118 0 l 118 1056 l 210 1056 l 210 0 m 356 806 l 286 806 l 308 1056 l 394 1056 l 356 806 z "},"ļ":{"ha":328,"x_min":85,"x_max":213,"o":"m 210 0 l 118 0 l 118 1056 l 210 1056 l 210 0 m 114 -271 l 114 -97 l 213 -97 l 213 -278 l 147 -389 l 85 -389 l 142 -271 l 114 -271 z "},"ŀ":{"ha":408,"x_min":118,"x_max":422,"o":"m 210 0 l 118 0 l 118 1056 l 210 1056 l 210 0 m 422 465 l 314 465 l 314 628 l 422 628 l 422 465 z "},"ł":{"ha":386,"x_min":42,"x_max":361,"o":"m 239 603 l 361 682 l 361 596 l 239 517 l 239 0 l 147 0 l 147 457 l 42 388 l 42 474 l 147 543 l 147 1056 l 239 1056 l 239 603 z "},"m":{"ha":1269,"x_min":118,"x_max":1161,"o":"m 910 754 q 1042 718 985 754 q 1130 615 1099 682 q 1161 461 1161 549 l 1161 458 l 1161 0 l 1069 0 l 1069 443 l 1069 446 q 1046 576 1069 522 q 978 657 1022 629 q 876 685 935 685 q 736 622 788 685 q 685 444 685 560 l 685 0 l 593 0 l 593 443 l 593 446 q 542 623 593 561 q 401 685 490 685 q 261 622 313 685 q 210 444 210 560 l 210 0 l 118 0 l 118 739 l 210 739 l 210 586 q 295 708 238 661 q 435 754 353 754 q 544 728 496 754 q 625 660 593 703 q 672 564 657 617 q 719 657 688 614 q 799 727 751 700 q 910 754 847 754 z "},"n":{"ha":818,"x_min":118,"x_max":710,"o":"m 447 754 q 585 717 525 754 q 677 614 644 681 q 710 461 710 547 l 710 458 l 710 0 l 618 0 l 618 443 l 618 446 q 592 577 618 524 q 520 658 567 631 q 414 685 474 685 q 308 658 354 685 q 235 576 261 631 q 210 444 210 522 l 210 0 l 118 0 l 118 739 l 210 739 l 210 586 q 299 708 238 661 q 447 754 360 754 z "},"ń":{"ha":818,"x_min":118,"x_max":710,"o":"m 447 754 q 585 717 525 754 q 677 614 644 681 q 710 461 710 547 l 710 458 l 710 0 l 618 0 l 618 443 l 618 446 q 592 577 618 524 q 520 658 567 631 q 414 685 474 685 q 308 658 354 685 q 235 576 261 631 q 210 444 210 522 l 210 0 l 118 0 l 118 739 l 210 739 l 210 586 q 299 708 238 661 q 447 754 360 754 m 443 849 l 357 849 l 525 1056 l 650 1056 l 443 849 z "},"ň":{"ha":818,"x_min":118,"x_max":710,"o":"m 447 754 q 585 717 525 754 q 677 614 644 681 q 710 461 710 547 l 710 458 l 710 0 l 618 0 l 618 443 l 618 446 q 592 577 618 524 q 520 658 567 631 q 414 685 474 685 q 308 658 354 685 q 235 576 261 631 q 210 444 210 522 l 210 0 l 118 0 l 118 739 l 210 739 l 210 586 q 299 708 238 661 q 447 754 360 754 m 418 893 l 578 1056 l 664 1056 l 479 849 l 356 849 l 171 1056 l 257 1056 l 418 893 z "},"ņ":{"ha":818,"x_min":118,"x_max":710,"o":"m 447 754 q 585 717 525 754 q 677 614 644 681 q 710 461 710 547 l 710 458 l 710 0 l 618 0 l 618 443 l 618 446 q 592 577 618 524 q 520 658 567 631 q 414 685 474 685 q 308 658 354 685 q 235 576 261 631 q 210 444 210 522 l 210 0 l 118 0 l 118 739 l 210 739 l 210 586 q 299 708 238 661 q 447 754 360 754 m 364 -271 l 364 -97 l 463 -97 l 463 -278 l 397 -389 l 335 -389 l 392 -271 l 364 -271 z "},"ŋ":{"ha":818,"x_min":118,"x_max":710,"o":"m 447 754 q 585 717 525 754 q 677 614 644 681 q 710 461 710 547 l 710 458 l 710 0 l 618 0 l 618 443 l 618 446 q 592 577 618 524 q 520 658 567 631 q 414 685 474 685 q 308 658 354 685 q 235 576 261 631 q 210 444 210 522 l 210 0 l 118 0 l 118 739 l 210 739 l 210 586 q 299 708 238 661 q 447 754 360 754 m 464 -272 l 464 -201 l 497 -201 q 588 -174 558 -201 q 618 -82 618 -146 l 618 0 l 710 0 l 710 -82 q 655 -224 710 -176 q 506 -272 600 -272 l 464 -272 z "},"ɲ":{"ha":818,"x_min":-36,"x_max":710,"o":"m 447 754 q 585 717 525 754 q 677 614 644 681 q 710 461 710 547 l 710 458 l 710 0 l 618 0 l 618 443 l 618 446 q 592 577 618 524 q 520 658 567 631 q 414 685 474 685 q 308 658 354 685 q 235 576 261 631 q 210 444 210 522 l 210 0 l 118 0 l 118 739 l 210 739 l 210 586 q 299 708 238 661 q 447 754 360 754 m -36 -272 l -36 -201 l -3 -201 q 88 -174 58 -201 q 118 -82 118 -146 l 118 0 l 210 0 l 210 -82 q 155 -224 210 -176 q 6 -272 100 -272 l -36 -272 z "},"ñ":{"ha":818,"x_min":118,"x_max":710,"o":"m 447 754 q 585 717 525 754 q 677 614 644 681 q 710 461 710 547 l 710 458 l 710 0 l 618 0 l 618 443 l 618 446 q 592 577 618 524 q 520 658 567 631 q 414 685 474 685 q 308 658 354 685 q 235 576 261 631 q 210 444 210 522 l 210 0 l 118 0 l 118 739 l 210 739 l 210 586 q 299 708 238 661 q 447 754 360 754 m 206 886 q 247 977 213 944 q 325 1010 281 1010 q 376 1001 351 1010 q 426 979 401 993 q 507 956 471 956 q 562 971 540 956 q 592 1014 583 986 l 629 1014 q 588 923 622 956 q 510 890 554 890 q 458 899 483 890 q 408 921 433 907 q 328 944 364 944 q 273 929 294 944 q 243 886 251 914 l 206 886 z "},"o":{"ha":838,"x_min":68,"x_max":771,"o":"m 419 -15 q 235 33 315 -15 q 112 168 156 81 q 68 369 68 256 q 112 571 68 483 q 235 706 156 658 q 419 754 315 754 q 603 706 524 754 q 727 571 683 658 q 771 369 771 483 q 727 168 771 256 q 603 33 683 81 q 419 -15 524 -15 m 419 54 q 556 94 499 54 q 645 205 614 133 q 676 369 676 276 q 645 534 676 463 q 556 645 614 606 q 419 685 499 685 q 282 645 340 685 q 192 534 224 606 q 161 369 161 463 q 192 205 161 276 q 282 94 224 133 q 419 54 340 54 z "},"ó":{"ha":838,"x_min":68,"x_max":771,"o":"m 419 -15 q 235 33 315 -15 q 112 168 156 81 q 68 369 68 256 q 112 571 68 483 q 235 706 156 658 q 419 754 315 754 q 603 706 524 754 q 727 571 683 658 q 771 369 771 483 q 727 168 771 256 q 603 33 683 81 q 419 -15 524 -15 m 419 54 q 556 94 499 54 q 645 205 614 133 q 676 369 676 276 q 645 534 676 463 q 556 645 614 606 q 419 685 499 685 q 282 645 340 685 q 192 534 224 606 q 161 369 161 463 q 192 205 161 276 q 282 94 224 133 q 419 54 340 54 m 444 849 l 358 849 l 526 1056 l 651 1056 l 444 849 z "},"ŏ":{"ha":838,"x_min":68,"x_max":771,"o":"m 419 -15 q 235 33 315 -15 q 112 168 156 81 q 68 369 68 256 q 112 571 68 483 q 235 706 156 658 q 419 754 315 754 q 603 706 524 754 q 727 571 683 658 q 771 369 771 483 q 727 168 771 256 q 603 33 683 81 q 419 -15 524 -15 m 419 54 q 556 94 499 54 q 645 205 614 133 q 676 369 676 276 q 645 534 676 463 q 556 645 614 606 q 419 685 499 685 q 282 645 340 685 q 192 534 224 606 q 161 369 161 463 q 192 205 161 276 q 282 94 224 133 q 419 54 340 54 m 421 844 q 313 872 358 844 q 242 949 267 900 q 218 1056 218 997 l 293 1056 q 327 949 293 986 q 421 911 361 911 q 513 949 479 911 q 547 1056 547 986 l 622 1056 q 598 949 622 997 q 528 872 574 900 q 421 844 483 844 z "},"ô":{"ha":838,"x_min":68,"x_max":771,"o":"m 419 -15 q 235 33 315 -15 q 112 168 156 81 q 68 369 68 256 q 112 571 68 483 q 235 706 156 658 q 419 754 315 754 q 603 706 524 754 q 727 571 683 658 q 771 369 771 483 q 727 168 771 256 q 603 33 683 81 q 419 -15 524 -15 m 419 54 q 556 94 499 54 q 645 205 614 133 q 676 369 676 276 q 645 534 676 463 q 556 645 614 606 q 419 685 499 685 q 282 645 340 685 q 192 534 224 606 q 161 369 161 463 q 192 205 161 276 q 282 94 224 133 q 419 54 340 54 m 482 1056 l 667 849 l 581 849 l 421 1011 l 260 849 l 174 849 l 358 1056 l 482 1056 z "},"ö":{"ha":838,"x_min":68,"x_max":771,"o":"m 419 -15 q 235 33 315 -15 q 112 168 156 81 q 68 369 68 256 q 112 571 68 483 q 235 706 156 658 q 419 754 315 754 q 603 706 524 754 q 727 571 683 658 q 771 369 771 483 q 727 168 771 256 q 603 33 683 81 q 419 -15 524 -15 m 419 54 q 556 94 499 54 q 645 205 614 133 q 676 369 676 276 q 645 534 676 463 q 556 645 614 606 q 419 685 499 685 q 282 645 340 685 q 192 534 224 606 q 161 369 161 463 q 192 205 161 276 q 282 94 224 133 q 419 54 340 54 z "},"ȯ":{"ha":838,"x_min":68,"x_max":771,"o":"m 419 -15 q 235 33 315 -15 q 112 168 156 81 q 68 369 68 256 q 112 571 68 483 q 235 706 156 658 q 419 754 315 754 q 603 706 524 754 q 727 571 683 658 q 771 369 771 483 q 727 168 771 256 q 603 33 683 81 q 419 -15 524 -15 m 419 54 q 556 94 499 54 q 645 205 614 133 q 676 369 676 276 q 645 534 676 463 q 556 645 614 606 q 419 685 499 685 q 282 645 340 685 q 192 534 224 606 q 161 369 161 463 q 192 205 161 276 q 282 94 224 133 q 419 54 340 54 m 469 881 l 371 881 l 371 1056 l 469 1056 l 469 881 z "},"ọ":{"ha":838,"x_min":68,"x_max":771,"o":"m 419 -15 q 235 33 315 -15 q 112 168 156 81 q 68 369 68 256 q 112 571 68 483 q 235 706 156 658 q 419 754 315 754 q 603 706 524 754 q 727 571 683 658 q 771 369 771 483 q 727 168 771 256 q 603 33 683 81 q 419 -15 524 -15 m 419 54 q 556 94 499 54 q 645 205 614 133 q 676 369 676 276 q 645 534 676 463 q 556 645 614 606 q 419 685 499 685 q 282 645 340 685 q 192 534 224 606 q 161 369 161 463 q 192 205 161 276 q 282 94 224 133 q 419 54 340 54 z "},"ò":{"ha":838,"x_min":68,"x_max":771,"o":"m 419 -15 q 235 33 315 -15 q 112 168 156 81 q 68 369 68 256 q 112 571 68 483 q 235 706 156 658 q 419 754 315 754 q 603 706 524 754 q 727 571 683 658 q 771 369 771 483 q 727 168 771 256 q 603 33 683 81 q 419 -15 524 -15 m 419 54 q 556 94 499 54 q 645 205 614 133 q 676 369 676 276 q 645 534 676 463 q 556 645 614 606 q 419 685 499 685 q 282 645 340 685 q 192 534 224 606 q 161 369 161 463 q 192 205 161 276 q 282 94 224 133 q 419 54 340 54 m 481 849 l 394 849 l 188 1056 l 313 1056 l 481 849 z "},"ő":{"ha":838,"x_min":68,"x_max":783,"o":"m 419 -15 q 235 33 315 -15 q 112 168 156 81 q 68 369 68 256 q 112 571 68 483 q 235 706 156 658 q 419 754 315 754 q 603 706 524 754 q 727 571 683 658 q 771 369 771 483 q 727 168 771 256 q 603 33 683 81 q 419 -15 524 -15 m 419 54 q 556 94 499 54 q 645 205 614 133 q 676 369 676 276 q 645 534 676 463 q 556 645 614 606 q 419 685 499 685 q 282 645 340 685 q 192 534 224 606 q 161 369 161 463 q 192 205 161 276 q 282 94 224 133 q 419 54 340 54 m 342 849 l 256 849 l 432 1056 l 556 1056 l 342 849 m 571 849 l 483 849 l 661 1056 l 783 1056 l 571 849 z "},"ō":{"ha":838,"x_min":68,"x_max":771,"o":"m 419 -15 q 235 33 315 -15 q 112 168 156 81 q 68 369 68 256 q 112 571 68 483 q 235 706 156 658 q 419 754 315 754 q 603 706 524 754 q 727 571 683 658 q 771 369 771 483 q 727 168 771 256 q 603 33 683 81 q 419 -15 524 -15 m 419 54 q 556 94 499 54 q 645 205 614 133 q 676 369 676 276 q 645 534 676 463 q 556 645 614 606 q 419 685 499 685 q 282 645 340 685 q 192 534 224 606 q 161 369 161 463 q 192 205 161 276 q 282 94 224 133 q 419 54 340 54 m 646 911 l 192 911 l 192 981 l 646 981 l 646 911 z "},"ǫ":{"ha":838,"x_min":68,"x_max":771,"o":"m 614 39 q 525 -53 550 -15 q 500 -131 500 -90 q 526 -190 500 -171 q 593 -210 551 -210 l 622 -210 l 622 -275 l 585 -275 q 465 -243 511 -275 q 419 -151 419 -211 q 438 -77 419 -111 q 494 -8 456 -43 q 419 -15 456 -15 q 235 33 315 -15 q 112 168 156 81 q 68 369 68 256 q 112 571 68 483 q 235 706 156 658 q 419 754 315 754 q 603 706 524 754 q 727 571 683 658 q 771 369 771 483 q 730 173 771 258 q 614 39 689 88 m 161 369 q 192 205 161 276 q 282 94 224 133 q 419 54 340 54 q 556 94 499 54 q 645 205 614 133 q 676 369 676 276 q 645 534 676 463 q 556 645 614 606 q 419 685 499 685 q 282 645 340 685 q 192 534 224 606 q 161 369 161 463 z "},"ø":{"ha":838,"x_min":18,"x_max":822,"o":"m 822 739 l 703 613 q 753 502 736 564 q 771 369 771 440 q 727 168 771 256 q 603 33 683 81 q 419 -15 524 -15 q 293 6 351 -15 q 189 67 235 26 l 126 0 l 18 0 l 138 126 q 86 237 104 175 q 68 369 68 299 q 112 571 68 483 q 235 706 156 658 q 419 754 315 754 q 547 733 489 754 q 650 672 606 713 l 714 739 l 822 739 m 161 369 q 199 192 161 265 l 594 613 q 517 666 561 647 q 419 685 472 685 q 282 645 340 685 q 192 534 224 606 q 161 369 161 463 m 676 369 q 640 546 676 471 l 244 125 q 419 54 315 54 q 556 94 499 54 q 645 205 614 133 q 676 369 676 276 z "},"ǿ":{"ha":838,"x_min":18,"x_max":822,"o":"m 822 739 l 703 613 q 753 502 736 564 q 771 369 771 440 q 727 168 771 256 q 603 33 683 81 q 419 -15 524 -15 q 293 6 351 -15 q 189 67 235 26 l 126 0 l 18 0 l 138 126 q 86 237 104 175 q 68 369 68 299 q 112 571 68 483 q 235 706 156 658 q 419 754 315 754 q 547 733 489 754 q 650 672 606 713 l 714 739 l 822 739 m 161 369 q 199 192 161 265 l 594 613 q 517 666 561 647 q 419 685 472 685 q 282 645 340 685 q 192 534 224 606 q 161 369 161 463 m 676 369 q 640 546 676 471 l 244 125 q 419 54 315 54 q 556 94 499 54 q 645 205 614 133 q 676 369 676 276 m 444 849 l 358 849 l 526 1056 l 651 1056 l 444 849 z "},"õ":{"ha":838,"x_min":68,"x_max":771,"o":"m 419 -15 q 235 33 315 -15 q 112 168 156 81 q 68 369 68 256 q 112 571 68 483 q 235 706 156 658 q 419 754 315 754 q 603 706 524 754 q 727 571 683 658 q 771 369 771 483 q 727 168 771 256 q 603 33 683 81 q 419 -15 524 -15 m 419 54 q 556 94 499 54 q 645 205 614 133 q 676 369 676 276 q 645 534 676 463 q 556 645 614 606 q 419 685 499 685 q 282 645 340 685 q 192 534 224 606 q 161 369 161 463 q 192 205 161 276 q 282 94 224 133 q 419 54 340 54 m 207 886 q 248 977 214 944 q 326 1010 282 1010 q 378 1001 353 1010 q 428 979 403 993 q 508 956 472 956 q 563 971 542 956 q 593 1014 585 986 l 631 1014 q 590 923 624 956 q 511 890 556 890 q 460 899 485 890 q 410 921 435 907 q 329 944 365 944 q 274 929 296 944 q 244 886 253 914 l 207 886 z "},"œ":{"ha":1422,"x_min":68,"x_max":1356,"o":"m 1354 346 l 763 346 q 799 188 767 254 q 888 88 832 122 q 1018 54 944 54 q 1247 217 1194 54 l 1340 217 q 1224 43 1308 101 q 1018 -15 1140 -15 q 838 36 915 -15 q 721 175 761 88 q 600 36 678 88 q 419 -15 522 -15 q 235 33 315 -15 q 112 168 156 81 q 68 369 68 256 q 112 571 68 483 q 235 706 156 658 q 419 754 315 754 q 601 703 522 754 q 721 564 679 651 q 838 703 763 651 q 1014 754 914 754 q 1189 708 1111 754 q 1311 578 1267 663 q 1356 382 1356 493 l 1354 346 m 419 54 q 556 94 499 54 q 645 205 614 133 q 676 369 676 276 q 645 534 676 463 q 556 645 614 606 q 419 685 499 685 q 282 645 340 685 q 192 534 224 606 q 161 369 161 463 q 192 205 161 276 q 282 94 224 133 q 419 54 340 54 m 1014 685 q 890 653 944 685 q 803 560 836 621 q 764 417 771 500 l 1263 417 q 1226 554 1258 493 q 1140 650 1194 615 q 1014 685 1085 685 z "},"p":{"ha":883,"x_min":118,"x_max":815,"o":"m 490 754 q 657 706 583 754 q 773 569 731 657 q 815 369 815 482 q 774 169 815 257 q 658 33 732 82 q 490 -15 583 -15 q 372 10 428 -15 q 274 81 315 36 q 210 183 232 126 l 210 -272 l 118 -272 l 118 739 l 210 739 l 210 546 q 268 650 229 603 q 364 726 307 697 q 490 754 421 754 m 464 54 q 601 94 543 54 q 690 205 658 133 q 721 369 721 276 q 690 534 721 463 q 601 645 658 606 q 464 685 543 685 q 326 645 385 685 q 237 534 268 606 q 206 369 206 463 q 237 205 206 276 q 326 94 268 133 q 464 54 385 54 z "},"þ":{"ha":883,"x_min":118,"x_max":815,"o":"m 490 754 q 657 706 583 754 q 773 569 731 657 q 815 369 815 482 q 774 169 815 257 q 658 33 732 82 q 490 -15 583 -15 q 372 10 428 -15 q 274 81 315 36 q 210 183 232 126 l 210 -272 l 118 -272 l 118 1056 l 210 1056 l 210 546 q 268 650 229 603 q 364 726 307 697 q 490 754 421 754 m 464 54 q 601 94 543 54 q 690 205 658 133 q 721 369 721 276 q 690 534 721 463 q 601 645 658 606 q 464 685 543 685 q 326 645 385 685 q 237 534 268 606 q 206 369 206 463 q 237 205 206 276 q 326 94 268 133 q 464 54 385 54 z "},"q":{"ha":883,"x_min":68,"x_max":765,"o":"m 674 739 l 765 739 l 765 -272 l 674 -272 l 674 183 q 610 81 651 126 q 512 10 568 36 q 393 -15 456 -15 q 226 33 300 -15 q 110 169 151 82 q 68 369 68 257 q 110 569 68 482 q 226 706 153 657 q 393 754 300 754 q 519 726 463 754 q 615 650 576 697 q 674 546 654 603 l 674 739 m 419 54 q 557 94 499 54 q 647 205 615 133 q 678 369 678 276 q 647 534 678 463 q 557 645 615 606 q 419 685 499 685 q 283 645 340 685 q 194 534 225 606 q 163 369 163 463 q 194 205 163 276 q 283 94 225 133 q 419 54 340 54 z "},"r":{"ha":493,"x_min":118,"x_max":465,"o":"m 210 579 q 465 754 269 754 l 465 664 l 439 664 q 210 450 210 664 l 210 0 l 118 0 l 118 739 l 210 739 l 210 579 z "},"ŕ":{"ha":493,"x_min":118,"x_max":542,"o":"m 210 579 q 465 754 269 754 l 465 664 l 439 664 q 210 450 210 664 l 210 0 l 118 0 l 118 739 l 210 739 l 210 579 m 335 849 l 249 849 l 417 1056 l 542 1056 l 335 849 z "},"ř":{"ha":493,"x_min":63,"x_max":556,"o":"m 210 579 q 465 754 269 754 l 465 664 l 439 664 q 210 450 210 664 l 210 0 l 118 0 l 118 739 l 210 739 l 210 579 m 310 893 l 469 1056 l 556 1056 l 371 849 l 247 849 l 63 1056 l 149 1056 l 310 893 z "},"ŗ":{"ha":493,"x_min":85,"x_max":465,"o":"m 210 579 q 465 754 269 754 l 465 664 l 439 664 q 210 450 210 664 l 210 0 l 118 0 l 118 739 l 210 739 l 210 579 m 114 -271 l 114 -97 l 213 -97 l 213 -278 l 147 -389 l 85 -389 l 142 -271 l 114 -271 z "},"s":{"ha":714,"x_min":57,"x_max":651,"o":"m 361 -15 q 216 12 281 -15 q 110 91 151 39 q 57 215 68 143 l 151 215 q 226 94 168 133 q 361 54 283 54 q 468 74 424 54 q 536 126 513 93 q 560 197 560 158 q 542 265 560 239 q 486 308 524 292 q 383 339 449 325 l 297 357 q 135 424 193 379 q 76 549 76 468 q 113 655 76 608 q 213 728 150 701 q 353 754 276 754 q 481 731 421 754 q 581 664 540 708 q 636 556 622 619 l 542 556 q 504 625 532 596 q 437 669 476 654 q 353 685 397 685 q 262 669 304 685 q 194 625 219 654 q 168 557 168 596 q 188 497 168 519 q 244 460 208 474 q 340 433 281 446 l 426 415 q 597 342 543 390 q 651 207 651 293 q 615 91 651 142 q 511 13 578 40 q 361 -15 444 -15 z "},"ś":{"ha":714,"x_min":57,"x_max":651,"o":"m 361 -15 q 216 12 281 -15 q 110 91 151 39 q 57 215 68 143 l 151 215 q 226 94 168 133 q 361 54 283 54 q 468 74 424 54 q 536 126 513 93 q 560 197 560 158 q 542 265 560 239 q 486 308 524 292 q 383 339 449 325 l 297 357 q 135 424 193 379 q 76 549 76 468 q 113 655 76 608 q 213 728 150 701 q 353 754 276 754 q 481 731 421 754 q 581 664 540 708 q 636 556 622 619 l 542 556 q 504 625 532 596 q 437 669 476 654 q 353 685 397 685 q 262 669 304 685 q 194 625 219 654 q 168 557 168 596 q 188 497 168 519 q 244 460 208 474 q 340 433 281 446 l 426 415 q 597 342 543 390 q 651 207 651 293 q 615 91 651 142 q 511 13 578 40 q 361 -15 444 -15 m 375 849 l 289 849 l 457 1056 l 582 1056 l 375 849 z "},"š":{"ha":714,"x_min":57,"x_max":651,"o":"m 361 -15 q 216 12 281 -15 q 110 91 151 39 q 57 215 68 143 l 151 215 q 226 94 168 133 q 361 54 283 54 q 468 74 424 54 q 536 126 513 93 q 560 197 560 158 q 542 265 560 239 q 486 308 524 292 q 383 339 449 325 l 297 357 q 135 424 193 379 q 76 549 76 468 q 113 655 76 608 q 213 728 150 701 q 353 754 276 754 q 481 731 421 754 q 581 664 540 708 q 636 556 622 619 l 542 556 q 504 625 532 596 q 437 669 476 654 q 353 685 397 685 q 262 669 304 685 q 194 625 219 654 q 168 557 168 596 q 188 497 168 519 q 244 460 208 474 q 340 433 281 446 l 426 415 q 597 342 543 390 q 651 207 651 293 q 615 91 651 142 q 511 13 578 40 q 361 -15 444 -15 m 350 893 l 510 1056 l 596 1056 l 411 849 l 288 849 l 103 1056 l 189 1056 l 350 893 z "},"ş":{"ha":714,"x_min":57,"x_max":651,"o":"m 651 207 q 616 94 651 143 q 517 15 581 44 q 374 -15 454 -14 l 374 -56 q 453 -90 422 -60 q 483 -165 483 -119 q 449 -244 483 -214 q 356 -275 414 -275 l 296 -275 l 296 -219 l 349 -219 q 401 -204 382 -219 q 419 -160 419 -189 q 400 -117 419 -133 q 353 -101 381 -101 l 315 -101 l 315 -12 q 141 58 210 -1 q 57 215 72 117 l 151 215 q 226 94 168 133 q 361 54 283 54 q 468 74 424 54 q 536 126 513 93 q 560 197 560 158 q 542 265 560 239 q 486 308 524 292 q 383 339 449 325 l 297 357 q 135 424 193 379 q 76 549 76 468 q 113 655 76 608 q 213 728 150 701 q 353 754 276 754 q 481 731 421 754 q 581 664 540 708 q 636 556 622 619 l 542 556 q 504 625 532 596 q 437 669 476 654 q 353 685 397 685 q 262 669 304 685 q 194 625 219 654 q 168 557 168 596 q 188 497 168 519 q 244 460 208 474 q 340 433 281 446 l 426 415 q 597 342 543 390 q 651 207 651 293 z "},"ŝ":{"ha":714,"x_min":57,"x_max":651,"o":"m 361 -15 q 216 12 281 -15 q 110 91 151 39 q 57 215 68 143 l 151 215 q 226 94 168 133 q 361 54 283 54 q 468 74 424 54 q 536 126 513 93 q 560 197 560 158 q 542 265 560 239 q 486 308 524 292 q 383 339 449 325 l 297 357 q 135 424 193 379 q 76 549 76 468 q 113 655 76 608 q 213 728 150 701 q 353 754 276 754 q 481 731 421 754 q 581 664 540 708 q 636 556 622 619 l 542 556 q 504 625 532 596 q 437 669 476 654 q 353 685 397 685 q 262 669 304 685 q 194 625 219 654 q 168 557 168 596 q 188 497 168 519 q 244 460 208 474 q 340 433 281 446 l 426 415 q 597 342 543 390 q 651 207 651 293 q 615 91 651 142 q 511 13 578 40 q 361 -15 444 -15 m 413 1056 l 597 849 l 511 849 l 351 1011 l 190 849 l 104 849 l 289 1056 l 413 1056 z "},"ș":{"ha":714,"x_min":57,"x_max":651,"o":"m 361 -15 q 216 12 281 -15 q 110 91 151 39 q 57 215 68 143 l 151 215 q 226 94 168 133 q 361 54 283 54 q 468 74 424 54 q 536 126 513 93 q 560 197 560 158 q 542 265 560 239 q 486 308 524 292 q 383 339 449 325 l 297 357 q 135 424 193 379 q 76 549 76 468 q 113 655 76 608 q 213 728 150 701 q 353 754 276 754 q 481 731 421 754 q 581 664 540 708 q 636 556 622 619 l 542 556 q 504 625 532 596 q 437 669 476 654 q 353 685 397 685 q 262 669 304 685 q 194 625 219 654 q 168 557 168 596 q 188 497 168 519 q 244 460 208 474 q 340 433 281 446 l 426 415 q 597 342 543 390 q 651 207 651 293 q 615 91 651 142 q 511 13 578 40 q 361 -15 444 -15 m 321 -271 l 321 -97 l 419 -97 l 419 -278 l 354 -389 l 292 -389 l 349 -271 l 321 -271 z "},"ß":{"ha":850,"x_min":118,"x_max":783,"o":"m 511 600 q 644 559 582 593 q 744 461 706 525 q 783 307 783 397 q 748 138 783 211 q 646 25 713 65 q 489 -15 579 -15 q 401 -8 442 -15 q 322 14 361 -1 l 322 86 q 394 62 361 69 q 469 54 428 54 q 591 87 542 54 q 665 178 640 119 q 689 313 689 236 q 656 449 689 392 q 561 535 624 506 q 411 565 499 565 l 394 565 l 394 635 l 413 635 q 579 685 525 635 q 633 822 633 735 q 608 921 633 881 q 536 981 582 961 q 433 1001 490 1001 q 265 928 322 1001 q 208 732 208 856 l 208 0 l 118 0 l 118 725 q 157 911 118 833 q 267 1030 196 989 q 433 1071 338 1071 q 586 1040 519 1071 q 690 953 653 1010 q 726 825 726 897 q 669 675 726 731 q 511 600 611 619 z "},"t":{"ha":508,"x_min":17,"x_max":479,"o":"m 479 71 l 479 0 l 386 0 q 237 47 292 0 q 182 188 182 94 l 182 190 l 182 668 l 17 668 l 17 739 l 182 739 l 182 914 l 274 914 l 274 739 l 478 739 l 478 668 l 274 668 l 274 190 l 274 188 q 303 98 274 125 q 394 71 333 71 l 479 71 z "},"ŧ":{"ha":508,"x_min":17,"x_max":479,"o":"m 479 71 l 479 0 l 386 0 q 237 47 292 0 q 182 188 182 94 l 182 190 l 182 411 l 65 411 l 65 482 l 182 482 l 182 668 l 17 668 l 17 739 l 182 739 l 182 914 l 274 914 l 274 739 l 478 739 l 478 668 l 274 668 l 274 482 l 394 482 l 394 411 l 274 411 l 274 190 l 274 188 q 303 98 274 125 q 394 71 333 71 l 479 71 z "},"ť":{"ha":508,"x_min":17,"x_max":479,"o":"m 479 71 l 479 0 l 386 0 q 237 47 292 0 q 182 188 182 94 l 182 190 l 182 668 l 17 668 l 17 739 l 182 739 l 182 914 l 274 914 l 274 739 l 478 739 l 478 668 l 274 668 l 274 190 l 274 188 q 303 98 274 125 q 394 71 333 71 l 479 71 m 419 806 l 350 806 l 372 1056 l 458 1056 l 419 806 z "},"ţ":{"ha":508,"x_min":17,"x_max":479,"o":"z "},"ț":{"ha":508,"x_min":17,"x_max":479,"o":"m 479 71 l 479 0 l 386 0 q 237 47 292 0 q 182 188 182 94 l 182 190 l 182 668 l 17 668 l 17 739 l 182 739 l 182 914 l 274 914 l 274 739 l 478 739 l 478 668 l 274 668 l 274 190 l 274 188 q 303 98 274 125 q 394 71 333 71 l 479 71 m 258 -271 l 258 -97 l 357 -97 l 357 -278 l 292 -389 l 229 -389 l 286 -271 l 258 -271 z "},"u":{"ha":811,"x_min":108,"x_max":693,"o":"m 601 739 l 693 739 l 693 0 l 601 0 l 601 151 q 513 31 572 78 q 368 -15 453 -15 q 233 22 292 -15 q 141 125 174 58 q 108 278 108 192 l 108 281 l 108 739 l 200 739 l 200 296 l 200 293 q 226 162 200 215 q 297 81 251 108 q 401 54 342 54 q 506 81 461 54 q 576 163 551 108 q 601 294 601 217 l 601 739 z "},"ú":{"ha":811,"x_min":108,"x_max":693,"o":"m 601 739 l 693 739 l 693 0 l 601 0 l 601 151 q 513 31 572 78 q 368 -15 453 -15 q 233 22 292 -15 q 141 125 174 58 q 108 278 108 192 l 108 281 l 108 739 l 200 739 l 200 296 l 200 293 q 226 162 200 215 q 297 81 251 108 q 401 54 342 54 q 506 81 461 54 q 576 163 551 108 q 601 294 601 217 l 601 739 m 426 849 l 340 849 l 508 1056 l 633 1056 l 426 849 z "},"ŭ":{"ha":811,"x_min":108,"x_max":693,"o":"m 601 739 l 693 739 l 693 0 l 601 0 l 601 151 q 513 31 572 78 q 368 -15 453 -15 q 233 22 292 -15 q 141 125 174 58 q 108 278 108 192 l 108 281 l 108 739 l 200 739 l 200 296 l 200 293 q 226 162 200 215 q 297 81 251 108 q 401 54 342 54 q 506 81 461 54 q 576 163 551 108 q 601 294 601 217 l 601 739 m 401 844 q 293 872 339 844 q 223 949 247 900 q 199 1056 199 997 l 274 1056 q 308 949 274 986 q 401 911 342 911 q 494 949 460 911 q 528 1056 528 986 l 603 1056 q 578 949 603 997 q 509 872 554 900 q 401 844 464 844 z "},"û":{"ha":811,"x_min":108,"x_max":693,"o":"m 601 739 l 693 739 l 693 0 l 601 0 l 601 151 q 513 31 572 78 q 368 -15 453 -15 q 233 22 292 -15 q 141 125 174 58 q 108 278 108 192 l 108 281 l 108 739 l 200 739 l 200 296 l 200 293 q 226 162 200 215 q 297 81 251 108 q 401 54 342 54 q 506 81 461 54 q 576 163 551 108 q 601 294 601 217 l 601 739 m 463 1056 l 647 849 l 561 849 l 401 1011 l 240 849 l 154 849 l 339 1056 l 463 1056 z "},"ü":{"ha":811,"x_min":108,"x_max":693,"o":"m 601 739 l 693 739 l 693 0 l 601 0 l 601 151 q 513 31 572 78 q 368 -15 453 -15 q 233 22 292 -15 q 141 125 174 58 q 108 278 108 192 l 108 281 l 108 739 l 200 739 l 200 296 l 200 293 q 226 162 200 215 q 297 81 251 108 q 401 54 342 54 q 506 81 461 54 q 576 163 551 108 q 601 294 601 217 l 601 739 z "},"ụ":{"ha":811,"x_min":108,"x_max":693,"o":"m 601 739 l 693 739 l 693 0 l 601 0 l 601 151 q 513 31 572 78 q 368 -15 453 -15 q 233 22 292 -15 q 141 125 174 58 q 108 278 108 192 l 108 281 l 108 739 l 200 739 l 200 296 l 200 293 q 226 162 200 215 q 297 81 251 108 q 401 54 342 54 q 506 81 461 54 q 576 163 551 108 q 601 294 601 217 l 601 739 z "},"ù":{"ha":811,"x_min":108,"x_max":693,"o":"m 601 739 l 693 739 l 693 0 l 601 0 l 601 151 q 513 31 572 78 q 368 -15 453 -15 q 233 22 292 -15 q 141 125 174 58 q 108 278 108 192 l 108 281 l 108 739 l 200 739 l 200 296 l 200 293 q 226 162 200 215 q 297 81 251 108 q 401 54 342 54 q 506 81 461 54 q 576 163 551 108 q 601 294 601 217 l 601 739 m 463 849 l 376 849 l 169 1056 l 294 1056 l 463 849 z "},"ű":{"ha":811,"x_min":108,"x_max":764,"o":"m 601 739 l 693 739 l 693 0 l 601 0 l 601 151 q 513 31 572 78 q 368 -15 453 -15 q 233 22 292 -15 q 141 125 174 58 q 108 278 108 192 l 108 281 l 108 739 l 200 739 l 200 296 l 200 293 q 226 162 200 215 q 297 81 251 108 q 401 54 342 54 q 506 81 461 54 q 576 163 551 108 q 601 294 601 217 l 601 739 m 322 849 l 236 849 l 413 1056 l 536 1056 l 322 849 m 551 849 l 464 849 l 642 1056 l 764 1056 l 551 849 z "},"ū":{"ha":811,"x_min":108,"x_max":693,"o":"m 601 739 l 693 739 l 693 0 l 601 0 l 601 151 q 513 31 572 78 q 368 -15 453 -15 q 233 22 292 -15 q 141 125 174 58 q 108 278 108 192 l 108 281 l 108 739 l 200 739 l 200 296 l 200 293 q 226 162 200 215 q 297 81 251 108 q 401 54 342 54 q 506 81 461 54 q 576 163 551 108 q 601 294 601 217 l 601 739 m 628 911 l 174 911 l 174 981 l 628 981 l 628 911 z "},"ų":{"ha":811,"x_min":108,"x_max":693,"o":"m 693 0 q 601 -63 631 -31 q 571 -135 571 -96 q 597 -190 571 -171 q 664 -210 622 -210 l 693 -210 l 693 -275 l 657 -275 q 536 -243 582 -275 q 490 -151 490 -211 q 519 -67 490 -103 q 601 0 549 -32 l 601 151 q 513 31 572 78 q 368 -15 453 -15 q 233 22 292 -15 q 141 125 174 58 q 108 278 108 192 l 108 281 l 108 739 l 200 739 l 200 296 l 200 293 q 226 162 200 215 q 297 81 251 108 q 401 54 342 54 q 506 81 461 54 q 576 163 551 108 q 601 294 601 217 l 601 739 l 693 739 l 693 0 z "},"ů":{"ha":811,"x_min":108,"x_max":693,"o":"m 601 739 l 693 739 l 693 0 l 601 0 l 601 151 q 513 31 572 78 q 368 -15 453 -15 q 233 22 292 -15 q 141 125 174 58 q 108 278 108 192 l 108 281 l 108 739 l 200 739 l 200 296 l 200 293 q 226 162 200 215 q 297 81 251 108 q 401 54 342 54 q 506 81 461 54 q 576 163 551 108 q 601 294 601 217 l 601 739 m 401 844 q 332 863 364 844 q 281 914 300 882 q 263 985 263 946 q 281 1053 263 1022 q 332 1103 300 1085 q 401 1121 364 1121 q 471 1103 439 1121 q 522 1053 503 1085 q 540 985 540 1022 q 522 914 540 946 q 471 863 503 882 q 401 844 439 844 m 401 906 q 455 929 432 906 q 478 985 478 953 q 456 1038 478 1015 q 401 1060 433 1060 q 347 1038 369 1060 q 324 985 324 1015 q 347 929 324 953 q 401 906 369 906 z "},"ũ":{"ha":811,"x_min":108,"x_max":693,"o":"m 601 739 l 693 739 l 693 0 l 601 0 l 601 151 q 513 31 572 78 q 368 -15 453 -15 q 233 22 292 -15 q 141 125 174 58 q 108 278 108 192 l 108 281 l 108 739 l 200 739 l 200 296 l 200 293 q 226 162 200 215 q 297 81 251 108 q 401 54 342 54 q 506 81 461 54 q 576 163 551 108 q 601 294 601 217 l 601 739 m 189 886 q 230 977 196 944 q 308 1010 264 1010 q 360 1001 335 1010 q 410 979 385 993 q 490 956 454 956 q 545 971 524 956 q 575 1014 567 986 l 613 1014 q 572 923 606 956 q 493 890 538 890 q 442 899 467 890 q 392 921 417 907 q 311 944 347 944 q 256 929 278 944 q 226 886 235 914 l 189 886 z "},"v":{"ha":783,"x_min":21,"x_max":763,"o":"m 388 0 l 296 0 l 21 739 l 115 739 l 388 0 m 488 0 l 396 0 l 668 739 l 763 739 l 488 0 z "},"w":{"ha":1225,"x_min":31,"x_max":1194,"o":"m 335 0 l 244 0 l 31 739 l 121 739 l 335 0 m 433 0 l 344 0 l 519 739 l 608 739 l 433 0 m 881 0 l 792 0 l 617 739 l 706 739 l 881 0 m 981 0 l 890 0 l 1104 739 l 1194 739 l 981 0 z "},"ẃ":{"ha":1225,"x_min":31,"x_max":1194,"o":"m 335 0 l 244 0 l 31 739 l 121 739 l 335 0 m 433 0 l 344 0 l 519 739 l 608 739 l 433 0 m 881 0 l 792 0 l 617 739 l 706 739 l 881 0 m 981 0 l 890 0 l 1104 739 l 1194 739 l 981 0 m 661 849 l 575 849 l 743 1056 l 868 1056 l 661 849 z "},"ŵ":{"ha":1225,"x_min":31,"x_max":1194,"o":"m 335 0 l 244 0 l 31 739 l 121 739 l 335 0 m 433 0 l 344 0 l 519 739 l 608 739 l 433 0 m 881 0 l 792 0 l 617 739 l 706 739 l 881 0 m 981 0 l 890 0 l 1104 739 l 1194 739 l 981 0 m 674 1056 l 858 849 l 772 849 l 613 1011 l 451 849 l 365 849 l 550 1056 l 674 1056 z "},"ẅ":{"ha":1225,"x_min":31,"x_max":1194,"o":"m 335 0 l 244 0 l 31 739 l 121 739 l 335 0 m 433 0 l 344 0 l 519 739 l 608 739 l 433 0 m 881 0 l 792 0 l 617 739 l 706 739 l 881 0 m 981 0 l 890 0 l 1104 739 l 1194 739 l 981 0 z "},"ẁ":{"ha":1225,"x_min":31,"x_max":1194,"o":"m 335 0 l 244 0 l 31 739 l 121 739 l 335 0 m 433 0 l 344 0 l 519 739 l 608 739 l 433 0 m 881 0 l 792 0 l 617 739 l 706 739 l 881 0 m 981 0 l 890 0 l 1104 739 l 1194 739 l 981 0 m 650 849 l 564 849 l 357 1056 l 482 1056 l 650 849 z "},"x":{"ha":742,"x_min":14,"x_max":728,"o":"m 428 400 l 728 0 l 626 0 l 371 338 l 115 0 l 14 0 l 314 400 l 46 739 l 147 739 l 371 460 l 594 739 l 696 739 l 428 400 z "},"y":{"ha":764,"x_min":11,"x_max":743,"o":"m 393 79 l 297 79 l 11 739 l 107 739 l 393 79 m 365 -272 l 268 -272 l 649 739 l 743 739 l 365 -272 z "},"ý":{"ha":764,"x_min":11,"x_max":743,"o":"m 393 79 l 297 79 l 11 739 l 107 739 l 393 79 m 365 -272 l 268 -272 l 649 739 l 743 739 l 365 -272 m 403 849 l 317 849 l 485 1056 l 610 1056 l 403 849 z "},"ŷ":{"ha":764,"x_min":11,"x_max":743,"o":"m 393 79 l 297 79 l 11 739 l 107 739 l 393 79 m 365 -272 l 268 -272 l 649 739 l 743 739 l 365 -272 m 439 1056 l 624 849 l 538 849 l 378 1011 l 217 849 l 131 849 l 315 1056 l 439 1056 z "},"ÿ":{"ha":764,"x_min":11,"x_max":743,"o":"m 393 79 l 297 79 l 11 739 l 107 739 l 393 79 m 365 -272 l 268 -272 l 649 739 l 743 739 l 365 -272 z "},"ỳ":{"ha":764,"x_min":11,"x_max":743,"o":"m 393 79 l 297 79 l 11 739 l 107 739 l 393 79 m 365 -272 l 268 -272 l 649 739 l 743 739 l 365 -272 m 439 849 l 353 849 l 146 1056 l 271 1056 l 439 849 z "},"ȳ":{"ha":764,"x_min":11,"x_max":743,"o":"m 393 79 l 297 79 l 11 739 l 107 739 l 393 79 m 365 -272 l 268 -272 l 649 739 l 743 739 l 365 -272 m 604 911 l 150 911 l 150 981 l 604 981 l 604 911 z "},"ỹ":{"ha":764,"x_min":11,"x_max":743,"o":"m 393 79 l 297 79 l 11 739 l 107 739 l 393 79 m 365 -272 l 268 -272 l 649 739 l 743 739 l 365 -272 m 165 886 q 206 977 172 944 q 285 1010 240 1010 q 336 1001 311 1010 q 386 979 361 993 q 467 956 431 956 q 522 971 500 956 q 551 1014 543 986 l 589 1014 q 548 923 582 956 q 469 890 514 890 q 418 899 443 890 q 368 921 393 907 q 288 944 324 944 q 233 929 254 944 q 203 886 211 914 l 165 886 z "},"z":{"ha":692,"x_min":54,"x_max":651,"o":"m 622 640 l 147 71 l 651 71 l 651 0 l 54 0 l 54 99 l 529 668 l 64 668 l 64 739 l 622 739 l 622 640 z "},"ź":{"ha":692,"x_min":54,"x_max":651,"o":"m 622 640 l 147 71 l 651 71 l 651 0 l 54 0 l 54 99 l 529 668 l 64 668 l 64 739 l 622 739 l 622 640 m 368 849 l 282 849 l 450 1056 l 575 1056 l 368 849 z "},"ž":{"ha":692,"x_min":54,"x_max":651,"o":"m 622 640 l 147 71 l 651 71 l 651 0 l 54 0 l 54 99 l 529 668 l 64 668 l 64 739 l 622 739 l 622 640 m 343 893 l 503 1056 l 589 1056 l 404 849 l 281 849 l 96 1056 l 182 1056 l 343 893 z "},"ż":{"ha":692,"x_min":54,"x_max":651,"o":"m 622 640 l 147 71 l 651 71 l 651 0 l 54 0 l 54 99 l 529 668 l 64 668 l 64 739 l 622 739 l 622 640 m 392 881 l 293 881 l 293 1056 l 392 1056 l 392 881 z "},"ƶ":{"ha":711,"x_min":61,"x_max":658,"o":"m 388 350 l 154 71 l 658 71 l 658 0 l 61 0 l 61 99 l 271 350 l 96 350 l 96 421 l 331 421 l 538 668 l 72 668 l 72 739 l 629 739 l 629 640 l 446 421 l 636 421 l 636 350 l 388 350 z "},"ﬁ":{"ha":825,"x_min":19,"x_max":710,"o":"m 707 0 l 615 0 l 615 668 l 276 668 l 276 0 l 185 0 l 185 668 l 19 668 l 19 739 l 185 739 l 185 865 q 240 1008 185 960 q 389 1056 294 1056 l 481 1056 l 481 985 l 397 985 q 306 957 336 985 q 276 865 276 929 l 276 739 l 707 739 l 707 0 m 611 881 l 611 1056 l 710 1056 l 710 881 l 611 881 z "},"ﬂ":{"ha":825,"x_min":19,"x_max":707,"o":"m 707 0 l 615 0 l 615 985 l 397 985 q 306 957 336 985 q 276 865 276 929 l 276 739 l 481 739 l 481 668 l 276 668 l 276 0 l 185 0 l 185 668 l 19 668 l 19 739 l 185 739 l 185 865 q 240 1008 185 960 q 389 1056 294 1056 l 707 1056 l 707 0 z "},"ª":{"ha":442,"x_min":43,"x_max":383,"o":"m 219 1064 q 312 1044 275 1064 q 366 992 349 1024 q 383 924 383 961 l 383 921 l 383 682 l 308 682 l 308 760 q 260 697 293 722 q 174 672 226 672 q 108 688 138 672 q 60 731 78 703 q 43 793 43 758 q 87 874 43 849 q 204 906 131 899 l 306 917 l 306 922 l 306 925 q 281 988 306 965 q 219 1010 257 1010 q 160 992 182 1010 q 135 946 138 974 l 57 946 q 106 1032 63 1000 q 219 1064 150 1064 m 203 722 q 279 755 253 722 q 306 840 306 788 l 306 865 l 236 858 q 151 838 181 853 q 122 790 122 822 q 145 741 122 760 q 203 722 168 722 z "},"º":{"ha":454,"x_min":38,"x_max":417,"o":"m 228 672 q 128 697 172 672 q 61 767 85 722 q 38 868 38 811 q 61 971 38 926 q 128 1040 85 1015 q 228 1064 171 1064 q 326 1040 283 1064 q 393 971 369 1015 q 417 868 417 926 q 393 767 417 811 q 326 697 369 722 q 228 672 283 672 m 228 728 q 309 766 279 728 q 339 868 339 804 q 309 971 339 932 q 228 1010 279 1010 q 146 972 175 1010 q 117 868 117 933 q 146 766 117 804 q 228 728 175 728 z "},"Δ":{"ha":1032,"x_min":7,"x_max":1024,"o":"m 519 1056 l 619 1056 l 1024 0 l 7 0 l 411 1056 l 511 1056 l 142 86 l 889 86 l 519 1056 z "},"Ω":{"ha":1169,"x_min":85,"x_max":1085,"o":"m 1085 585 q 1045 399 1085 483 q 928 239 1006 314 q 728 86 850 164 l 1083 86 l 1083 0 l 661 0 l 661 117 q 906 340 826 229 q 986 585 986 451 q 931 808 986 717 q 785 944 876 899 q 585 989 693 989 q 385 944 476 989 q 238 808 293 899 q 183 585 183 717 q 263 340 183 451 q 508 117 343 229 l 508 0 l 86 0 l 86 86 l 442 86 q 242 239 319 164 q 124 399 164 314 q 85 585 85 483 q 153 847 85 738 q 335 1014 221 957 q 585 1071 449 1071 q 835 1014 721 1071 q 1017 847 949 957 q 1085 585 1085 738 z "},"μ":{"ha":863,"x_min":118,"x_max":836,"o":"m 836 71 l 836 0 l 771 0 q 661 28 699 0 q 614 115 624 57 q 611 151 611 138 q 523 31 583 78 q 378 -15 463 -15 q 285 3 329 -15 q 210 56 240 21 l 210 -272 l 118 -272 l 118 739 l 210 739 l 210 294 l 210 292 q 235 162 210 215 q 306 81 261 108 q 411 54 351 54 q 516 81 471 54 q 586 163 561 108 q 611 294 611 217 l 611 739 l 703 739 l 703 151 l 703 149 q 723 90 703 110 q 785 71 743 71 l 836 71 z "},"π":{"ha":885,"x_min":22,"x_max":831,"o":"m 686 668 l 686 190 l 686 188 q 716 98 686 125 q 806 71 746 71 l 831 71 l 831 0 l 797 0 q 649 47 704 0 q 594 188 594 94 l 594 190 l 594 668 l 260 668 l 260 0 l 168 0 l 168 668 l 22 668 l 22 739 l 831 739 l 831 668 l 686 668 z "},"⓿":{"ha":1297,"x_min":67,"x_max":1231,"o":"m 649 -54 q 356 24 490 -54 q 144 235 222 101 q 67 528 67 369 q 144 820 67 686 q 356 1032 222 954 q 649 1110 490 1110 q 941 1032 807 1110 q 1153 820 1075 954 q 1231 528 1231 686 q 1153 235 1231 369 q 941 24 1075 101 q 649 -54 807 -54 m 649 200 q 783 238 726 200 q 869 350 839 276 q 899 528 899 424 q 869 706 899 632 q 783 817 839 779 q 649 856 726 856 q 515 817 571 856 q 428 706 458 779 q 399 528 399 632 q 428 350 399 424 q 515 238 458 276 q 649 200 571 200 m 649 271 q 531 336 572 271 q 489 528 489 401 q 531 719 489 654 q 649 785 572 785 q 767 719 725 785 q 808 528 808 654 q 767 336 808 401 q 649 271 725 271 z "},"❶":{"ha":1297,"x_min":67,"x_max":1231,"o":"m 649 -54 q 356 24 490 -54 q 144 235 222 101 q 67 528 67 369 q 144 820 67 686 q 356 1032 222 954 q 649 1110 490 1110 q 941 1032 807 1110 q 1153 820 1075 954 q 1231 528 1231 686 q 1153 235 1231 369 q 941 24 1075 101 q 649 -54 807 -54 m 613 211 l 701 211 l 701 844 l 626 844 l 624 817 q 596 769 618 783 q 529 754 574 754 l 476 754 l 476 681 l 613 681 l 613 211 z "},"❷":{"ha":1297,"x_min":67,"x_max":1231,"o":"m 649 -54 q 356 24 490 -54 q 144 235 222 101 q 67 528 67 369 q 144 820 67 686 q 356 1032 222 954 q 649 1110 490 1110 q 941 1032 807 1110 q 1153 820 1075 954 q 1231 528 1231 686 q 1153 235 1231 369 q 941 24 1075 101 q 649 -54 807 -54 m 413 211 l 888 211 l 888 283 l 513 283 l 751 483 q 840 576 810 532 q 871 676 871 619 q 843 766 871 725 q 765 831 815 807 q 647 856 714 856 q 533 833 583 856 q 451 769 482 811 q 417 672 421 728 l 508 672 q 550 756 513 726 q 647 785 588 785 q 718 769 688 785 q 764 729 749 754 q 779 674 779 704 q 757 606 779 638 q 693 539 735 574 l 413 306 l 413 211 z "},"❸":{"ha":1297,"x_min":67,"x_max":1231,"o":"m 649 -54 q 356 24 490 -54 q 144 235 222 101 q 67 528 67 369 q 144 820 67 686 q 356 1032 222 954 q 649 1110 490 1110 q 941 1032 807 1110 q 1153 820 1075 954 q 1231 528 1231 686 q 1153 235 1231 369 q 941 24 1075 101 q 649 -54 807 -54 m 639 200 q 765 222 710 200 q 853 285 821 243 q 885 389 885 328 q 831 499 885 461 q 710 546 778 536 q 819 592 774 557 q 864 694 864 628 q 834 778 864 742 q 753 835 804 815 q 639 856 701 856 q 532 834 581 856 q 454 773 483 813 q 421 685 425 733 l 511 685 q 549 756 515 728 q 639 785 582 785 q 709 772 679 785 q 756 737 739 760 q 772 685 772 714 q 755 632 772 656 q 704 595 738 608 q 626 582 671 582 l 590 582 l 590 508 l 626 508 q 745 480 697 508 q 793 394 793 451 q 772 325 793 353 q 715 284 750 297 q 639 271 679 271 q 541 300 578 271 q 499 379 504 329 l 407 379 q 478 247 418 294 q 639 200 539 200 z "},"❹":{"ha":1297,"x_min":67,"x_max":1231,"o":"m 649 -54 q 356 24 490 -54 q 144 235 222 101 q 67 528 67 369 q 144 820 67 686 q 356 1032 222 954 q 649 1110 490 1110 q 941 1032 807 1110 q 1153 820 1075 954 q 1231 528 1231 686 q 1153 235 1231 369 q 941 24 1075 101 q 649 -54 807 -54 m 350 486 l 350 393 l 685 393 l 685 211 l 774 211 l 774 393 l 868 393 l 868 467 l 774 467 l 774 844 l 604 844 l 350 486 m 685 467 l 426 467 l 685 829 l 685 467 z "},"❺":{"ha":1297,"x_min":67,"x_max":1231,"o":"m 649 -54 q 356 24 490 -54 q 144 235 222 101 q 67 528 67 369 q 144 820 67 686 q 356 1032 222 954 q 649 1110 490 1110 q 941 1032 807 1110 q 1153 820 1075 954 q 1231 528 1231 686 q 1153 235 1231 369 q 941 24 1075 101 q 649 -54 807 -54 m 649 200 q 771 226 717 200 q 856 303 825 253 q 886 424 886 354 q 859 541 886 492 q 785 617 832 590 q 679 643 738 643 q 572 612 617 643 q 508 538 526 581 l 531 772 l 849 772 l 849 844 l 449 844 l 415 489 l 503 482 q 561 549 522 525 q 650 574 600 574 q 724 556 690 574 q 776 504 757 538 q 794 424 794 471 q 776 342 794 376 q 724 289 757 307 q 649 271 690 271 q 549 301 589 271 q 501 381 508 331 l 411 381 q 451 284 418 325 q 535 222 483 243 q 649 200 586 200 z "},"❻":{"ha":1297,"x_min":67,"x_max":1231,"o":"m 649 -54 q 356 24 490 -54 q 144 235 222 101 q 67 528 67 369 q 144 820 67 686 q 356 1032 222 954 q 649 1110 490 1110 q 941 1032 807 1110 q 1153 820 1075 954 q 1231 528 1231 686 q 1153 235 1231 369 q 941 24 1075 101 q 649 -54 807 -54 m 647 200 q 772 227 717 200 q 858 303 826 254 q 890 415 890 353 q 863 529 890 481 q 786 604 836 578 q 671 631 736 631 q 588 613 626 631 q 522 565 549 596 q 485 494 494 533 q 483 536 483 508 q 525 716 483 647 q 647 785 567 785 q 735 759 700 785 q 783 689 769 733 l 875 689 q 797 810 854 765 q 647 856 739 856 q 515 819 572 856 q 426 708 458 782 q 393 528 393 635 q 424 346 393 419 q 513 236 456 272 q 647 200 571 200 m 647 271 q 564 293 599 271 q 512 350 529 315 q 494 424 494 385 q 513 491 494 460 q 567 542 532 522 q 647 561 603 561 q 758 521 718 561 q 799 415 799 481 q 778 341 799 374 q 724 290 758 308 q 647 271 690 271 z "},"❼":{"ha":1297,"x_min":67,"x_max":1231,"o":"m 649 -54 q 356 24 490 -54 q 144 235 222 101 q 67 528 67 369 q 144 820 67 686 q 356 1032 222 954 q 649 1110 490 1110 q 941 1032 807 1110 q 1153 820 1075 954 q 1231 528 1231 686 q 1153 235 1231 369 q 941 24 1075 101 q 649 -54 807 -54 m 776 772 l 478 211 l 586 211 l 864 750 l 864 844 l 444 844 l 444 772 l 776 772 z "},"❽":{"ha":1297,"x_min":67,"x_max":1231,"o":"m 649 -54 q 356 24 490 -54 q 144 235 222 101 q 67 528 67 369 q 144 820 67 686 q 356 1032 222 954 q 649 1110 490 1110 q 941 1032 807 1110 q 1153 820 1075 954 q 1231 528 1231 686 q 1153 235 1231 369 q 941 24 1075 101 q 649 -54 807 -54 m 649 200 q 776 223 719 200 q 866 288 833 246 q 899 388 899 331 q 873 472 899 438 q 810 524 847 506 q 736 547 774 542 q 836 596 794 561 q 878 693 878 631 q 849 777 878 740 q 769 835 821 814 q 649 856 717 856 q 530 835 582 856 q 449 777 478 814 q 421 693 421 740 q 462 596 421 631 q 563 547 503 561 q 488 524 525 542 q 426 472 451 506 q 400 388 400 438 q 433 288 400 331 q 522 223 465 246 q 649 200 578 200 m 649 582 q 547 610 582 582 q 511 682 511 639 q 527 733 511 710 q 574 771 543 757 q 649 785 606 785 q 724 771 693 785 q 771 734 756 757 q 786 682 786 711 q 751 610 786 639 q 649 582 717 582 m 649 271 q 572 285 607 271 q 514 326 536 299 q 492 393 492 354 q 513 458 492 431 q 571 498 535 485 q 649 511 607 511 q 728 498 692 511 q 785 458 764 485 q 807 393 807 431 q 785 326 807 354 q 726 285 763 299 q 649 271 690 271 z "},"❾":{"ha":1297,"x_min":67,"x_max":1231,"o":"m 649 -54 q 356 24 490 -54 q 144 235 222 101 q 67 528 67 369 q 144 820 67 686 q 356 1032 222 954 q 649 1110 490 1110 q 941 1032 807 1110 q 1153 820 1075 954 q 1231 528 1231 686 q 1153 235 1231 369 q 941 24 1075 101 q 649 -54 807 -54 m 650 856 q 526 828 581 856 q 439 752 471 801 q 407 640 407 703 q 434 526 407 575 q 511 451 461 478 q 626 425 561 425 q 710 442 671 425 q 776 491 749 460 q 813 561 803 522 q 814 519 814 547 q 772 340 814 408 q 650 271 731 271 q 563 297 597 271 q 514 367 528 322 l 422 367 q 501 245 443 290 q 650 200 558 200 q 782 237 725 200 q 872 347 839 274 q 904 528 904 421 q 873 710 904 636 q 784 819 842 783 q 650 856 726 856 m 650 785 q 733 763 699 785 q 785 706 768 740 q 803 632 803 671 q 784 565 803 596 q 730 514 765 533 q 650 494 694 494 q 539 535 579 494 q 499 640 499 575 q 519 715 499 682 q 573 766 539 747 q 650 785 607 785 z "},"⓪":{"ha":1297,"x_min":67,"x_max":1231,"o":"m 649 -54 q 356 24 490 -54 q 144 235 222 101 q 67 528 67 369 q 144 820 67 686 q 356 1032 222 954 q 649 1110 490 1110 q 941 1032 807 1110 q 1153 820 1075 954 q 1231 528 1231 686 q 1153 235 1231 369 q 941 24 1075 101 q 649 -54 807 -54 m 649 19 q 904 88 788 19 q 1089 272 1021 156 q 1157 528 1157 389 q 1089 783 1157 667 q 904 968 1021 900 q 649 1036 788 1036 q 393 968 510 1036 q 208 783 276 900 q 140 528 140 667 q 208 272 140 389 q 393 88 276 156 q 649 19 510 19 m 649 200 q 515 238 571 200 q 428 350 458 276 q 399 528 399 424 q 428 706 399 632 q 515 817 458 779 q 649 856 571 856 q 783 817 726 856 q 869 706 839 779 q 899 528 899 632 q 869 350 899 424 q 783 238 839 276 q 649 200 726 200 m 649 271 q 767 336 725 271 q 808 528 808 401 q 767 719 808 654 q 649 785 725 785 q 531 719 572 785 q 489 528 489 654 q 531 336 489 401 q 649 271 572 271 z "},"①":{"ha":1297,"x_min":67,"x_max":1231,"o":"m 649 1110 q 941 1032 807 1110 q 1153 820 1075 954 q 1231 528 1231 686 q 1153 235 1231 369 q 941 24 1075 101 q 649 -54 807 -54 q 356 24 490 -54 q 144 235 222 101 q 67 528 67 369 q 144 820 67 686 q 356 1032 222 954 q 649 1110 490 1110 m 649 19 q 904 88 788 19 q 1089 272 1021 156 q 1157 528 1157 389 q 1089 783 1157 667 q 904 968 1021 900 q 649 1036 788 1036 q 393 968 510 1036 q 208 783 276 900 q 140 528 140 667 q 208 272 140 389 q 393 88 276 156 q 649 19 510 19 m 626 844 l 701 844 l 701 211 l 613 211 l 613 681 l 476 681 l 476 754 l 529 754 q 596 769 574 754 q 624 817 618 783 l 626 844 z "},"②":{"ha":1297,"x_min":67,"x_max":1231,"o":"m 649 1110 q 941 1032 807 1110 q 1153 820 1075 954 q 1231 528 1231 686 q 1153 235 1231 369 q 941 24 1075 101 q 649 -54 807 -54 q 356 24 490 -54 q 144 235 222 101 q 67 528 67 369 q 144 820 67 686 q 356 1032 222 954 q 649 1110 490 1110 m 649 19 q 904 88 788 19 q 1089 272 1021 156 q 1157 528 1157 389 q 1089 783 1157 667 q 904 968 1021 900 q 649 1036 788 1036 q 393 968 510 1036 q 208 783 276 900 q 140 528 140 667 q 208 272 140 389 q 393 88 276 156 q 649 19 510 19 m 511 283 l 888 283 l 888 211 l 413 211 l 413 306 l 693 539 q 757 606 735 574 q 779 674 779 638 q 764 729 779 704 q 718 769 749 754 q 647 785 688 785 q 550 756 588 785 q 508 672 513 726 l 417 672 q 451 769 421 728 q 533 833 482 811 q 647 856 583 856 q 765 831 714 856 q 843 766 815 807 q 871 676 871 725 q 840 576 871 619 q 751 483 810 532 l 511 283 z "},"③":{"ha":1297,"x_min":67,"x_max":1231,"o":"m 649 1110 q 941 1032 807 1110 q 1153 820 1075 954 q 1231 528 1231 686 q 1153 235 1231 369 q 941 24 1075 101 q 649 -54 807 -54 q 356 24 490 -54 q 144 235 222 101 q 67 528 67 369 q 144 820 67 686 q 356 1032 222 954 q 649 1110 490 1110 m 649 19 q 904 88 788 19 q 1089 272 1021 156 q 1157 528 1157 389 q 1089 783 1157 667 q 904 968 1021 900 q 649 1036 788 1036 q 393 968 510 1036 q 208 783 276 900 q 140 528 140 667 q 208 272 140 389 q 393 88 276 156 q 649 19 510 19 m 708 546 q 790 524 750 542 q 858 473 831 507 q 885 389 885 439 q 853 285 885 328 q 765 222 821 243 q 639 200 710 200 q 478 247 539 200 q 407 379 418 294 l 499 379 q 541 300 504 329 q 639 271 578 271 q 715 284 679 271 q 772 325 750 297 q 793 394 793 353 q 745 480 793 451 q 626 508 697 508 l 590 508 l 590 582 l 626 582 q 704 595 671 582 q 755 632 738 608 q 772 685 772 656 q 756 737 772 714 q 709 772 739 760 q 639 785 679 785 q 549 756 582 785 q 511 685 515 728 l 421 685 q 454 773 425 733 q 532 834 483 813 q 639 856 581 856 q 753 835 701 856 q 834 778 804 815 q 864 694 864 742 q 818 591 864 626 q 708 546 772 556 z "},"④":{"ha":1297,"x_min":67,"x_max":1231,"o":"m 649 1110 q 941 1032 807 1110 q 1153 820 1075 954 q 1231 528 1231 686 q 1153 235 1231 369 q 941 24 1075 101 q 649 -54 807 -54 q 356 24 490 -54 q 144 235 222 101 q 67 528 67 369 q 144 820 67 686 q 356 1032 222 954 q 649 1110 490 1110 m 649 19 q 904 88 788 19 q 1089 272 1021 156 q 1157 528 1157 389 q 1089 783 1157 667 q 904 968 1021 900 q 649 1036 788 1036 q 393 968 510 1036 q 208 783 276 900 q 140 528 140 667 q 208 272 140 389 q 393 88 276 156 q 649 19 510 19 m 774 844 l 774 467 l 868 467 l 868 393 l 774 393 l 774 211 l 685 211 l 685 393 l 350 393 l 350 486 l 604 844 l 774 844 m 685 832 l 428 467 l 685 467 l 685 832 z "},"⑤":{"ha":1297,"x_min":67,"x_max":1231,"o":"m 649 1110 q 941 1032 807 1110 q 1153 820 1075 954 q 1231 528 1231 686 q 1153 235 1231 369 q 941 24 1075 101 q 649 -54 807 -54 q 356 24 490 -54 q 144 235 222 101 q 67 528 67 369 q 144 820 67 686 q 356 1032 222 954 q 649 1110 490 1110 m 649 19 q 904 88 788 19 q 1089 272 1021 156 q 1157 528 1157 389 q 1089 783 1157 667 q 904 968 1021 900 q 649 1036 788 1036 q 393 968 510 1036 q 208 783 276 900 q 140 528 140 667 q 208 272 140 389 q 393 88 276 156 q 649 19 510 19 m 679 643 q 785 617 738 643 q 859 541 832 590 q 886 424 886 492 q 856 303 886 354 q 771 226 825 253 q 649 200 717 200 q 535 222 586 200 q 451 284 483 243 q 411 381 418 325 l 501 381 q 549 301 508 331 q 649 271 589 271 q 724 289 690 271 q 776 342 757 307 q 794 424 794 376 q 776 504 794 471 q 724 556 757 538 q 650 574 690 574 q 561 549 600 574 q 503 482 522 525 l 415 489 l 449 844 l 849 844 l 849 772 l 531 772 l 508 536 q 572 611 528 579 q 679 643 617 643 z "},"⑥":{"ha":1297,"x_min":67,"x_max":1231,"o":"m 649 1110 q 941 1032 807 1110 q 1153 820 1075 954 q 1231 528 1231 686 q 1153 235 1231 369 q 941 24 1075 101 q 649 -54 807 -54 q 356 24 490 -54 q 144 235 222 101 q 67 528 67 369 q 144 820 67 686 q 356 1032 222 954 q 649 1110 490 1110 m 649 19 q 904 88 788 19 q 1089 272 1021 156 q 1157 528 1157 389 q 1089 783 1157 667 q 904 968 1021 900 q 649 1036 788 1036 q 393 968 510 1036 q 208 783 276 900 q 140 528 140 667 q 208 272 140 389 q 393 88 276 156 q 649 19 510 19 m 671 631 q 786 604 736 631 q 863 529 836 578 q 890 415 890 481 q 858 303 890 353 q 772 227 826 254 q 647 200 717 200 q 513 236 571 200 q 424 346 456 272 q 393 528 393 419 q 426 708 393 635 q 515 819 458 782 q 647 856 572 856 q 797 810 739 856 q 875 689 854 765 l 783 689 q 735 759 769 733 q 647 785 700 785 q 525 717 567 785 q 483 538 483 649 q 485 494 483 508 q 522 565 494 533 q 588 613 549 596 q 671 631 626 631 m 647 271 q 724 290 690 271 q 778 341 758 308 q 799 415 799 374 q 758 521 799 481 q 647 561 718 561 q 567 542 603 561 q 513 491 532 522 q 494 424 494 460 q 512 350 494 385 q 564 293 529 315 q 647 271 599 271 z "},"⑦":{"ha":1297,"x_min":67,"x_max":1231,"o":"m 649 1110 q 941 1032 807 1110 q 1153 820 1075 954 q 1231 528 1231 686 q 1153 235 1231 369 q 941 24 1075 101 q 649 -54 807 -54 q 356 24 490 -54 q 144 235 222 101 q 67 528 67 369 q 144 820 67 686 q 356 1032 222 954 q 649 1110 490 1110 m 649 19 q 904 88 788 19 q 1089 272 1021 156 q 1157 528 1157 389 q 1089 783 1157 667 q 904 968 1021 900 q 649 1036 788 1036 q 393 968 510 1036 q 208 783 276 900 q 140 528 140 667 q 208 272 140 389 q 393 88 276 156 q 649 19 510 19 m 776 772 l 444 772 l 444 844 l 864 844 l 864 750 l 586 211 l 478 211 l 776 772 z "},"⑧":{"ha":1297,"x_min":67,"x_max":1231,"o":"m 649 -54 q 356 24 490 -54 q 144 235 222 101 q 67 528 67 369 q 144 820 67 686 q 356 1032 222 954 q 649 1110 490 1110 q 941 1032 807 1110 q 1153 820 1075 954 q 1231 528 1231 686 q 1153 235 1231 369 q 941 24 1075 101 q 649 -54 807 -54 m 649 19 q 904 88 788 19 q 1089 272 1021 156 q 1157 528 1157 389 q 1089 783 1157 667 q 904 968 1021 900 q 649 1036 788 1036 q 393 968 510 1036 q 208 783 276 900 q 140 528 140 667 q 208 272 140 389 q 393 88 276 156 q 649 19 510 19 m 649 200 q 522 223 578 200 q 433 288 465 246 q 400 388 400 331 q 426 473 400 439 q 490 525 451 507 q 565 547 528 543 l 567 547 q 464 594 507 558 q 421 693 421 629 q 449 777 421 740 q 530 835 478 814 q 649 856 582 856 q 769 835 717 856 q 849 777 821 814 q 878 693 878 740 q 834 594 878 629 q 732 547 790 560 q 808 525 769 543 q 872 473 846 507 q 897 388 897 439 q 865 288 897 331 q 776 223 833 246 q 649 200 719 200 m 649 582 q 751 610 717 582 q 786 682 786 639 q 770 733 786 710 q 723 771 754 757 q 649 785 692 785 q 574 771 606 785 q 527 733 543 757 q 511 682 511 710 q 547 610 511 639 q 649 582 582 582 m 649 271 q 726 285 690 271 q 784 326 763 299 q 806 393 806 354 q 784 458 806 431 q 726 498 763 485 q 649 511 690 511 q 571 498 607 511 q 513 458 535 485 q 492 393 492 431 q 514 326 492 354 q 572 285 536 299 q 649 271 607 271 z "},"⑨":{"ha":1297,"x_min":67,"x_max":1231,"o":"m 649 1110 q 941 1032 807 1110 q 1153 820 1075 954 q 1231 528 1231 686 q 1153 235 1231 369 q 941 24 1075 101 q 649 -54 807 -54 q 356 24 490 -54 q 144 235 222 101 q 67 528 67 369 q 144 820 67 686 q 356 1032 222 954 q 649 1110 490 1110 m 649 19 q 904 88 788 19 q 1089 272 1021 156 q 1157 528 1157 389 q 1089 783 1157 667 q 904 968 1021 900 q 649 1036 788 1036 q 393 968 510 1036 q 208 783 276 900 q 140 528 140 667 q 208 272 140 389 q 393 88 276 156 q 649 19 510 19 m 650 856 q 784 819 726 856 q 873 710 842 783 q 904 528 904 636 q 872 347 904 421 q 782 237 839 274 q 650 200 725 200 q 501 245 558 200 q 422 367 443 290 l 514 367 q 563 297 528 322 q 650 271 597 271 q 772 339 731 271 q 814 518 814 407 q 813 561 814 547 q 776 491 803 522 q 710 442 749 460 q 626 425 671 425 q 511 451 561 425 q 434 526 461 478 q 407 640 407 575 q 439 752 407 703 q 526 828 471 801 q 650 856 581 856 m 650 494 q 730 514 694 494 q 784 565 765 533 q 803 632 803 596 q 785 706 803 671 q 733 763 768 740 q 650 785 699 785 q 573 766 607 785 q 519 715 539 747 q 499 640 499 682 q 539 535 499 575 q 650 494 579 494 z "},"₀":{"ha":500,"x_min":39,"x_max":461,"o":"m 250 -168 q 94 -97 150 -168 q 39 106 39 -26 q 94 308 39 238 q 250 379 150 379 q 406 308 350 379 q 461 106 461 238 q 406 -97 461 -26 q 250 -168 350 -168 m 250 -107 q 347 -53 313 -107 q 381 106 381 1 q 347 264 381 210 q 250 318 313 318 q 153 264 188 318 q 119 106 119 210 q 153 -53 119 1 q 250 -107 188 -107 z "},"₁":{"ha":281,"x_min":14,"x_max":207,"o":"m 143 369 l 207 369 l 207 -158 l 128 -158 l 128 233 l 14 233 l 14 296 l 54 296 q 115 307 96 296 q 142 346 133 318 l 143 369 z "},"₂":{"ha":464,"x_min":35,"x_max":432,"o":"m 128 -96 l 432 -96 l 432 -158 l 35 -158 l 35 -76 l 265 115 q 321 173 303 149 q 339 229 339 197 q 310 292 339 267 q 232 318 282 318 q 152 294 182 318 q 118 226 122 269 l 38 226 q 66 307 40 272 q 134 360 92 342 q 232 379 176 379 q 331 358 289 379 q 397 303 374 338 q 419 231 419 269 q 396 144 419 182 q 322 67 372 107 l 128 -96 z "},"₃":{"ha":472,"x_min":31,"x_max":436,"o":"m 286 121 q 391 81 346 113 q 436 -11 436 50 q 378 -127 436 -86 q 228 -168 321 -168 q 90 -128 142 -168 q 31 -18 39 -87 l 111 -18 q 147 -83 117 -60 q 228 -107 176 -107 q 318 -81 281 -107 q 356 -6 356 -54 q 314 65 356 42 q 217 89 272 89 l 188 89 l 188 151 l 217 151 q 278 163 251 151 q 322 193 306 174 q 338 236 338 213 q 324 277 338 258 q 285 307 310 296 q 228 318 260 318 q 155 295 183 318 q 122 236 126 272 l 42 236 q 69 309 44 276 q 135 360 94 342 q 228 379 176 379 q 324 363 281 379 q 393 315 368 346 q 418 244 418 285 q 380 159 418 189 q 286 121 342 129 z "},"₄":{"ha":479,"x_min":19,"x_max":454,"o":"m 375 56 l 454 56 l 454 -7 l 375 -7 l 375 -158 l 297 -158 l 297 -7 l 19 -7 l 19 75 l 217 369 l 297 369 l 92 56 l 297 56 l 297 369 l 375 369 l 375 56 z "},"₅":{"ha":483,"x_min":43,"x_max":449,"o":"m 275 201 q 365 179 325 201 q 426 116 404 157 q 449 19 449 75 q 423 -80 449 -37 q 351 -145 397 -122 q 246 -168 306 -168 q 149 -150 193 -168 q 77 -97 106 -132 q 43 -17 49 -62 l 124 -17 q 164 -82 131 -57 q 246 -107 197 -107 q 308 -91 281 -107 q 352 -47 336 -75 q 368 19 368 -18 q 334 108 368 75 q 246 140 300 140 q 171 119 203 140 q 124 65 139 99 l 46 72 l 74 369 l 417 369 l 417 307 l 146 307 l 128 114 q 184 176 146 150 q 275 201 222 201 z "},"₆":{"ha":497,"x_min":42,"x_max":458,"o":"m 278 192 q 373 169 332 192 q 436 107 414 147 q 458 13 458 67 q 432 -81 458 -40 q 359 -145 406 -122 q 254 -168 313 -168 q 99 -99 156 -168 q 42 106 42 -31 q 69 257 42 196 q 144 349 96 318 q 254 379 192 379 q 381 340 332 379 q 446 240 429 301 l 365 240 q 326 297 353 276 q 256 318 299 318 q 175 286 207 318 q 129 200 143 254 q 121 78 115 146 q 178 160 135 128 q 278 192 221 192 m 254 -107 q 319 -92 290 -107 q 363 -49 347 -76 q 378 13 378 -21 q 345 98 378 65 q 254 131 313 131 q 190 115 218 131 q 145 73 161 99 q 129 19 129 47 q 144 -42 129 -12 q 186 -89 158 -71 q 254 -107 214 -107 z "},"₇":{"ha":385,"x_min":18,"x_max":369,"o":"m 18 307 l 18 369 l 369 369 l 369 288 l 142 -158 l 46 -158 l 292 307 l 18 307 z "},"₈":{"ha":497,"x_min":36,"x_max":460,"o":"m 324 121 q 417 81 375 113 q 460 -14 460 49 q 433 -95 460 -60 q 357 -149 406 -131 q 249 -168 308 -168 q 139 -149 188 -168 q 63 -95 90 -131 q 36 -14 36 -60 q 78 80 36 47 q 172 121 121 113 q 88 163 124 132 q 53 246 53 193 q 77 314 53 283 q 146 362 101 344 q 249 379 190 379 q 350 362 306 379 q 419 314 394 344 q 443 246 443 283 q 408 163 443 193 q 324 121 372 132 m 133 233 q 163 172 133 196 q 249 149 192 149 q 333 172 304 149 q 363 233 363 196 q 332 294 363 269 q 249 318 301 318 q 164 294 194 318 q 133 233 133 269 m 249 -107 q 342 -81 304 -107 q 379 -7 379 -54 q 341 64 379 39 q 249 89 303 89 q 155 64 193 89 q 117 -7 117 39 q 155 -81 117 -54 q 249 -107 193 -107 z "},"₉":{"ha":497,"x_min":39,"x_max":456,"o":"m 243 379 q 399 310 342 379 q 456 106 456 242 q 428 -46 456 15 q 353 -137 401 -107 q 243 -168 306 -168 q 117 -129 165 -168 q 51 -29 68 -90 l 132 -29 q 172 -86 144 -65 q 242 -107 199 -107 q 322 -75 290 -107 q 368 11 354 -43 q 376 133 382 65 q 319 51 363 83 q 219 19 276 19 q 124 42 165 19 q 61 104 83 64 q 39 199 39 144 q 65 292 39 251 q 138 356 92 333 q 243 379 185 379 m 243 81 q 308 97 279 81 q 352 138 336 113 q 368 192 368 164 q 353 253 368 224 q 311 300 339 282 q 243 318 283 318 q 178 303 207 318 q 135 260 150 288 q 119 199 119 232 q 152 113 119 146 q 243 81 185 81 z "},"⁰":{"ha":500,"x_min":39,"x_max":461,"o":"m 250 672 q 94 743 150 672 q 39 946 39 814 q 94 1149 39 1078 q 250 1219 150 1219 q 406 1149 350 1219 q 461 946 461 1078 q 406 743 461 814 q 250 672 350 672 m 250 733 q 347 788 313 733 q 381 946 381 842 q 347 1104 381 1050 q 250 1158 313 1158 q 153 1104 188 1158 q 119 946 119 1050 q 153 788 119 842 q 250 733 188 733 z "},"¹":{"ha":281,"x_min":14,"x_max":207,"o":"m 143 1210 l 207 1210 l 207 682 l 128 682 l 128 1074 l 14 1074 l 14 1136 l 54 1136 q 115 1147 96 1136 q 142 1186 133 1158 l 143 1210 z "},"²":{"ha":464,"x_min":35,"x_max":432,"o":"m 128 744 l 432 744 l 432 682 l 35 682 l 35 764 l 265 956 q 321 1013 303 989 q 339 1069 339 1038 q 310 1133 339 1107 q 232 1158 282 1158 q 152 1134 182 1158 q 118 1067 122 1110 l 38 1067 q 66 1147 40 1113 q 134 1201 92 1182 q 232 1219 176 1219 q 331 1199 289 1219 q 397 1144 374 1178 q 419 1071 419 1110 q 396 985 419 1022 q 322 907 372 947 l 128 744 z "},"³":{"ha":472,"x_min":31,"x_max":436,"o":"m 286 961 q 391 922 346 953 q 436 829 436 890 q 378 713 436 754 q 228 672 321 672 q 90 713 142 672 q 31 822 39 753 l 111 822 q 147 757 117 781 q 228 733 176 733 q 318 760 281 733 q 356 835 356 786 q 314 906 356 882 q 217 929 272 929 l 188 929 l 188 992 l 217 992 q 278 1003 251 992 q 322 1033 306 1014 q 338 1076 338 1053 q 324 1117 338 1099 q 285 1147 310 1136 q 228 1158 260 1158 q 155 1135 183 1158 q 122 1076 126 1113 l 42 1076 q 69 1149 44 1117 q 135 1201 94 1182 q 228 1219 176 1219 q 324 1203 281 1219 q 393 1156 368 1186 q 418 1085 418 1125 q 380 999 418 1029 q 286 961 342 969 z "},"⁴":{"ha":479,"x_min":19,"x_max":454,"o":"m 375 896 l 454 896 l 454 833 l 375 833 l 375 682 l 297 682 l 297 833 l 19 833 l 19 915 l 217 1210 l 297 1210 l 92 896 l 297 896 l 297 1210 l 375 1210 l 375 896 z "},"⁵":{"ha":483,"x_min":43,"x_max":449,"o":"m 275 1042 q 365 1019 325 1042 q 426 956 404 997 q 449 860 449 915 q 423 760 449 803 q 351 695 397 718 q 246 672 306 672 q 149 690 193 672 q 77 743 106 708 q 43 824 49 778 l 124 824 q 164 758 131 783 q 246 733 197 733 q 308 749 281 733 q 352 794 336 765 q 368 860 368 822 q 334 948 368 915 q 246 981 300 981 q 171 960 203 981 q 124 906 139 939 l 46 913 l 74 1210 l 417 1210 l 417 1147 l 146 1147 l 128 954 q 184 1016 146 990 q 275 1042 222 1042 z "},"⁶":{"ha":497,"x_min":42,"x_max":458,"o":"m 278 1032 q 373 1010 332 1032 q 436 947 414 988 q 458 853 458 907 q 432 759 458 800 q 359 695 406 718 q 254 672 313 672 q 99 741 156 672 q 42 946 42 810 q 69 1097 42 1036 q 144 1189 96 1158 q 254 1219 192 1219 q 381 1181 332 1219 q 446 1081 429 1142 l 365 1081 q 326 1138 353 1117 q 256 1158 299 1158 q 175 1126 207 1158 q 129 1040 143 1094 q 121 918 115 986 q 178 1000 135 968 q 278 1032 221 1032 m 254 733 q 319 749 290 733 q 363 792 347 764 q 378 853 378 819 q 345 938 378 906 q 254 971 313 971 q 190 955 218 971 q 145 913 161 939 q 129 860 129 888 q 144 799 129 828 q 186 751 158 769 q 254 733 214 733 z "},"⁷":{"ha":385,"x_min":18,"x_max":369,"o":"m 18 1147 l 18 1210 l 369 1210 l 369 1128 l 142 682 l 46 682 l 292 1147 l 18 1147 z "},"⁸":{"ha":497,"x_min":36,"x_max":460,"o":"m 324 961 q 417 921 375 953 q 460 826 460 889 q 433 745 460 781 q 357 691 406 710 q 249 672 308 672 q 139 691 188 672 q 63 745 90 710 q 36 826 36 781 q 78 920 36 888 q 172 961 121 953 q 88 1003 124 972 q 53 1086 53 1033 q 77 1154 53 1124 q 146 1202 101 1185 q 249 1219 190 1219 q 350 1202 306 1219 q 419 1154 394 1185 q 443 1086 443 1124 q 408 1003 443 1033 q 324 961 372 972 m 133 1074 q 163 1013 133 1036 q 249 989 192 989 q 333 1013 304 989 q 363 1074 363 1036 q 332 1134 363 1110 q 249 1158 301 1158 q 164 1134 194 1158 q 133 1074 133 1110 m 249 733 q 342 760 304 733 q 379 833 379 786 q 341 904 379 879 q 249 929 303 929 q 155 904 193 929 q 117 833 117 879 q 155 760 117 786 q 249 733 193 733 z "},"⁹":{"ha":497,"x_min":39,"x_max":456,"o":"m 243 1219 q 399 1151 342 1219 q 456 946 456 1082 q 428 794 456 856 q 353 703 401 733 q 243 672 306 672 q 117 711 165 672 q 51 811 68 750 l 132 811 q 172 754 144 775 q 242 733 199 733 q 322 765 290 733 q 368 851 354 797 q 376 974 382 906 q 319 892 363 924 q 219 860 276 860 q 124 882 165 860 q 61 944 83 904 q 39 1039 39 985 q 65 1133 39 1092 q 138 1197 92 1174 q 243 1219 185 1219 m 243 921 q 308 937 279 921 q 352 978 336 953 q 368 1032 368 1004 q 353 1093 368 1064 q 311 1140 339 1122 q 243 1158 283 1158 q 178 1143 207 1158 q 135 1100 150 1128 q 119 1039 119 1072 q 152 953 119 986 q 243 921 185 921 z "},"⁄":{"ha":214,"x_min":-283,"x_max":496,"o":"m -190 0 l -283 0 l 403 1056 l 496 1056 l -190 0 z "},"⅟":{"ha":885,"x_min":75,"x_max":854,"o":"m 221 1056 l 285 1056 l 285 528 l 206 528 l 206 919 l 92 919 l 92 982 l 132 982 q 192 993 174 982 q 219 1032 211 1004 l 221 1056 m 168 0 l 75 0 l 761 1056 l 854 1056 l 168 0 z "},"½":{"ha":1004,"x_min":51,"x_max":947,"o":"m 643 63 l 947 63 l 947 0 l 550 0 l 550 82 l 781 274 q 836 331 818 307 q 854 388 854 356 q 826 451 854 425 q 747 476 797 476 q 667 452 697 476 q 633 385 638 428 l 553 385 q 581 465 556 431 q 649 519 607 500 q 747 538 692 538 q 847 517 804 538 q 912 462 889 496 q 935 389 935 428 q 911 303 935 340 q 838 225 888 265 l 643 63 m 197 1056 l 261 1056 l 261 528 l 182 528 l 182 919 l 68 919 l 68 982 l 108 982 q 169 993 150 982 q 196 1032 188 1004 l 197 1056 m 144 0 l 51 0 l 738 1056 l 831 1056 l 144 0 z "},"↉":{"ha":1122,"x_min":54,"x_max":1067,"o":"m 265 518 q 110 589 165 518 q 54 792 54 660 q 110 994 54 924 q 265 1065 165 1065 q 421 994 365 1065 q 476 792 476 924 q 421 589 476 660 q 265 518 365 518 m 265 579 q 362 633 328 579 q 396 792 396 688 q 362 950 396 896 q 265 1004 328 1004 q 169 950 203 1004 q 135 792 135 896 q 169 633 135 688 q 265 579 203 579 m 269 0 l 176 0 l 863 1056 l 956 1056 l 269 0 m 917 279 q 1022 240 976 271 q 1067 147 1067 208 q 1009 31 1067 72 q 858 -10 951 -10 q 721 31 772 -10 q 661 140 669 71 l 742 140 q 777 75 747 99 q 858 51 807 51 q 949 78 911 51 q 986 153 986 104 q 944 224 986 200 q 847 247 903 247 l 818 247 l 818 310 l 847 310 q 909 321 882 310 q 952 351 936 332 q 968 394 968 371 q 954 435 968 417 q 915 465 940 454 q 858 476 890 476 q 785 453 814 476 q 753 394 757 431 l 672 394 q 700 467 675 435 q 766 519 725 500 q 858 538 807 538 q 955 521 911 538 q 1024 474 999 504 q 1049 403 1049 443 q 1010 317 1049 347 q 917 279 972 288 z "},"⅓":{"ha":1000,"x_min":53,"x_max":942,"o":"m 199 1056 l 263 1056 l 263 528 l 183 528 l 183 919 l 69 919 l 69 982 l 110 982 q 170 993 151 982 q 197 1032 189 1004 l 199 1056 m 146 0 l 53 0 l 739 1056 l 832 1056 l 146 0 m 792 279 q 897 240 851 271 q 942 147 942 208 q 884 31 942 72 q 733 -10 826 -10 q 596 31 647 -10 q 536 140 544 71 l 617 140 q 652 75 622 99 q 733 51 682 51 q 824 78 786 51 q 861 153 861 104 q 819 224 861 200 q 722 247 778 247 l 693 247 l 693 310 l 722 310 q 784 321 757 310 q 827 351 811 332 q 843 394 843 371 q 829 435 843 417 q 790 465 815 454 q 733 476 765 476 q 660 453 689 476 q 628 394 632 431 l 547 394 q 575 467 550 435 q 641 519 600 500 q 733 538 682 538 q 830 521 786 538 q 899 474 874 504 q 924 403 924 443 q 885 317 924 347 q 792 279 847 288 z "},"⅔":{"ha":1157,"x_min":64,"x_max":1101,"o":"m 157 590 l 461 590 l 461 528 l 64 528 l 64 610 l 294 801 q 350 859 332 835 q 368 915 368 883 q 340 978 368 953 q 261 1004 311 1004 q 181 980 211 1004 q 147 913 151 956 l 67 913 q 95 993 69 958 q 163 1047 121 1028 q 261 1065 206 1065 q 360 1044 318 1065 q 426 990 403 1024 q 449 917 449 956 q 425 831 449 868 q 351 753 401 793 l 157 590 m 306 0 l 213 0 l 899 1056 l 992 1056 l 306 0 m 951 279 q 1056 240 1011 271 q 1101 147 1101 208 q 1044 31 1101 72 q 893 -10 986 -10 q 756 31 807 -10 q 696 140 704 71 l 776 140 q 812 75 782 99 q 893 51 842 51 q 983 78 946 51 q 1021 153 1021 104 q 979 224 1021 200 q 882 247 938 247 l 853 247 l 853 310 l 882 310 q 944 321 917 310 q 987 351 971 332 q 1003 394 1003 371 q 989 435 1003 417 q 950 465 975 454 q 893 476 925 476 q 820 453 849 476 q 788 394 792 431 l 707 394 q 735 467 710 435 q 801 519 760 500 q 893 538 842 538 q 990 521 946 538 q 1058 474 1033 504 q 1083 403 1083 443 q 1045 317 1083 347 q 951 279 1007 288 z "},"¼":{"ha":974,"x_min":53,"x_max":919,"o":"m 840 214 l 919 214 l 919 151 l 840 151 l 840 0 l 763 0 l 763 151 l 485 151 l 485 233 l 682 528 l 763 528 l 557 214 l 763 214 l 763 528 l 840 528 l 840 214 m 199 1056 l 263 1056 l 263 528 l 183 528 l 183 919 l 69 919 l 69 982 l 110 982 q 170 993 151 982 q 197 1032 189 1004 l 199 1056 m 146 0 l 53 0 l 739 1056 l 832 1056 l 146 0 z "},"¾":{"ha":1106,"x_min":54,"x_max":1056,"o":"m 310 807 q 415 767 369 799 q 460 675 460 736 q 402 559 460 600 q 251 518 344 518 q 114 558 165 518 q 54 668 63 599 l 135 668 q 170 603 140 626 q 251 579 200 579 q 342 606 304 579 q 379 681 379 632 q 338 751 379 728 q 240 775 296 775 l 211 775 l 211 838 l 240 838 q 302 849 275 838 q 345 879 329 860 q 361 922 361 899 q 347 963 361 944 q 308 993 333 982 q 251 1004 283 1004 q 178 981 207 1004 q 146 922 150 958 l 65 922 q 93 995 68 963 q 159 1047 118 1028 q 251 1065 200 1065 q 348 1049 304 1065 q 417 1001 392 1032 q 442 931 442 971 q 403 845 442 875 q 310 807 365 815 m 281 0 l 188 0 l 874 1056 l 967 1056 l 281 0 m 976 214 l 1056 214 l 1056 151 l 976 151 l 976 0 l 899 0 l 899 151 l 621 151 l 621 233 l 818 528 l 899 528 l 693 214 l 899 214 l 899 528 l 976 528 l 976 214 z "},"⅕":{"ha":1035,"x_min":53,"x_max":975,"o":"m 801 360 q 891 338 851 360 q 953 274 931 315 q 975 178 975 233 q 949 78 975 121 q 878 13 924 36 q 772 -10 832 -10 q 676 8 719 -10 q 603 61 632 26 q 569 142 575 96 l 650 142 q 690 76 657 101 q 772 51 724 51 q 835 67 807 51 q 878 112 863 83 q 894 178 894 140 q 860 266 894 233 q 772 299 826 299 q 697 278 729 299 q 650 224 665 257 l 572 231 l 600 528 l 943 528 l 943 465 l 672 465 l 654 272 q 710 334 672 308 q 801 360 749 360 m 199 1056 l 263 1056 l 263 528 l 183 528 l 183 919 l 69 919 l 69 982 l 110 982 q 170 993 151 982 q 197 1032 189 1004 l 199 1056 m 146 0 l 53 0 l 739 1056 l 832 1056 l 146 0 z "},"⅖":{"ha":1192,"x_min":64,"x_max":1135,"o":"m 157 590 l 461 590 l 461 528 l 64 528 l 64 610 l 294 801 q 350 859 332 835 q 368 915 368 883 q 340 978 368 953 q 261 1004 311 1004 q 181 980 211 1004 q 147 913 151 956 l 67 913 q 95 993 69 958 q 163 1047 121 1028 q 261 1065 206 1065 q 360 1044 318 1065 q 426 990 403 1024 q 449 917 449 956 q 425 831 449 868 q 351 753 401 793 l 157 590 m 306 0 l 213 0 l 899 1056 l 992 1056 l 306 0 m 961 360 q 1051 338 1011 360 q 1113 274 1090 315 q 1135 178 1135 233 q 1109 78 1135 121 q 1038 13 1083 36 q 932 -10 992 -10 q 835 8 879 -10 q 763 61 792 26 q 729 142 735 96 l 810 142 q 850 76 817 101 q 932 51 883 51 q 994 67 967 51 q 1038 112 1022 83 q 1054 178 1054 140 q 1020 266 1054 233 q 932 299 986 299 q 857 278 889 299 q 810 224 825 257 l 732 231 l 760 528 l 1103 528 l 1103 465 l 832 465 l 814 272 q 870 334 832 308 q 961 360 908 360 z "},"⅗":{"ha":1168,"x_min":54,"x_max":1110,"o":"m 310 807 q 415 767 369 799 q 460 675 460 736 q 402 559 460 600 q 251 518 344 518 q 114 558 165 518 q 54 668 63 599 l 135 668 q 170 603 140 626 q 251 579 200 579 q 342 606 304 579 q 379 681 379 632 q 338 751 379 728 q 240 775 296 775 l 211 775 l 211 838 l 240 838 q 302 849 275 838 q 345 879 329 860 q 361 922 361 899 q 347 963 361 944 q 308 993 333 982 q 251 1004 283 1004 q 178 981 207 1004 q 146 922 150 958 l 65 922 q 93 995 68 963 q 159 1047 118 1028 q 251 1065 200 1065 q 348 1049 304 1065 q 417 1001 392 1032 q 442 931 442 971 q 403 845 442 875 q 310 807 365 815 m 281 0 l 188 0 l 874 1056 l 967 1056 l 281 0 m 936 360 q 1026 338 986 360 q 1088 274 1065 315 q 1110 178 1110 233 q 1084 78 1110 121 q 1013 13 1058 36 q 907 -10 967 -10 q 810 8 854 -10 q 738 61 767 26 q 704 142 710 96 l 785 142 q 825 76 792 101 q 907 51 858 51 q 969 67 942 51 q 1013 112 997 83 q 1029 178 1029 140 q 995 266 1029 233 q 907 299 961 299 q 832 278 864 299 q 785 224 800 257 l 707 231 l 735 528 l 1078 528 l 1078 465 l 807 465 l 789 272 q 845 334 807 308 q 936 360 883 360 z "},"⅘":{"ha":1196,"x_min":44,"x_max":1132,"o":"m 400 742 l 479 742 l 479 679 l 400 679 l 400 528 l 322 528 l 322 679 l 44 679 l 44 761 l 242 1056 l 322 1056 l 117 742 l 322 742 l 322 1056 l 400 1056 l 400 742 m 303 0 l 210 0 l 896 1056 l 989 1056 l 303 0 m 958 360 q 1048 338 1008 360 q 1110 274 1088 315 q 1132 178 1132 233 q 1106 78 1132 121 q 1035 13 1081 36 q 929 -10 989 -10 q 833 8 876 -10 q 760 61 789 26 q 726 142 732 96 l 807 142 q 847 76 814 101 q 929 51 881 51 q 992 67 964 51 q 1035 112 1019 83 q 1051 178 1051 140 q 1017 266 1051 233 q 929 299 983 299 q 854 278 886 299 q 807 224 822 257 l 729 231 l 757 528 l 1100 528 l 1100 465 l 829 465 l 811 272 q 867 334 829 308 q 958 360 906 360 z "},"⅙":{"ha":1022,"x_min":53,"x_max":963,"o":"m 782 350 q 877 328 836 350 q 940 265 918 306 q 963 171 963 225 q 936 77 963 118 q 863 13 910 36 q 758 -10 817 -10 q 603 59 660 -10 q 546 264 546 128 q 573 415 546 354 q 648 507 600 476 q 758 538 696 538 q 885 499 836 538 q 950 399 933 460 l 869 399 q 830 456 857 435 q 760 476 803 476 q 679 444 711 476 q 633 358 647 413 q 625 236 619 304 q 682 318 639 286 q 782 350 725 350 m 758 51 q 823 67 794 51 q 867 110 851 82 q 882 171 882 138 q 849 256 882 224 q 758 289 817 289 q 694 273 722 289 q 649 231 665 257 q 633 178 633 206 q 648 117 633 146 q 690 69 663 88 q 758 51 718 51 m 199 1056 l 263 1056 l 263 528 l 183 528 l 183 919 l 69 919 l 69 982 l 110 982 q 170 993 151 982 q 197 1032 189 1004 l 199 1056 m 146 0 l 53 0 l 739 1056 l 832 1056 l 146 0 z "},"⅚":{"ha":1146,"x_min":58,"x_max":1089,"o":"m 290 888 q 380 865 340 888 q 442 802 419 843 q 464 706 464 761 q 438 606 464 649 q 367 541 413 564 q 261 518 321 518 q 165 536 208 518 q 92 589 121 554 q 58 669 64 624 l 139 669 q 179 604 146 629 q 261 579 213 579 q 324 595 296 579 q 367 640 351 611 q 383 706 383 668 q 349 794 383 761 q 261 826 315 826 q 186 806 218 826 q 139 751 154 785 l 61 758 l 89 1056 l 432 1056 l 432 993 l 161 993 l 143 800 q 199 862 161 836 q 290 888 238 888 m 272 0 l 179 0 l 865 1056 l 958 1056 l 272 0 m 908 350 q 1003 328 963 350 q 1067 265 1044 306 q 1089 171 1089 225 q 1063 77 1089 118 q 990 13 1036 36 q 885 -10 943 -10 q 729 59 786 -10 q 672 264 672 128 q 699 415 672 354 q 774 507 726 476 q 885 538 822 538 q 1011 499 963 538 q 1076 399 1060 460 l 996 399 q 956 456 983 435 q 886 476 929 476 q 806 444 838 476 q 760 358 774 413 q 751 236 746 304 q 808 318 765 286 q 908 350 851 350 m 885 51 q 949 67 921 51 q 993 110 978 82 q 1008 171 1008 138 q 976 256 1008 224 q 885 289 943 289 q 820 273 849 289 q 776 231 792 257 q 760 178 760 206 q 774 117 760 146 q 817 69 789 88 q 885 51 844 51 z "},"⅐":{"ha":992,"x_min":54,"x_max":942,"o":"m 590 465 l 590 528 l 942 528 l 942 446 l 714 0 l 618 0 l 864 465 l 590 465 m 200 1056 l 264 1056 l 264 528 l 185 528 l 185 919 l 71 919 l 71 982 l 111 982 q 172 993 153 982 q 199 1032 190 1004 l 200 1056 m 147 0 l 54 0 l 740 1056 l 833 1056 l 147 0 z "},"⅛":{"ha":1028,"x_min":53,"x_max":971,"o":"m 835 279 q 928 239 886 271 q 971 144 971 207 q 944 63 971 99 q 868 9 917 28 q 760 -10 819 -10 q 650 9 699 -10 q 574 63 601 28 q 547 144 547 99 q 590 238 547 206 q 683 279 632 271 q 599 321 635 290 q 564 404 564 351 q 588 472 564 442 q 657 520 613 503 q 760 538 701 538 q 861 520 817 538 q 930 472 906 503 q 954 404 954 442 q 919 321 954 351 q 835 279 883 290 m 644 392 q 674 331 644 354 q 760 307 703 307 q 844 331 815 307 q 874 392 874 354 q 843 452 874 428 q 760 476 813 476 q 675 452 706 476 q 644 392 644 428 m 760 51 q 853 78 815 51 q 890 151 890 104 q 852 222 890 197 q 760 247 814 247 q 666 222 704 247 q 628 151 628 197 q 666 78 628 104 q 760 51 704 51 m 199 1056 l 263 1056 l 263 528 l 183 528 l 183 919 l 69 919 l 69 982 l 110 982 q 170 993 151 982 q 197 1032 189 1004 l 199 1056 m 146 0 l 53 0 l 739 1056 l 832 1056 l 146 0 z "},"⅜":{"ha":1161,"x_min":54,"x_max":1106,"o":"m 310 807 q 415 767 369 799 q 460 675 460 736 q 402 559 460 600 q 251 518 344 518 q 114 558 165 518 q 54 668 63 599 l 135 668 q 170 603 140 626 q 251 579 200 579 q 342 606 304 579 q 379 681 379 632 q 338 751 379 728 q 240 775 296 775 l 211 775 l 211 838 l 240 838 q 302 849 275 838 q 345 879 329 860 q 361 922 361 899 q 347 963 361 944 q 308 993 333 982 q 251 1004 283 1004 q 178 981 207 1004 q 146 922 150 958 l 65 922 q 93 995 68 963 q 159 1047 118 1028 q 251 1065 200 1065 q 348 1049 304 1065 q 417 1001 392 1032 q 442 931 442 971 q 403 845 442 875 q 310 807 365 815 m 281 0 l 188 0 l 874 1056 l 967 1056 l 281 0 m 969 279 q 1063 239 1021 271 q 1106 144 1106 207 q 1078 63 1106 99 q 1003 9 1051 28 q 894 -10 954 -10 q 785 9 833 -10 q 709 63 736 28 q 682 144 682 99 q 724 238 682 206 q 818 279 767 271 q 734 321 769 290 q 699 404 699 351 q 723 472 699 442 q 792 520 747 503 q 894 538 836 538 q 996 520 951 538 q 1065 472 1040 503 q 1089 404 1089 442 q 1053 321 1089 351 q 969 279 1018 290 m 779 392 q 808 331 779 354 q 894 307 838 307 q 979 331 950 307 q 1008 392 1008 354 q 978 452 1008 428 q 894 476 947 476 q 810 452 840 476 q 779 392 779 428 m 894 51 q 988 78 950 51 q 1025 151 1025 104 q 987 222 1025 197 q 894 247 949 247 q 801 222 839 247 q 763 151 763 197 q 801 78 763 104 q 894 51 839 51 z "},"⅝":{"ha":1153,"x_min":58,"x_max":1099,"o":"m 290 888 q 380 865 340 888 q 442 802 419 843 q 464 706 464 761 q 438 606 464 649 q 367 541 413 564 q 261 518 321 518 q 165 536 208 518 q 92 589 121 554 q 58 669 64 624 l 139 669 q 179 604 146 629 q 261 579 213 579 q 324 595 296 579 q 367 640 351 611 q 383 706 383 668 q 349 794 383 761 q 261 826 315 826 q 186 806 218 826 q 139 751 154 785 l 61 758 l 89 1056 l 432 1056 l 432 993 l 161 993 l 143 800 q 199 862 161 836 q 290 888 238 888 m 272 0 l 179 0 l 865 1056 l 958 1056 l 272 0 m 963 279 q 1056 239 1014 271 q 1099 144 1099 207 q 1072 63 1099 99 q 996 9 1044 28 q 888 -10 947 -10 q 778 9 826 -10 q 702 63 729 28 q 675 144 675 99 q 717 238 675 206 q 811 279 760 271 q 727 321 763 290 q 692 404 692 351 q 716 472 692 442 q 785 520 740 503 q 888 538 829 538 q 989 520 944 538 q 1058 472 1033 503 q 1082 404 1082 442 q 1047 321 1082 351 q 963 279 1011 290 m 772 392 q 801 331 772 354 q 888 307 831 307 q 972 331 943 307 q 1001 392 1001 354 q 971 452 1001 428 q 888 476 940 476 q 803 452 833 476 q 772 392 772 428 m 888 51 q 981 78 943 51 q 1018 151 1018 104 q 980 222 1018 197 q 888 247 942 247 q 794 222 832 247 q 756 151 756 197 q 794 78 756 104 q 888 51 832 51 z "},"⅞":{"ha":1042,"x_min":67,"x_max":986,"o":"m 67 993 l 67 1056 l 418 1056 l 418 974 l 190 528 l 94 528 l 340 993 l 67 993 m 161 0 l 68 0 l 754 1056 l 847 1056 l 161 0 m 850 279 q 944 239 901 271 q 986 144 986 207 q 959 63 986 99 q 883 9 932 28 q 775 -10 835 -10 q 665 9 714 -10 q 590 63 617 28 q 563 144 563 99 q 605 238 563 206 q 699 279 647 271 q 615 321 650 290 q 579 404 579 351 q 603 472 579 442 q 672 520 628 503 q 775 538 717 538 q 876 520 832 538 q 945 472 921 503 q 969 404 969 442 q 934 321 969 351 q 850 279 899 290 m 660 392 q 689 331 660 354 q 775 307 718 307 q 860 331 831 307 q 889 392 889 354 q 858 452 889 428 q 775 476 828 476 q 690 452 721 476 q 660 392 660 428 m 775 51 q 868 78 831 51 q 906 151 906 104 q 867 222 906 197 q 775 247 829 247 q 681 222 719 247 q 643 151 643 197 q 681 78 643 104 q 775 51 719 51 z "},"⅑":{"ha":1019,"x_min":53,"x_max":965,"o":"m 753 538 q 908 469 851 538 q 965 264 965 400 q 938 113 965 174 q 863 21 911 51 q 753 -10 815 -10 q 626 29 675 -10 q 561 129 578 68 l 642 129 q 681 72 654 93 q 751 51 708 51 q 832 83 800 51 q 878 169 864 115 q 886 292 892 224 q 829 210 872 242 q 729 178 786 178 q 634 200 675 178 q 571 263 593 222 q 549 357 549 303 q 575 451 549 410 q 648 515 601 492 q 753 538 694 538 m 753 239 q 817 255 789 239 q 862 297 846 271 q 878 350 878 322 q 863 411 878 382 q 821 458 849 440 q 753 476 793 476 q 688 461 717 476 q 644 418 660 446 q 629 357 629 390 q 662 272 629 304 q 753 239 694 239 m 199 1056 l 263 1056 l 263 528 l 183 528 l 183 919 l 69 919 l 69 982 l 110 982 q 170 993 151 982 q 197 1032 189 1004 l 199 1056 m 146 0 l 53 0 l 739 1056 l 832 1056 l 146 0 z "},"⅒":{"ha":1311,"x_min":56,"x_max":1260,"o":"m 697 528 l 761 528 l 761 0 l 682 0 l 682 392 l 568 392 l 568 454 l 608 454 q 669 465 650 454 q 696 504 688 476 l 697 528 m 1049 -10 q 893 61 949 -10 q 838 264 838 132 q 893 467 838 396 q 1049 538 949 538 q 1204 467 1149 538 q 1260 264 1260 396 q 1204 61 1260 132 q 1049 -10 1149 -10 m 1049 51 q 1145 106 1111 51 q 1179 264 1179 160 q 1145 422 1179 368 q 1049 476 1111 476 q 952 422 986 476 q 918 264 918 368 q 952 106 918 160 q 1049 51 986 51 m 201 1056 l 265 1056 l 265 528 l 186 528 l 186 919 l 72 919 l 72 982 l 113 982 q 173 993 154 982 q 200 1032 192 1004 l 201 1056 m 149 0 l 56 0 l 742 1056 l 835 1056 l 149 0 z "},".":{"ha":333,"x_min":113,"x_max":221,"o":"m 221 0 l 113 0 l 113 163 l 221 163 l 221 0 z "},",":{"ha":333,"x_min":63,"x_max":221,"o":"m 113 0 l 113 163 l 221 163 l 221 -12 l 129 -179 l 63 -179 l 144 0 l 113 0 z "},":":{"ha":333,"x_min":113,"x_max":221,"o":"m 221 0 l 113 0 l 113 163 l 221 163 l 221 0 m 221 464 l 113 464 l 113 626 l 221 626 l 221 464 z "},";":{"ha":335,"x_min":63,"x_max":221,"o":"m 113 0 l 113 163 l 221 163 l 221 -12 l 129 -179 l 63 -179 l 144 0 l 113 0 m 221 464 l 113 464 l 113 626 l 221 626 l 221 464 z "},"…":{"ha":1001,"x_min":113,"x_max":889,"o":"m 221 0 l 113 0 l 113 163 l 221 163 l 221 0 m 554 0 l 446 0 l 446 163 l 554 163 l 554 0 m 889 0 l 781 0 l 781 163 l 889 163 l 889 0 z "},"!":{"ha":367,"x_min":129,"x_max":238,"o":"m 224 340 l 143 340 l 133 1056 l 233 1056 l 224 340 m 238 0 l 129 0 l 129 163 l 238 163 l 238 0 z "},"¡":{"ha":335,"x_min":113,"x_max":221,"o":"m 221 576 l 113 576 l 113 739 l 221 739 l 221 576 m 217 -272 l 117 -272 l 126 399 l 208 399 l 217 -272 z "},"?":{"ha":742,"x_min":44,"x_max":690,"o":"m 297 340 q 327 486 297 426 q 424 601 357 546 l 478 649 q 544 708 521 683 q 582 763 568 733 q 596 828 596 792 q 571 911 596 872 q 494 974 546 950 q 369 997 443 997 q 254 974 306 997 q 172 906 203 950 q 138 804 142 863 l 44 804 q 95 949 50 889 q 213 1040 140 1010 q 369 1071 285 1071 q 538 1041 465 1071 q 651 957 611 1011 q 690 832 690 903 q 672 744 690 783 q 627 676 654 706 q 560 613 600 647 l 504 565 q 435 495 460 528 q 399 426 410 463 q 389 340 389 390 l 297 340 m 400 0 l 292 0 l 292 163 l 400 163 l 400 0 z "},"¿":{"ha":733,"x_min":47,"x_max":694,"o":"m 446 576 l 338 576 l 338 739 l 446 739 l 446 576 m 368 -287 q 199 -258 272 -287 q 87 -176 126 -229 q 47 -56 47 -124 q 65 26 47 -10 q 109 87 83 61 q 178 147 135 113 l 235 193 q 303 257 279 229 q 338 318 328 285 q 349 399 349 351 l 440 399 q 411 262 440 317 q 317 157 382 207 l 260 113 q 193 56 217 79 q 156 6 169 33 q 143 -54 143 -21 q 168 -132 143 -96 q 243 -191 193 -168 q 367 -214 293 -214 q 483 -190 431 -214 q 565 -124 535 -167 q 600 -24 596 -81 l 694 -24 q 644 -167 689 -107 q 526 -257 599 -226 q 368 -287 454 -287 z "},"·":{"ha":308,"x_min":100,"x_max":208,"o":"m 208 329 l 100 329 l 100 492 l 208 492 l 208 329 z "},"•":{"ha":536,"x_min":131,"x_max":407,"o":"m 268 258 q 199 277 231 258 q 149 328 167 296 q 131 397 131 360 q 149 467 131 435 q 199 517 167 499 q 268 536 231 536 q 338 517 306 536 q 388 467 369 499 q 407 397 407 435 q 388 328 407 360 q 338 277 369 296 q 268 258 306 258 z "},"*":{"ha":621,"x_min":58,"x_max":561,"o":"m 542 1075 l 561 1013 l 364 947 l 492 774 l 439 736 l 310 910 l 181 736 l 128 774 l 257 947 l 58 1013 l 78 1075 l 278 1010 l 278 1211 l 343 1211 l 343 1011 l 542 1075 z "},"⁂":{"ha":1196,"x_min":19,"x_max":1175,"o":"m 829 919 l 849 857 l 651 792 l 779 618 l 726 581 l 597 754 l 468 581 l 415 618 l 544 792 l 346 857 l 365 919 l 565 854 l 565 1056 l 631 1056 l 631 856 l 829 919 m 503 347 l 522 285 l 325 219 l 453 46 l 400 8 l 271 182 l 142 8 l 89 46 l 218 219 l 19 285 l 39 347 l 239 282 l 239 483 l 304 483 l 304 283 l 503 347 m 1156 347 l 1175 285 l 978 219 l 1106 46 l 1053 8 l 924 182 l 794 8 l 742 46 l 871 219 l 672 285 l 692 347 l 892 282 l 892 483 l 957 483 l 957 283 l 1156 347 z "},"#":{"ha":1089,"x_min":56,"x_max":1033,"o":"m 1033 739 l 1033 668 l 794 668 l 735 376 l 960 376 l 960 306 l 719 306 l 657 0 l 576 0 l 639 306 l 351 306 l 289 0 l 208 0 l 271 306 l 56 306 l 56 376 l 286 376 l 346 668 l 131 668 l 131 739 l 361 739 l 426 1056 l 507 1056 l 442 739 l 729 739 l 794 1056 l 875 1056 l 810 739 l 1033 739 m 367 376 l 654 376 l 714 668 l 426 668 l 367 376 z "},"/":{"ha":643,"x_min":40,"x_max":603,"o":"m 139 0 l 40 0 l 504 1056 l 603 1056 l 139 0 z "},"\\":{"ha":643,"x_min":40,"x_max":603,"o":"m 603 0 l 504 0 l 40 1056 l 139 1056 l 603 0 z "},"₍":{"ha":288,"x_min":57,"x_max":249,"o":"m 168 -229 q 57 106 57 -71 q 88 282 57 201 q 168 435 118 363 l 249 435 q 167 282 197 361 q 138 106 138 203 q 249 -229 138 -72 l 168 -229 z "},"₎":{"ha":288,"x_min":38,"x_max":231,"o":"m 38 -229 q 150 106 150 -71 q 119 281 150 201 q 38 435 89 361 l 118 435 q 200 282 169 361 q 231 106 231 203 q 118 -229 231 -69 l 38 -229 z "},"(":{"ha":407,"x_min":72,"x_max":390,"o":"m 296 -272 q 72 397 72 49 q 133 750 72 590 q 296 1056 194 910 l 390 1056 q 228 749 289 908 q 167 397 167 589 q 228 38 167 204 q 390 -272 290 -128 l 296 -272 z "},")":{"ha":407,"x_min":17,"x_max":335,"o":"m 17 -272 q 242 397 242 50 q 180 749 242 589 q 17 1056 118 910 l 113 1056 q 274 751 214 911 q 335 397 335 590 q 113 -272 335 46 l 17 -272 z "},"{":{"ha":440,"x_min":42,"x_max":389,"o":"m 272 625 q 253 501 272 546 q 201 437 233 457 q 117 404 168 417 q 201 371 168 392 q 253 306 233 350 q 272 183 272 261 l 272 181 l 272 -71 l 272 -74 q 372 -201 272 -201 l 389 -201 l 389 -272 l 363 -272 q 226 -224 272 -272 q 181 -87 181 -175 l 181 -85 l 181 165 l 181 168 q 165 285 181 246 q 122 338 150 324 q 42 357 93 351 l 42 450 q 122 469 94 456 q 165 523 150 483 q 181 640 181 563 l 181 869 q 226 1007 181 958 q 363 1056 272 1056 l 389 1056 l 389 985 l 372 985 q 272 856 272 985 l 272 625 z "},"}":{"ha":440,"x_min":51,"x_max":399,"o":"m 260 639 q 275 522 260 561 q 319 469 290 483 q 399 450 347 456 l 399 357 q 318 338 346 351 q 275 284 290 324 q 260 167 260 244 l 260 -86 q 214 -224 260 -175 q 78 -272 168 -272 l 51 -272 l 51 -201 l 68 -201 q 168 -72 168 -201 l 168 182 q 188 306 168 261 q 240 371 207 350 q 324 404 272 392 q 240 437 272 417 q 188 501 207 457 q 168 624 168 546 l 168 626 l 168 854 l 168 857 q 68 985 168 985 l 51 985 l 51 1056 l 78 1056 q 214 1007 168 1056 q 260 871 260 958 l 260 868 l 260 642 l 260 639 z "},"[":{"ha":429,"x_min":138,"x_max":393,"o":"m 393 1056 l 393 985 l 229 985 l 229 -201 l 393 -201 l 393 -272 l 138 -272 l 138 1056 l 393 1056 z "},"]":{"ha":429,"x_min":36,"x_max":292,"o":"m 36 985 l 36 1056 l 292 1056 l 292 -272 l 36 -272 l 36 -201 l 200 -201 l 200 985 l 36 985 z "},"⁽":{"ha":288,"x_min":58,"x_max":250,"o":"m 169 611 q 58 946 58 769 q 89 1122 58 1042 q 169 1275 119 1203 l 250 1275 q 169 1122 199 1201 q 139 946 139 1043 q 250 611 139 768 l 169 611 z "},"⁾":{"ha":288,"x_min":38,"x_max":231,"o":"m 38 611 q 150 946 150 769 q 119 1122 150 1042 q 38 1275 89 1201 l 118 1275 q 200 1122 169 1201 q 231 946 231 1043 q 118 611 231 771 l 38 611 z "},"-":{"ha":601,"x_min":85,"x_max":515,"o":"m 515 353 l 85 353 l 85 429 l 515 429 l 515 353 z "},"­":{"ha":601,"x_min":85,"x_max":515,"o":"m 515 353 l 85 353 l 85 429 l 515 429 l 515 353 z "},"–":{"ha":758,"x_min":85,"x_max":672,"o":"m 672 353 l 85 353 l 85 429 l 672 429 l 672 353 z "},"—":{"ha":1164,"x_min":85,"x_max":1078,"o":"m 1078 353 l 85 353 l 85 429 l 1078 429 l 1078 353 z "},"‑":{"ha":601,"x_min":85,"x_max":515,"o":"m 515 353 l 85 353 l 85 429 l 515 429 l 515 353 z "},"_":{"ha":746,"x_min":50,"x_max":696,"o":"m 696 -71 l 50 -71 l 50 0 l 696 0 l 696 -71 z "},"‚":{"ha":333,"x_min":63,"x_max":221,"o":"m 113 0 l 113 163 l 221 163 l 221 -12 l 129 -179 l 63 -179 l 144 0 l 113 0 z "},"„":{"ha":557,"x_min":63,"x_max":444,"o":"m 336 0 l 336 163 l 444 163 l 444 -12 l 353 -179 l 286 -179 l 368 0 l 336 0 m 113 0 l 113 163 l 221 163 l 221 -12 l 129 -179 l 63 -179 l 144 0 l 113 0 z "},"“":{"ha":533,"x_min":76,"x_max":460,"o":"m 76 889 l 168 1056 l 236 1056 l 154 876 l 185 876 l 185 714 l 76 714 l 76 889 m 392 1056 l 460 1056 l 376 876 l 408 876 l 408 714 l 300 714 l 300 889 l 392 1056 z "},"”":{"ha":532,"x_min":86,"x_max":468,"o":"m 360 893 l 360 1056 l 468 1056 l 468 881 l 376 714 l 310 714 l 392 893 l 360 893 m 136 893 l 136 1056 l 244 1056 l 244 881 l 153 714 l 86 714 l 168 893 l 136 893 z "},"‘":{"ha":310,"x_min":89,"x_max":249,"o":"m 181 1056 l 249 1056 l 165 876 l 197 876 l 197 714 l 89 714 l 89 889 l 181 1056 z "},"’":{"ha":308,"x_min":75,"x_max":233,"o":"m 125 893 l 125 1056 l 233 1056 l 233 881 l 142 714 l 75 714 l 157 893 l 125 893 z "},"«":{"ha":788,"x_min":69,"x_max":717,"o":"m 319 685 l 428 685 l 179 381 l 428 61 l 319 61 l 69 381 l 319 685 m 608 685 l 717 685 l 468 381 l 717 61 l 608 61 l 358 381 l 608 685 z "},"»":{"ha":788,"x_min":69,"x_max":718,"o":"m 69 685 l 178 685 l 428 381 l 178 61 l 69 61 l 319 379 l 69 685 m 360 685 l 468 685 l 718 381 l 468 61 l 360 61 l 608 381 l 360 685 z "},"‹":{"ha":497,"x_min":69,"x_max":428,"o":"m 319 685 l 428 685 l 179 381 l 428 61 l 319 61 l 69 381 l 319 685 z "},"›":{"ha":497,"x_min":69,"x_max":428,"o":"m 69 685 l 178 685 l 428 381 l 178 61 l 69 61 l 319 379 l 69 685 z "},"\"":{"ha":467,"x_min":92,"x_max":375,"o":"m 176 697 l 106 697 l 92 1056 l 190 1056 l 176 697 m 361 697 l 290 697 l 276 1056 l 375 1056 l 361 697 z "},"'":{"ha":282,"x_min":92,"x_max":190,"o":"m 176 697 l 106 697 l 92 1056 l 190 1056 l 176 697 z "}," ":{"ha":364,"x_min":0,"x_max":0,"o":""}," ":{"ha":174,"x_min":0,"x_max":0,"o":""},"﻿":{"ha":0,"x_min":0,"x_max":0,"o":""},"฿":{"ha":940,"x_min":150,"x_max":858,"o":"m 858 286 q 817 140 858 201 q 698 42 776 78 q 510 1 619 7 l 510 -182 l 422 -182 l 422 0 l 150 0 l 150 1056 l 422 1056 l 422 1231 l 510 1231 l 510 1054 q 682 1012 611 1047 q 789 919 753 976 q 825 789 825 861 q 790 663 825 715 q 694 582 754 611 q 560 544 635 553 q 714 509 646 540 q 820 420 782 478 q 858 286 858 363 m 243 583 l 422 583 l 422 978 l 243 978 l 243 583 m 728 781 q 669 914 728 863 q 510 976 611 965 l 510 585 q 669 646 611 594 q 728 781 728 697 m 243 504 l 243 78 l 422 78 l 422 504 l 243 504 m 510 79 q 697 144 632 89 q 763 292 763 200 q 698 438 763 383 q 510 503 633 493 l 510 79 z "},"₿":{"ha":943,"x_min":151,"x_max":860,"o":"m 860 286 q 791 105 860 175 q 594 11 722 35 l 594 -182 l 513 -182 l 513 1 q 463 0 496 0 l 401 0 l 401 -182 l 319 -182 l 319 0 l 151 0 l 151 1056 l 319 1056 l 319 1231 l 401 1231 l 401 1056 l 465 1056 q 513 1054 497 1056 l 513 1231 l 594 1231 l 594 1042 q 766 949 707 1017 q 825 789 825 882 q 790 663 825 715 q 695 582 754 611 q 561 544 636 553 q 715 509 647 540 q 822 420 783 478 q 860 286 860 363 m 729 781 q 697 886 729 842 q 604 954 664 931 q 465 978 544 978 l 244 978 l 244 583 l 465 583 q 604 607 544 583 q 697 675 664 631 q 729 781 729 719 m 463 78 q 627 103 560 78 q 729 177 694 129 q 764 292 764 225 q 686 449 764 393 q 463 504 608 504 l 244 504 l 244 78 l 463 78 z "},"¢":{"ha":849,"x_min":90,"x_max":776,"o":"m 776 246 q 671 65 749 133 q 483 -14 593 -3 l 483 -182 l 399 -182 l 399 -12 q 236 47 306 -3 q 128 181 167 97 q 90 369 90 264 q 128 558 90 475 q 236 692 167 642 q 399 751 306 742 l 399 915 l 483 915 l 483 753 q 669 672 594 742 q 768 492 743 601 l 674 492 q 606 619 654 568 q 483 682 557 669 l 483 57 q 608 116 558 67 q 682 246 658 165 l 776 246 m 185 369 q 210 218 185 285 q 284 110 236 151 q 399 57 332 68 l 399 682 q 284 629 332 671 q 210 521 236 588 q 185 369 185 454 z "},"¤":{"ha":922,"x_min":100,"x_max":822,"o":"m 801 517 q 782 403 801 457 q 728 304 763 349 l 822 210 l 764 153 l 671 247 q 574 193 628 213 q 461 174 519 174 q 349 193 403 174 q 251 247 296 213 l 157 153 l 100 210 l 194 304 q 139 403 158 349 q 119 517 119 457 q 139 631 119 576 q 194 729 158 685 l 100 824 l 157 879 l 251 786 q 349 840 296 821 q 461 858 403 858 q 573 840 519 858 q 671 786 626 821 l 764 879 l 822 824 l 728 729 q 782 631 763 685 q 801 517 801 576 m 204 517 q 239 385 204 444 q 333 292 274 326 q 461 258 392 258 q 590 292 531 258 q 683 385 649 326 q 718 517 718 444 q 683 647 718 588 q 590 740 649 706 q 461 774 531 774 q 333 740 392 774 q 239 647 274 706 q 204 517 204 588 z "},"$":{"ha":900,"x_min":67,"x_max":825,"o":"m 825 306 q 785 147 825 217 q 669 35 744 78 q 492 -14 593 -7 l 492 -182 l 404 -182 l 404 -12 q 242 38 314 -4 q 124 151 169 81 q 67 313 78 221 l 163 313 q 203 191 171 244 q 288 105 236 138 q 404 64 340 72 l 404 525 l 364 535 q 225 584 283 554 q 130 665 167 614 q 93 793 93 715 q 133 927 93 867 q 243 1025 172 988 q 404 1069 314 1063 l 404 1231 l 492 1231 l 492 1068 q 647 1024 579 1060 q 758 926 715 988 q 811 785 800 865 l 715 785 q 640 925 700 871 q 492 990 581 979 l 492 596 l 543 582 q 700 522 639 557 q 793 433 761 486 q 825 306 825 381 m 189 800 q 214 714 189 747 q 284 660 239 681 q 404 618 329 639 l 404 993 q 291 960 340 988 q 215 892 242 933 q 189 800 189 850 m 492 63 q 619 101 565 69 q 701 182 672 132 q 729 297 729 232 q 701 393 729 354 q 622 457 674 432 q 492 503 571 482 l 492 63 z "},"€":{"ha":1119,"x_min":67,"x_max":1039,"o":"m 1039 286 q 956 128 1010 196 q 824 22 901 60 q 654 -15 747 -15 q 463 35 550 -15 q 319 176 376 85 q 239 386 261 267 l 67 386 l 94 464 l 229 464 q 226 528 226 506 q 229 592 226 550 l 85 592 l 114 671 l 239 671 q 319 881 261 790 q 462 1021 376 971 q 650 1071 547 1071 q 820 1033 743 1071 q 951 928 897 996 q 1036 769 1006 860 l 940 769 q 826 935 903 875 q 650 994 750 994 q 506 956 571 994 q 397 844 442 917 q 335 671 353 771 l 803 671 l 775 592 l 325 592 q 322 528 322 550 q 325 464 322 506 l 731 464 l 703 386 l 335 386 q 398 213 353 286 q 508 100 443 139 q 654 61 574 61 q 831 121 754 61 q 943 286 907 181 l 1039 286 z "},"ƒ":{"ha":789,"x_min":44,"x_max":742,"o":"m 646 978 q 535 944 574 978 q 486 835 497 910 l 454 619 l 697 619 l 697 540 l 443 540 l 393 206 q 150 0 363 0 l 44 0 l 44 78 l 140 78 q 251 112 213 78 q 300 221 290 146 l 349 540 l 121 540 l 121 619 l 360 619 l 394 850 q 636 1056 425 1056 l 742 1056 l 742 978 l 646 978 z "},"₺":{"ha":896,"x_min":81,"x_max":835,"o":"m 835 439 q 724 106 835 211 q 400 0 613 0 l 214 0 l 214 421 l 81 381 l 81 461 l 214 501 l 214 633 l 81 593 l 81 674 l 214 714 l 214 1056 l 308 1056 l 308 742 l 622 836 l 622 757 l 308 663 l 308 529 l 622 622 l 622 543 l 308 449 l 308 78 l 396 78 q 654 166 567 78 q 742 439 742 254 l 835 439 z "},"₽":{"ha":974,"x_min":78,"x_max":910,"o":"m 315 457 l 315 329 l 604 329 l 604 250 l 315 250 l 315 0 l 222 0 l 222 250 l 78 250 l 78 329 l 222 329 l 222 457 l 78 457 l 78 535 l 222 535 l 222 1056 l 497 1056 q 801 983 693 1056 q 910 756 910 910 q 801 530 910 603 q 497 457 693 457 l 315 457 m 315 978 l 315 535 l 500 535 q 732 588 651 535 q 813 756 813 640 q 733 925 813 872 q 500 978 653 978 l 315 978 z "},"₹":{"ha":921,"x_min":99,"x_max":869,"o":"m 869 978 l 618 978 q 688 899 661 944 q 722 797 715 854 l 869 797 l 869 718 l 722 718 q 667 578 714 636 q 542 490 619 521 q 364 460 464 460 l 210 460 l 739 0 l 599 0 l 99 433 l 99 539 l 364 539 q 545 585 476 539 q 626 718 614 632 l 99 718 l 99 797 l 626 797 q 544 931 613 883 q 364 978 476 978 l 99 978 l 99 1056 l 869 1056 l 869 978 z "},"£":{"ha":833,"x_min":75,"x_max":775,"o":"m 775 78 l 775 0 l 92 0 l 92 108 q 215 194 169 156 q 284 276 261 233 q 307 372 307 318 q 283 476 307 426 l 75 476 l 75 554 l 226 554 q 144 672 174 617 q 115 797 115 728 q 158 940 115 878 q 275 1037 201 1003 q 438 1071 349 1071 q 594 1040 525 1071 q 705 953 663 1010 q 757 824 747 897 l 661 824 q 587 951 646 907 q 438 994 528 994 q 324 970 375 994 q 242 899 272 946 q 213 792 213 853 q 226 714 213 750 q 263 647 240 678 q 319 575 285 615 l 336 554 l 668 554 l 668 476 l 383 476 q 403 379 403 429 q 377 267 403 318 q 299 172 351 217 q 163 78 247 126 l 775 78 z "},"₸":{"ha":872,"x_min":50,"x_max":821,"o":"m 50 978 l 50 1056 l 821 1056 l 821 978 l 50 978 m 389 771 l 50 771 l 50 849 l 821 849 l 821 771 l 483 771 l 483 0 l 389 0 l 389 771 z "},"₩":{"ha":1374,"x_min":58,"x_max":1315,"o":"m 1315 689 l 1315 611 l 1156 611 l 1129 440 l 1285 440 l 1285 363 l 1117 363 l 1060 0 l 969 0 l 1026 363 l 899 363 l 958 0 l 869 0 l 810 363 l 574 363 l 514 0 l 424 0 l 483 363 l 357 363 l 414 0 l 322 0 l 265 363 l 89 363 l 89 440 l 253 440 l 226 611 l 58 611 l 58 689 l 214 689 l 157 1056 l 247 1056 l 306 689 l 536 689 l 596 1056 l 686 1056 l 626 689 l 756 689 l 696 1056 l 786 1056 l 846 689 l 1078 689 l 1135 1056 l 1226 1056 l 1168 689 l 1315 689 m 318 611 l 344 440 l 496 440 l 524 611 l 318 611 m 614 611 l 586 440 l 797 440 l 769 611 l 614 611 m 886 440 l 1039 440 l 1065 611 l 858 611 l 886 440 z "},"¥":{"ha":993,"x_min":42,"x_max":953,"o":"m 846 1056 l 953 1056 l 586 526 l 853 526 l 853 447 l 544 447 l 544 319 l 853 319 l 853 242 l 544 242 l 544 0 l 450 0 l 450 242 l 140 242 l 140 319 l 450 319 l 450 447 l 140 447 l 140 526 l 408 526 l 42 1056 l 149 1056 l 497 550 l 846 1056 z "},"₌":{"ha":454,"x_min":56,"x_max":399,"o":"m 399 140 l 56 140 l 56 199 l 399 199 l 399 140 m 399 -4 l 56 -4 l 56 54 l 399 54 l 399 -4 z "},"⁼":{"ha":454,"x_min":56,"x_max":399,"o":"m 399 981 l 56 981 l 56 1039 l 399 1039 l 399 981 m 399 836 l 56 836 l 56 894 l 399 894 l 399 836 z "},"₋":{"ha":442,"x_min":54,"x_max":388,"o":"m 388 68 l 54 68 l 54 126 l 388 126 l 388 68 z "},"⁻":{"ha":442,"x_min":54,"x_max":388,"o":"m 388 908 l 54 908 l 54 967 l 388 967 l 388 908 z "},"+":{"ha":876,"x_min":68,"x_max":807,"o":"m 476 411 l 807 411 l 807 338 l 476 338 l 476 0 l 400 0 l 400 338 l 68 338 l 68 411 l 400 411 l 400 739 l 476 739 l 476 411 z "},"−":{"ha":829,"x_min":85,"x_max":746,"o":"m 746 338 l 85 338 l 85 411 l 746 411 l 746 338 z "},"×":{"ha":786,"x_min":76,"x_max":710,"o":"m 658 685 l 710 635 l 444 369 l 710 104 l 658 54 l 393 319 l 128 54 l 76 104 l 342 369 l 76 635 l 128 685 l 393 419 l 658 685 z "},"÷":{"ha":931,"x_min":96,"x_max":835,"o":"m 515 571 l 415 571 l 415 739 l 515 739 l 515 571 m 835 338 l 96 338 l 96 411 l 835 411 l 835 338 m 515 0 l 415 0 l 415 168 l 515 168 l 515 0 z "},"=":{"ha":889,"x_min":106,"x_max":783,"o":"m 783 479 l 106 479 l 106 551 l 783 551 l 783 479 m 783 200 l 106 200 l 106 274 l 783 274 l 783 200 z "},"≠":{"ha":889,"x_min":106,"x_max":783,"o":"m 783 551 l 783 479 l 553 479 l 433 274 l 783 274 l 783 200 l 390 200 l 274 0 l 183 0 l 300 200 l 106 200 l 106 274 l 343 274 l 463 479 l 106 479 l 106 551 l 504 551 l 614 739 l 704 739 l 594 551 l 783 551 z "},">":{"ha":804,"x_min":90,"x_max":732,"o":"m 90 626 l 90 706 l 732 431 l 732 313 l 90 36 l 90 115 l 683 371 l 90 626 z "},"<":{"ha":804,"x_min":72,"x_max":714,"o":"m 72 431 l 714 706 l 714 626 l 121 371 l 714 115 l 714 36 l 72 313 l 72 431 z "},"≥":{"ha":826,"x_min":97,"x_max":738,"o":"m 97 653 l 97 729 l 738 503 l 738 390 l 97 165 l 97 240 l 681 447 l 97 653 m 738 0 l 97 0 l 97 74 l 738 74 l 738 0 z "},"≤":{"ha":826,"x_min":89,"x_max":729,"o":"m 89 503 l 729 729 l 729 653 l 146 447 l 729 240 l 729 165 l 89 390 l 89 503 m 729 0 l 89 0 l 89 74 l 729 74 l 729 0 z "},"±":{"ha":911,"x_min":86,"x_max":825,"o":"m 494 739 l 494 485 l 825 485 l 825 411 l 494 411 l 494 146 l 418 146 l 418 411 l 86 411 l 86 485 l 418 485 l 418 739 l 494 739 m 825 0 l 86 0 l 86 74 l 825 74 l 825 0 z "},"≈":{"ha":965,"x_min":101,"x_max":863,"o":"m 101 478 q 313 596 203 596 q 387 588 351 596 q 482 554 422 579 q 574 522 538 532 q 647 511 611 511 q 731 533 694 511 q 814 601 768 556 l 863 553 q 762 467 815 499 q 653 435 708 435 q 580 443 615 435 q 483 476 544 451 q 392 509 431 499 q 317 519 354 519 q 232 497 269 519 q 151 431 194 475 l 101 478 m 101 203 q 313 321 203 321 q 387 313 351 321 q 482 279 422 304 q 574 247 538 257 q 647 236 611 236 q 731 258 694 236 q 814 326 768 281 l 863 278 q 762 192 815 224 q 653 160 708 160 q 580 168 615 160 q 483 201 544 176 q 392 234 431 224 q 317 244 354 244 q 232 222 269 244 q 151 156 194 200 l 101 203 z "},"~":{"ha":915,"x_min":76,"x_max":838,"o":"m 76 358 q 288 476 178 476 q 362 468 326 476 q 457 435 397 460 q 549 402 513 413 q 622 392 586 392 q 706 414 669 392 q 789 482 743 436 l 838 433 q 737 347 790 379 q 628 315 683 315 q 555 324 590 315 q 458 357 519 332 q 367 390 406 379 q 292 400 329 400 q 207 378 244 400 q 126 311 169 356 l 76 358 z "},"¬":{"ha":868,"x_min":78,"x_max":756,"o":"m 756 160 l 679 160 l 679 497 l 78 497 l 78 571 l 756 571 l 756 160 z "},"^":{"ha":751,"x_min":58,"x_max":694,"o":"m 442 1056 l 694 518 l 604 518 l 376 1013 l 147 518 l 58 518 l 310 1056 l 442 1056 z "},"∞":{"ha":1539,"x_min":85,"x_max":1454,"o":"m 1136 708 q 1299 664 1226 708 q 1413 542 1372 619 q 1454 372 1454 465 q 1413 202 1454 279 q 1299 81 1372 125 q 1136 38 1226 38 q 947 103 1031 38 q 792 269 864 168 l 769 303 l 746 269 q 592 103 675 168 q 403 38 508 38 q 239 81 311 38 q 126 202 167 125 q 85 372 85 279 q 126 542 85 465 q 239 664 167 619 q 403 708 311 708 q 594 642 510 708 q 749 475 678 575 l 769 446 l 790 475 q 945 642 861 575 q 1136 708 1029 708 m 719 374 l 683 425 q 553 573 621 515 q 406 631 486 631 q 285 598 339 631 q 202 506 232 565 q 172 372 172 447 q 202 238 172 297 q 285 147 232 179 q 406 114 339 114 q 553 172 486 114 q 681 319 619 231 l 719 374 m 1133 114 q 1253 147 1200 114 q 1337 238 1307 179 q 1367 372 1367 297 q 1337 506 1367 447 q 1253 598 1307 565 q 1133 631 1200 631 q 986 573 1053 631 q 856 426 919 515 l 819 374 l 857 319 q 986 172 919 229 q 1133 114 1053 114 z "},"∫":{"ha":518,"x_min":-7,"x_max":522,"o":"m -7 -272 l -7 -201 l 76 -201 q 179 -163 146 -201 q 213 -47 213 -125 l 213 839 q 269 1001 213 946 q 431 1056 326 1056 l 522 1056 l 522 985 l 439 985 q 337 947 369 985 q 304 831 304 910 l 304 -56 q 247 -217 304 -162 q 85 -272 189 -272 l -7 -272 z "},"∏":{"ha":1274,"x_min":38,"x_max":1235,"o":"m 1235 1056 l 1235 969 l 1025 969 l 1025 -187 l 931 -187 l 931 969 l 343 969 l 343 -187 l 247 -187 l 247 969 l 38 969 l 38 1056 l 1235 1056 z "},"∑":{"ha":954,"x_min":63,"x_max":901,"o":"m 665 450 l 172 -101 l 901 -101 l 901 -187 l 63 -187 l 63 -71 l 528 449 l 63 939 l 63 1056 l 885 1056 l 885 969 l 172 969 l 665 450 z "},"√":{"ha":907,"x_min":13,"x_max":907,"o":"m 449 -125 l 810 1056 l 907 1056 l 526 -187 l 374 -187 l 192 303 l 13 303 l 13 388 l 261 388 l 449 -125 z "},"µ":{"ha":897,"x_min":133,"x_max":853,"o":"m 853 71 l 853 0 l 786 0 q 676 28 714 0 q 629 115 639 57 q 626 151 626 138 q 539 31 599 78 q 393 -15 479 -15 q 300 3 344 -15 q 225 56 256 21 l 225 -272 l 133 -272 l 133 739 l 225 739 l 225 294 l 225 292 q 251 162 225 215 q 322 81 276 108 q 426 54 367 54 q 531 81 486 54 q 601 163 576 108 q 626 294 626 217 l 626 739 l 718 739 l 718 151 l 718 149 q 738 90 718 110 q 800 71 758 71 l 853 71 z "},"∂":{"ha":861,"x_min":51,"x_max":782,"o":"m 192 1065 q 644 867 506 1032 q 782 450 782 703 q 684 99 782 213 q 408 -15 586 -15 q 229 27 311 -15 q 99 149 147 69 q 51 335 51 228 q 97 518 51 440 q 222 636 143 596 q 397 676 300 676 q 545 644 482 676 q 648 564 608 613 q 703 463 688 515 q 576 832 706 697 q 192 992 447 967 l 192 1065 m 415 54 q 551 90 492 54 q 644 192 611 126 q 678 340 678 257 q 644 483 678 424 q 549 575 610 543 q 413 607 489 607 q 276 574 336 607 q 181 480 215 542 q 146 335 146 418 q 181 187 146 250 q 278 89 217 124 q 415 54 339 54 z "},"%":{"ha":1261,"x_min":51,"x_max":1210,"o":"m 278 475 q 156 510 207 475 q 78 611 106 544 q 51 772 51 678 q 78 934 51 867 q 156 1036 106 1001 q 278 1071 207 1071 q 400 1036 349 1071 q 478 934 451 1001 q 506 772 506 867 q 446 552 506 629 q 278 475 386 475 m 381 0 l 289 0 l 881 1056 l 972 1056 l 381 0 m 278 536 q 387 596 349 536 q 425 772 425 656 q 387 949 425 889 q 278 1010 349 1010 q 169 949 208 1010 q 131 772 131 889 q 169 596 131 656 q 278 536 208 536 m 983 -15 q 862 19 913 -15 q 784 121 811 54 q 757 282 757 188 q 784 444 757 376 q 862 546 811 511 q 983 581 913 581 q 1105 546 1054 581 q 1183 444 1156 511 q 1210 282 1210 376 q 1183 121 1210 188 q 1105 19 1156 54 q 983 -15 1054 -15 m 983 46 q 1092 106 1054 46 q 1131 282 1131 165 q 1092 459 1131 399 q 983 519 1054 519 q 874 459 913 519 q 836 282 836 399 q 874 106 836 165 q 983 46 913 46 z "},"‰":{"ha":1636,"x_min":51,"x_max":1585,"o":"m 506 772 q 446 552 506 629 q 278 475 386 475 q 156 510 207 475 q 78 611 106 544 q 51 772 51 678 q 78 934 51 867 q 156 1036 106 1001 q 278 1071 207 1071 q 400 1036 349 1071 q 478 934 451 1001 q 506 772 506 867 m 289 0 l 881 1056 l 972 1056 l 381 0 l 289 0 m 278 536 q 387 596 349 536 q 425 772 425 656 q 387 949 425 889 q 278 1010 349 1010 q 169 949 208 1010 q 131 772 131 889 q 169 596 131 656 q 278 536 208 536 m 1357 581 q 1479 546 1428 581 q 1558 444 1531 511 q 1585 282 1585 376 q 1525 62 1585 139 q 1357 -15 1465 -15 q 1248 15 1296 -15 q 1171 101 1200 46 q 1092 15 1140 44 q 983 -15 1043 -15 q 862 19 913 -15 q 784 121 811 54 q 757 282 757 188 q 784 444 757 376 q 862 546 811 511 q 983 581 913 581 q 1092 550 1043 581 q 1171 463 1140 519 q 1249 550 1200 519 q 1357 581 1297 581 m 983 46 q 1092 106 1054 46 q 1131 282 1131 165 q 1092 459 1131 399 q 983 519 1054 519 q 874 459 913 519 q 836 282 836 399 q 874 106 836 165 q 983 46 913 46 m 1357 46 q 1466 106 1428 46 q 1504 282 1504 165 q 1466 459 1504 399 q 1357 519 1428 519 q 1249 459 1288 519 q 1210 282 1210 399 q 1249 106 1210 165 q 1357 46 1288 46 z "},"₊":{"ha":456,"x_min":42,"x_max":414,"o":"m 258 126 l 414 126 l 414 68 l 258 68 l 258 -93 l 197 -93 l 197 68 l 42 68 l 42 126 l 197 126 l 197 281 l 258 281 l 258 126 z "},"⁺":{"ha":456,"x_min":42,"x_max":414,"o":"m 258 967 l 414 967 l 414 908 l 258 908 l 258 747 l 197 747 l 197 908 l 42 908 l 42 967 l 197 967 l 197 1121 l 258 1121 l 258 967 z "},"↑":{"ha":1069,"x_min":151,"x_max":918,"o":"m 535 982 l 918 614 l 918 497 l 578 839 l 578 71 l 493 71 l 493 840 l 151 497 l 151 614 l 535 982 z "},"↗":{"ha":1069,"x_min":133,"x_max":867,"o":"m 242 793 l 322 872 l 867 872 l 867 328 l 788 247 l 788 733 l 193 139 l 133 197 l 728 793 l 242 793 z "},"→":{"ha":1069,"x_min":61,"x_max":971,"o":"m 488 911 l 604 911 l 971 528 l 604 144 l 488 144 l 829 485 l 61 485 l 61 569 l 831 569 l 488 911 z "},"↘":{"ha":1069,"x_min":133,"x_max":867,"o":"m 788 322 l 788 808 l 867 728 l 867 183 l 322 183 l 242 263 l 728 263 l 133 858 l 193 917 l 788 322 z "},"↓":{"ha":1069,"x_min":151,"x_max":918,"o":"m 578 985 l 578 217 l 918 558 l 918 442 l 535 74 l 151 442 l 151 558 l 493 215 l 493 985 l 578 985 z "},"↙":{"ha":1069,"x_min":203,"x_max":936,"o":"m 876 917 l 936 858 l 342 263 l 828 263 l 747 183 l 203 183 l 203 728 l 282 808 l 282 322 l 876 917 z "},"←":{"ha":1069,"x_min":99,"x_max":1008,"o":"m 239 569 l 1008 569 l 1008 485 l 240 485 l 582 144 l 465 144 l 99 528 l 465 911 l 582 911 l 239 569 z "},"↖":{"ha":1069,"x_min":203,"x_max":936,"o":"m 342 793 l 936 197 l 876 139 l 282 733 l 282 247 l 203 328 l 203 872 l 747 872 l 828 793 l 342 793 z "},"↤":{"ha":1069,"x_min":36,"x_max":942,"o":"m 858 569 l 858 911 l 942 911 l 942 144 l 858 144 l 858 485 l 178 485 l 519 144 l 403 144 l 36 528 l 403 911 l 519 911 l 176 569 l 858 569 z "},"↥":{"ha":1069,"x_min":151,"x_max":918,"o":"m 918 657 l 918 542 l 578 882 l 578 188 l 918 188 l 918 104 l 151 104 l 151 188 l 493 188 l 493 883 l 151 542 l 151 657 l 535 1025 l 918 657 z "},"↦":{"ha":1069,"x_min":128,"x_max":1033,"o":"m 550 911 l 667 911 l 1033 528 l 667 144 l 550 144 l 892 485 l 211 485 l 211 144 l 128 144 l 128 911 l 211 911 l 211 569 l 893 569 l 550 911 z "},"↧":{"ha":1069,"x_min":151,"x_max":918,"o":"m 918 951 l 918 868 l 578 868 l 578 174 l 918 514 l 918 399 l 535 31 l 151 399 l 151 514 l 493 172 l 493 868 l 151 868 l 151 951 l 918 951 z "},"↰":{"ha":1069,"x_min":38,"x_max":946,"o":"m 179 569 l 946 569 l 946 0 l 864 0 l 864 485 l 181 485 l 522 144 l 406 144 l 38 528 l 406 911 l 522 911 l 179 569 z "},"↱":{"ha":1069,"x_min":124,"x_max":1032,"o":"m 547 911 l 664 911 l 1032 528 l 664 144 l 547 144 l 889 485 l 206 485 l 206 0 l 124 0 l 124 569 l 890 569 l 547 911 z "},"↲":{"ha":1069,"x_min":38,"x_max":946,"o":"m 864 571 l 864 1056 l 946 1056 l 946 486 l 179 486 l 522 144 l 406 144 l 38 528 l 406 911 l 522 911 l 181 571 l 864 571 z "},"↳":{"ha":1069,"x_min":124,"x_max":1032,"o":"m 547 911 l 664 911 l 1032 528 l 664 144 l 547 144 l 890 486 l 124 486 l 124 1056 l 206 1056 l 206 571 l 889 571 l 547 911 z "},"●":{"ha":953,"x_min":82,"x_max":871,"o":"m 476 -25 q 278 28 369 -25 q 135 172 188 82 q 82 369 82 263 q 135 567 82 476 q 278 711 188 658 q 476 764 369 764 q 674 711 583 764 q 817 567 764 658 q 871 369 871 476 q 817 172 871 263 q 674 28 764 82 q 476 -25 583 -25 z "},"○":{"ha":953,"x_min":82,"x_max":871,"o":"m 476 -25 q 278 28 369 -25 q 135 172 188 82 q 82 369 82 263 q 135 567 82 476 q 278 711 188 658 q 476 764 369 764 q 674 711 583 764 q 817 567 764 658 q 871 369 871 476 q 817 172 871 263 q 674 28 764 82 q 476 -25 583 -25 m 476 57 q 634 99 563 57 q 748 213 706 140 q 790 369 790 285 q 748 526 790 454 q 634 640 706 599 q 476 682 563 682 q 318 640 390 682 q 204 527 246 599 q 163 369 163 456 q 204 212 163 283 q 318 99 246 140 q 476 57 390 57 z "},"◊":{"ha":910,"x_min":71,"x_max":838,"o":"m 394 1056 l 514 1056 l 838 528 l 514 0 l 394 0 l 71 528 l 394 1056 m 163 528 l 454 51 l 747 528 l 456 1004 l 163 528 z "},"■":{"ha":1004,"x_min":133,"x_max":872,"o":"m 872 0 l 133 0 l 133 739 l 872 739 l 872 0 z "},"□":{"ha":1004,"x_min":133,"x_max":872,"o":"m 872 0 l 133 0 l 133 739 l 872 739 l 872 0 m 211 661 l 211 78 l 793 78 l 793 661 l 211 661 z "},"@":{"ha":1360,"x_min":67,"x_max":1283,"o":"m 675 928 q 980 846 840 928 q 1201 625 1119 764 q 1283 321 1283 486 q 1252 131 1283 204 q 1169 24 1221 57 q 1053 -8 1117 -8 q 956 12 1000 -8 q 885 68 913 32 q 851 150 857 104 q 763 37 824 82 q 613 -8 701 -8 q 498 17 550 -8 q 415 90 446 43 q 385 196 385 136 q 424 303 385 263 q 524 364 463 344 q 671 393 586 383 l 850 415 l 850 436 l 850 439 q 830 526 850 488 q 770 586 810 564 q 675 608 731 608 q 553 571 597 608 q 500 474 508 533 l 407 474 q 449 581 414 535 q 542 653 483 628 q 675 678 600 678 q 819 647 758 678 q 910 563 879 617 q 942 442 942 510 l 942 439 l 942 203 l 942 200 q 975 103 942 138 q 1064 68 1008 68 q 1168 124 1129 68 q 1207 321 1207 181 q 1135 587 1207 465 q 940 780 1063 708 q 675 851 818 851 q 409 780 531 851 q 216 586 288 708 q 144 321 144 464 q 216 54 144 176 q 409 -140 288 -68 q 675 -211 531 -211 q 807 -193 742 -211 q 933 -143 872 -175 l 974 -208 q 675 -287 833 -287 q 370 -206 510 -287 q 149 16 231 -124 q 67 321 67 156 q 149 625 67 486 q 370 846 231 764 q 675 928 510 928 m 639 61 q 751 90 703 61 q 824 167 799 118 q 850 279 850 217 l 850 350 l 714 335 q 590 312 639 325 q 509 271 540 299 q 478 194 478 243 q 499 123 478 153 q 558 77 521 93 q 639 61 594 61 z "},"&":{"ha":1036,"x_min":60,"x_max":1013,"o":"m 1013 0 l 897 0 l 750 165 q 600 33 685 82 q 410 -15 515 -15 q 231 19 311 -15 q 106 123 151 54 q 60 288 60 192 q 96 435 60 372 q 192 542 132 497 q 339 629 253 588 l 332 636 q 268 713 292 681 q 231 781 244 746 q 217 856 217 815 q 248 962 217 913 q 336 1041 279 1011 q 465 1071 393 1071 q 594 1042 539 1071 q 680 965 650 1014 q 710 857 710 917 q 681 760 710 803 q 606 686 653 718 q 488 619 558 654 l 469 611 l 746 300 l 893 547 l 983 547 l 800 239 l 1013 0 m 311 856 q 323 798 311 825 q 353 747 335 771 q 404 685 371 722 l 418 668 l 432 675 q 533 730 494 706 q 593 785 571 754 q 615 856 615 815 q 574 965 615 928 q 465 1001 532 1001 q 388 984 424 1001 q 332 933 353 967 q 311 856 311 900 m 411 54 q 578 100 510 54 q 699 224 646 146 l 390 571 q 260 492 310 531 q 182 406 210 454 q 154 292 154 357 q 190 164 154 218 q 283 82 225 110 q 411 54 342 54 z "},"¶":{"ha":869,"x_min":44,"x_max":718,"o":"m 328 486 q 185 524 250 486 q 82 628 119 563 q 44 772 44 694 q 82 915 44 850 q 185 1017 119 979 q 328 1056 250 1056 l 718 1056 l 718 -129 l 631 -129 l 631 981 l 417 981 l 417 -129 l 328 -129 l 328 486 z "}}}
